<svg width="25" height="24" viewBox="0 0 25 24" fill="none" xmlns="http://www.w3.org/2000/svg">
<g id="Calendar">
<path id="Vector" d="M6.875 4.5C5.63412 4.5 4.625 5.50912 4.625 6.75V17.25C4.625 18.4909 5.63412 19.5 6.875 19.5H18.125C19.3659 19.5 20.375 18.4909 20.375 17.25V6.75C20.375 5.50912 19.3659 4.5 18.125 4.5H6.875ZM6.875 8.625H18.125C18.5386 8.625 18.875 8.96137 18.875 9.375V17.25C18.875 17.6636 18.5386 18 18.125 18H6.875C6.46137 18 6.125 17.6636 6.125 17.25V9.375C6.125 8.96137 6.46137 8.625 6.875 8.625ZM10.625 9.75C10.418 9.75 10.25 9.918 10.25 10.125V10.875C10.25 11.082 10.418 11.25 10.625 11.25H11.375C11.582 11.25 11.75 11.082 11.75 10.875V10.125C11.75 9.918 11.582 9.75 11.375 9.75H10.625ZM13.625 9.75C13.418 9.75 13.25 9.918 13.25 10.125V10.875C13.25 11.082 13.418 11.25 13.625 11.25H14.375C14.582 11.25 14.75 11.082 14.75 10.875V10.125C14.75 9.918 14.582 9.75 14.375 9.75H13.625ZM16.625 9.75C16.418 9.75 16.25 9.918 16.25 10.125V10.875C16.25 11.082 16.418 11.25 16.625 11.25H17.375C17.582 11.25 17.75 11.082 17.75 10.875V10.125C17.75 9.918 17.582 9.75 17.375 9.75H16.625ZM7.625 12.375C7.418 12.375 7.25 12.543 7.25 12.75V13.5C7.25 13.707 7.418 13.875 7.625 13.875H8.375C8.582 13.875 8.75 13.707 8.75 13.5V12.75C8.75 12.543 8.582 12.375 8.375 12.375H7.625ZM10.625 12.375C10.418 12.375 10.25 12.543 10.25 12.75V13.5C10.25 13.707 10.418 13.875 10.625 13.875H11.375C11.582 13.875 11.75 13.707 11.75 13.5V12.75C11.75 12.543 11.582 12.375 11.375 12.375H10.625ZM13.625 12.375C13.418 12.375 13.25 12.543 13.25 12.75V13.5C13.25 13.707 13.418 13.875 13.625 13.875H14.375C14.582 13.875 14.75 13.707 14.75 13.5V12.75C14.75 12.543 14.582 12.375 14.375 12.375H13.625ZM16.625 12.375C16.418 12.375 16.25 12.543 16.25 12.75V13.5C16.25 13.707 16.418 13.875 16.625 13.875H17.375C17.582 13.875 17.75 13.707 17.75 13.5V12.75C17.75 12.543 17.582 12.375 17.375 12.375H16.625ZM7.625 15C7.418 15 7.25 15.168 7.25 15.375V16.125C7.25 16.332 7.418 16.5 7.625 16.5H8.375C8.582 16.5 8.75 16.332 8.75 16.125V15.375C8.75 15.168 8.582 15 8.375 15H7.625ZM10.625 15C10.418 15 10.25 15.168 10.25 15.375V16.125C10.25 16.332 10.418 16.5 10.625 16.5H11.375C11.582 16.5 11.75 16.332 11.75 16.125V15.375C11.75 15.168 11.582 15 11.375 15H10.625ZM13.625 15C13.418 15 13.25 15.168 13.25 15.375V16.125C13.25 16.332 13.418 16.5 13.625 16.5H14.375C14.582 16.5 14.75 16.332 14.75 16.125V15.375C14.75 15.168 14.582 15 14.375 15H13.625Z" fill="#E5DFE2"/>
</g>
</svg>
