<svg width="16" height="17" viewBox="0 0 16 17" fill="none" xmlns="http://www.w3.org/2000/svg">
<rect width="16" height="17" fill="#1E1E1E"/>
<path d="M-677 -2802C-677 -2803.1 -676.105 -2804 -675 -2804H2402C2403.1 -2804 2404 -2803.1 2404 -2802V1368C2404 1369.1 2403.1 1370 2402 1370H-675C-676.105 1370 -677 1369.1 -677 1368V-2802Z" fill="#404040"/>
<g clip-path="url(#clip0_33_2652)">
<rect width="1440" height="2486" transform="translate(-608 -1317)" fill="#0D0B0C"/>
<rect x="-288" y="-95" width="800" height="141" rx="12" fill="#262123"/>
<rect x="-74" y="-3.5" width="94" height="24" rx="4" fill="#EEEEFC"/>
<path d="M8 3C4.9625 3 2.5 5.4625 2.5 8.5C2.5 11.5375 4.9625 14 8 14C11.0375 14 13.5 11.5375 13.5 8.5C13.5 5.4625 11.0375 3 8 3ZM8 4C10.4852 4 12.5 6.01475 12.5 8.5C12.5 10.9852 10.4852 13 8 13C5.51475 13 3.5 10.9852 3.5 8.5C3.5 6.01475 5.51475 4 8 4ZM8 5.75C7.58575 5.75 7.25 6.08575 7.25 6.5C7.25 6.91425 7.58575 7.25 8 7.25C8.41425 7.25 8.75 6.91425 8.75 6.5C8.75 6.08575 8.41425 5.75 8 5.75ZM8 8C7.72375 8 7.5 8.224 7.5 8.5V11C7.5 11.276 7.72375 11.5 8 11.5C8.27625 11.5 8.5 11.276 8.5 11V8.5C8.5 8.224 8.27625 8 8 8Z" fill="#5559DF"/>
</g>
<path d="M-675 -2803H2402V-2805H-675V-2803ZM2403 -2802V1368H2405V-2802H2403ZM2402 1369H-675V1371H2402V1369ZM-676 1368V-2802H-678V1368H-676ZM-675 1369C-675.552 1369 -676 1368.55 -676 1368H-678C-678 1369.66 -676.657 1371 -675 1371V1369ZM2403 1368C2403 1368.55 2402.55 1369 2402 1369V1371C2403.66 1371 2405 1369.66 2405 1368H2403ZM2402 -2803C2402.55 -2803 2403 -2802.55 2403 -2802H2405C2405 -2803.66 2403.66 -2805 2402 -2805V-2803ZM-675 -2805C-676.657 -2805 -678 -2803.66 -678 -2802H-676C-676 -2802.55 -675.552 -2803 -675 -2803V-2805Z" fill="white" fill-opacity="0.1"/>
<defs>
<clipPath id="clip0_33_2652">
<rect width="1440" height="2486" fill="white" transform="translate(-608 -1317)"/>
</clipPath>
</defs>
</svg>
