<svg width="16" height="16" viewBox="0 0 16 16" fill="none" xmlns="http://www.w3.org/2000/svg">
<path d="M6.61298 3.76025C6.48501 3.76231 6.35827 3.81286 6.26239 3.91211L2.64081 7.65234C2.45306 7.84609 2.45306 8.1539 2.64081 8.34765L6.26239 12.0879C6.36039 12.1891 6.49078 12.2402 6.62128 12.2402C6.74653 12.2402 6.87218 12.1931 6.96943 12.0991C7.16768 11.9071 7.17291 11.5903 6.98066 11.3921L4.18036 8.5H13.0002C13.2762 8.5 13.5002 8.276 13.5002 8C13.5002 7.724 13.2762 7.5 13.0002 7.5H4.18036L6.98066 4.60791C7.17266 4.40966 7.16768 4.09313 6.96943 3.90088C6.87018 3.80488 6.74095 3.75819 6.61298 3.76025Z" fill="#1A1618"/>
</svg>
