<svg width="25" height="24" viewBox="0 0 25 24" fill="none" xmlns="http://www.w3.org/2000/svg">
<path d="M8.75 3.375C8.336 3.375 8 3.711 8 4.125V4.875H17V4.125C17 3.711 16.664 3.375 16.25 3.375H8.75ZM7.25 5.625C6.836 5.625 6.5 5.961 6.5 6.375V7.125H18.5V6.375C18.5 5.961 18.164 5.625 17.75 5.625H7.25ZM6.875 7.875C5.63412 7.875 4.625 8.88412 4.625 10.125V18.375C4.625 19.6159 5.63412 20.625 6.875 20.625H18.125C19.3659 20.625 20.375 19.6159 20.375 18.375V10.125C20.375 8.88412 19.3659 7.875 18.125 7.875H6.875ZM6.875 9.375H18.125C18.5386 9.375 18.875 9.71137 18.875 10.125V18.375C18.875 18.7886 18.5386 19.125 18.125 19.125H6.875C6.46137 19.125 6.125 18.7886 6.125 18.375V10.125C6.125 9.71137 6.46137 9.375 6.875 9.375ZM15.2678 10.4949C15.2245 10.4851 15.1785 10.4847 15.1316 10.4963L12.5952 11.1277C12.3192 11.1963 12.125 11.4444 12.125 11.729V14.4954C12.125 15.089 11.8392 15.2255 11.1882 15.3684C10.3115 15.5612 9.875 16.0361 9.875 16.7512C9.875 17.5267 10.5135 18 11.4446 18C12.3888 18 13.25 17.4116 13.25 15.4688V13.136C13.25 13.0374 13.3181 12.9512 13.4141 12.9287L15.1602 12.5215C15.3593 12.475 15.5 12.297 15.5 12.0923V10.7842C15.5 10.6396 15.3979 10.5242 15.2678 10.4949Z" fill="#E5DFE2"/>
</svg>
