<svg width="25" height="24" viewBox="0 0 25 24" fill="none" xmlns="http://www.w3.org/2000/svg">
<path d="M12.5 3.04102C12.3392 3.04097 12.1784 3.06673 12.0254 3.11792L6.02539 5.11743C5.41189 5.32181 5 5.89403 5 6.54053V14.8682C5 16.376 5.74916 17.7757 7.00391 18.6123L11.0439 21.3054C11.4861 21.6002 11.993 21.7478 12.5 21.7478C13.007 21.7478 13.5139 21.6002 13.9561 21.3054L17.9961 18.6123C19.2508 17.7757 20 16.376 20 14.8682V6.54053C20 5.89403 19.5881 5.32218 18.9746 5.11743L12.9746 3.11792C12.8218 3.06692 12.6608 3.04106 12.5 3.04102ZM12.5 4.54248C12.5041 4.54248 12.5076 4.54282 12.5117 4.54395L18.4744 6.53174C18.4894 6.53699 18.5 6.5515 18.5 6.56763V14.8682C18.5 15.8713 17.9988 16.8081 17.1641 17.3643L13.124 20.0574C12.7449 20.3101 12.2551 20.3101 11.876 20.0574L7.83594 17.3643C7.00119 16.8081 6.5 15.8713 6.5 14.8682V6.56763C6.5 6.5515 6.51063 6.53699 6.52563 6.53174L12.4883 4.54395C12.492 4.54282 12.4959 4.54248 12.5 4.54248ZM12.5 7.6875C12.086 7.6875 11.75 8.0235 11.75 8.4375V12.1875C11.75 12.6015 12.086 12.9375 12.5 12.9375C12.9144 12.9375 13.25 12.6015 13.25 12.1875V8.4375C13.25 8.0235 12.9144 7.6875 12.5 7.6875ZM12.5 14.0625C11.8786 14.0625 11.375 14.5661 11.375 15.1875C11.375 15.8089 11.8786 16.3125 12.5 16.3125C13.1214 16.3125 13.625 15.8089 13.625 15.1875C13.625 14.5661 13.1214 14.0625 12.5 14.0625Z" fill="#F2EBEF"/>
</svg>
