<svg width="25" height="24" viewBox="0 0 25 24" fill="none" xmlns="http://www.w3.org/2000/svg">
<g id="Visit">
<path id="Vector" d="M12.5 3.375C8.56512 3.375 5.375 6.56512 5.375 10.5C5.375 15.375 11.6277 20.5635 11.8943 20.7825C12.0702 20.9276 12.2851 21 12.5 21C12.7149 21 12.9298 20.9276 13.1057 20.7825C13.3723 20.5635 19.625 15.375 19.625 10.5C19.625 6.56512 16.4349 3.375 12.5 3.375ZM12.5 4.875C15.6016 4.875 18.125 7.39838 18.125 10.5C18.125 13.6511 14.6274 17.4866 12.5 19.3308C10.3737 17.4877 6.875 13.6515 6.875 10.5C6.875 7.39838 9.39838 4.875 12.5 4.875ZM12.5 8.62866C11.465 8.62866 10.625 9.465 10.625 10.5C10.625 11.535 11.465 12.3713 12.5 12.3713C13.535 12.3713 14.375 11.535 14.375 10.5C14.375 10.305 14.3447 10.1174 14.2922 9.94116C14.146 10.2674 13.82 10.5 13.4375 10.5C12.92 10.5 12.5 10.0799 12.5 9.56616C12.5 9.18366 12.7289 8.85393 13.0552 8.71143C12.8789 8.65893 12.6912 8.62866 12.5 8.62866Z" fill="#E5DFE2"/>
</g>
</svg>
