<svg width="24" height="24" viewBox="0 0 24 24" fill="none" xmlns="http://www.w3.org/2000/svg">
<path d="M11.3767 17.9547L7.68012 19.8715C7.29678 20.0743 6.83169 20.0428 6.4792 19.7901C6.12671 19.5375 5.94749 19.1072 6.01643 18.679L6.84177 13.933L3.34531 10.5726C3.03283 10.2723 2.92012 9.81951 3.05537 9.40778C3.19062 8.99605 3.5499 8.69828 3.97958 8.6418L8.81159 7.94951L10.9695 3.62771C11.1662 3.24051 11.5636 2.99658 11.9979 2.99658C12.4322 2.99658 12.8297 3.24051 13.0263 3.62771L15.1892 7.94951L20.0213 8.6398C20.4507 8.69626 20.8098 8.99371 20.9452 9.40511C21.0806 9.8165 20.9684 10.2691 20.6565 10.5696L18.6837 12.4654" stroke="#80737A" stroke-width="1.2" stroke-linecap="round" stroke-linejoin="round"/>
<path d="M18.5949 15.4096C19.3658 16.1787 19.5972 17.3367 19.181 18.343C18.7648 19.3494 17.7831 20.0057 16.6941 20.0057C15.6051 20.0057 14.6235 19.3494 14.2073 18.343C13.7911 17.3367 14.0224 16.1787 14.7933 15.4096C15.8436 14.3609 17.5447 14.3609 18.5949 15.4096" stroke="#80737A" stroke-width="1.2" stroke-linecap="round" stroke-linejoin="round"/>
<path d="M20.3835 21.0041L18.5947 19.2153" stroke="#80737A" stroke-width="1.2" stroke-linecap="round" stroke-linejoin="round"/>
</svg>
