<svg width="12" height="12" viewBox="0 0 12 12" fill="none" xmlns="http://www.w3.org/2000/svg">
<path d="M5.9995 4C5.9305 4 5.8745 4.056 5.875 4.125C5.875 4.194 5.931 4.25 6 4.25C6.069 4.25 6.125 4.194 6.125 4.125C6.125 4.056 6.069 4 5.9995 4" stroke="#EEEEFC" stroke-linecap="round" stroke-linejoin="round"/>
<path fill-rule="evenodd" clip-rule="evenodd" d="M6 10.5V10.5C3.5145 10.5 1.5 8.4855 1.5 6V6C1.5 3.5145 3.5145 1.5 6 1.5V1.5C8.4855 1.5 10.5 3.5145 10.5 6V6C10.5 8.4855 8.4855 10.5 6 10.5Z" stroke="#EEEEFC" stroke-linecap="round" stroke-linejoin="round"/>
<path d="M6 6V8.5" stroke="#EEEEFC" stroke-linecap="round" stroke-linejoin="round"/>
</svg>
