<svg width="399" height="64" viewBox="0 0 399 64" fill="none" xmlns="http://www.w3.org/2000/svg">
<rect x="0.5" y="0.5" width="398" height="63" rx="3.5" fill="#1A1618" fill-opacity="0.8"/>
<path d="M31.4688 16.0625C30.8683 16.0625 30.3394 16.3727 30.032 16.8407L22.3116 18.8994C21.9762 18.9889 21.679 19.1574 21.4309 19.3767C21.1199 19.0669 20.6913 18.875 20.2188 18.875C19.2712 18.875 18.5 19.6459 18.5 20.5938V23.4062C18.5 24.3541 19.2712 25.125 20.2188 25.125C20.6801 25.125 21.0986 24.941 21.4077 24.644L21.7068 25.8403C21.9149 26.6741 22.526 27.3336 23.3413 27.6055L23.9633 27.813C24.2267 27.9008 24.4954 27.9436 24.761 27.9436C25.4875 27.9436 26.1885 27.6252 26.6744 27.0421L27.2042 26.4055L30.0326 27.1599C30.3401 27.6275 30.8686 27.9375 31.4688 27.9375C32.4163 27.9375 33.1875 27.1666 33.1875 26.2188V17.7812C33.1875 16.8334 32.4163 16.0625 31.4688 16.0625ZM31.4688 17.3125C31.7272 17.3125 31.9375 17.5228 31.9375 17.7812V26.2188C31.9375 26.4772 31.7272 26.6875 31.4688 26.6875C31.2103 26.6875 31 26.4772 31 26.2188V17.7812C31 17.5228 31.2103 17.3125 31.4688 17.3125ZM29.75 18.2097V25.7903L22.6333 23.8927C22.2236 23.7836 21.9375 23.411 21.9375 22.9869V21.0131C21.9375 20.589 22.2236 20.2164 22.6333 20.1073L29.75 18.2097ZM20.2188 20.125C20.4772 20.125 20.6875 20.3353 20.6875 20.5938V21.0131V22.9869V23.4062C20.6875 23.6647 20.4772 23.875 20.2188 23.875C19.9603 23.875 19.75 23.6647 19.75 23.4062V20.5938C19.75 20.3353 19.9603 20.125 20.2188 20.125ZM22.8463 25.244L25.873 26.0509L25.7144 26.2413C25.3822 26.6395 24.8506 26.7918 24.3588 26.6271L23.7368 26.4196C23.3293 26.2839 23.0236 25.9539 22.9196 25.537L22.8463 25.244Z" fill="#EEEEFC"/>
<path d="M48.368 24.613C48.368 25.1497 48.3073 25.607 48.186 25.985C48.0647 26.363 47.8477 26.65 47.535 26.846C47.227 27.042 46.7883 27.14 46.219 27.14C45.8597 27.14 45.5213 27.098 45.204 27.014C44.8913 26.93 44.6837 26.867 44.581 26.825L44.672 25.586C44.8167 25.6373 44.9823 25.7027 45.169 25.782C45.3603 25.8567 45.596 25.894 45.876 25.894C46.3333 25.894 46.646 25.768 46.814 25.516C46.9867 25.264 47.073 24.8393 47.073 24.242V16.878H48.368V24.613ZM51.4364 23.682C51.4364 24.1393 51.5111 24.5547 51.6604 24.928C51.8144 25.2967 52.0454 25.5907 52.3534 25.81C52.6661 26.0293 53.0557 26.139 53.5224 26.139C53.9844 26.139 54.3811 26.0317 54.7124 25.817C55.0484 25.6023 55.2631 25.292 55.3564 24.886H56.5814C56.4927 25.376 56.2967 25.789 55.9934 26.125C55.6901 26.461 55.3237 26.7153 54.8944 26.888C54.4651 27.056 54.0171 27.14 53.5504 27.14C52.8737 27.14 52.2787 26.993 51.7654 26.699C51.2521 26.405 50.8507 25.9827 50.5614 25.432C50.2721 24.8813 50.1274 24.221 50.1274 23.451C50.1274 22.6903 50.2581 22.023 50.5194 21.449C50.7807 20.875 51.1587 20.427 51.6534 20.105C52.1527 19.783 52.7524 19.622 53.4524 19.622C54.1337 19.622 54.7101 19.769 55.1814 20.063C55.6527 20.357 56.0097 20.7723 56.2524 21.309C56.4997 21.841 56.6234 22.4733 56.6234 23.206V23.682H51.4364ZM51.4434 22.807H55.3774C55.3774 22.3917 55.3074 22.0183 55.1674 21.687C55.0274 21.351 54.8127 21.0873 54.5234 20.896C54.2387 20.7 53.8794 20.602 53.4454 20.602C52.9927 20.602 52.6171 20.7117 52.3184 20.931C52.0244 21.1457 51.8027 21.4233 51.6534 21.764C51.5087 22.1 51.4387 22.4477 51.4434 22.807ZM67.9016 27H66.5296L64.2616 23.367L62.8336 24.844V27H61.5456V16.598H62.8336V23.381L66.2356 19.762H67.7196L65.1086 22.52L67.9016 27ZM71.9576 27.14C71.5796 27.1353 71.2226 27.0817 70.8866 26.979C70.5552 26.8717 70.2612 26.7153 70.0046 26.51C69.7479 26.3047 69.5449 26.0503 69.3956 25.747C69.2509 25.439 69.1786 25.082 69.1786 24.676V19.762H70.4736V24.543C70.4736 25.0143 70.6182 25.397 70.9076 25.691C71.2016 25.985 71.6426 26.132 72.2306 26.132C72.7626 26.132 73.1896 25.9943 73.5116 25.719C73.8382 25.439 74.0016 25.0237 74.0016 24.473V19.762H75.2896V27H74.2606L74.1276 25.614C74.0389 25.978 73.8872 26.272 73.6726 26.496C73.4626 26.72 73.2082 26.8857 72.9096 26.993C72.6156 27.0957 72.2982 27.1447 71.9576 27.14ZM77.3913 27V19.762H78.6443V20.812C78.761 20.6113 78.922 20.4223 79.1273 20.245C79.3373 20.0677 79.5893 19.9253 79.8833 19.818C80.182 19.7107 80.525 19.657 80.9123 19.657C81.3696 19.657 81.7896 19.748 82.1723 19.93C82.5596 20.112 82.8676 20.3967 83.0963 20.784C83.3296 21.1667 83.4463 21.6613 83.4463 22.268V27H82.1513V22.394C82.1513 21.8293 82.002 21.4117 81.7033 21.141C81.4093 20.8657 81.0266 20.728 80.5553 20.728C80.2286 20.728 79.923 20.7817 79.6383 20.889C79.3536 20.9917 79.1226 21.1503 78.9453 21.365C78.768 21.575 78.6793 21.841 78.6793 22.163V27H77.3913ZM88.8069 20.707H87.1759V25.208C87.1759 25.4647 87.2016 25.6537 87.2529 25.775C87.3089 25.8917 87.3999 25.9663 87.5259 25.999C87.6566 26.0317 87.8339 26.048 88.0579 26.048H88.8489V26.916C88.7602 26.9487 88.6249 26.9767 88.4429 27C88.2656 27.0233 88.0439 27.035 87.7779 27.035C87.2786 27.035 86.8912 26.9673 86.6159 26.832C86.3406 26.6967 86.1469 26.496 86.0349 26.23C85.9276 25.964 85.8739 25.6373 85.8739 25.25V20.707H84.6979V19.762H85.9089L86.2239 17.655H87.1759V19.755H88.8069V20.707ZM97.5842 20.707H95.9532V25.208C95.9532 25.4647 95.9789 25.6537 96.0302 25.775C96.0862 25.8917 96.1772 25.9663 96.3032 25.999C96.4339 26.0317 96.6112 26.048 96.8352 26.048H97.6262V26.916C97.5376 26.9487 97.4022 26.9767 97.2202 27C97.0429 27.0233 96.8212 27.035 96.5552 27.035C96.0559 27.035 95.6686 26.9673 95.3932 26.832C95.1179 26.6967 94.9242 26.496 94.8122 26.23C94.7049 25.964 94.6512 25.6373 94.6512 25.25V20.707H93.4752V19.762H94.6862L95.0012 17.655H95.9532V19.755H97.5842V20.707ZM102.13 27.14C101.462 27.14 100.879 26.9977 100.38 26.713C99.8803 26.4237 99.493 26.0013 99.2176 25.446C98.9423 24.8907 98.8046 24.2117 98.8046 23.409C98.8046 22.653 98.933 21.9903 99.1896 21.421C99.4463 20.8517 99.822 20.4107 100.317 20.098C100.816 19.7807 101.42 19.622 102.13 19.622C102.797 19.622 103.376 19.769 103.866 20.063C104.36 20.3523 104.743 20.7793 105.014 21.344C105.284 21.9087 105.42 22.597 105.42 23.409C105.42 24.1463 105.294 24.795 105.042 25.355C104.794 25.915 104.426 26.3537 103.936 26.671C103.45 26.9837 102.848 27.14 102.13 27.14ZM102.13 26.118C102.564 26.118 102.93 26.0083 103.229 25.789C103.527 25.5697 103.754 25.2547 103.908 24.844C104.062 24.4333 104.139 23.9457 104.139 23.381C104.139 22.863 104.071 22.3987 103.936 21.988C103.8 21.5727 103.583 21.2437 103.285 21.001C102.991 20.7583 102.606 20.637 102.13 20.637C101.691 20.637 101.32 20.7467 101.017 20.966C100.713 21.1807 100.482 21.4933 100.324 21.904C100.17 22.3147 100.093 22.807 100.093 23.381C100.093 23.8897 100.163 24.3517 100.303 24.767C100.443 25.1823 100.662 25.5113 100.961 25.754C101.259 25.9967 101.649 26.118 102.13 26.118ZM108.038 23.682C108.038 24.1393 108.113 24.5547 108.262 24.928C108.416 25.2967 108.647 25.5907 108.955 25.81C109.268 26.0293 109.657 26.139 110.124 26.139C110.586 26.139 110.983 26.0317 111.314 25.817C111.65 25.6023 111.865 25.292 111.958 24.886H113.183C113.094 25.376 112.898 25.789 112.595 26.125C112.292 26.461 111.925 26.7153 111.496 26.888C111.067 27.056 110.619 27.14 110.152 27.14C109.475 27.14 108.88 26.993 108.367 26.699C107.854 26.405 107.452 25.9827 107.163 25.432C106.874 24.8813 106.729 24.221 106.729 23.451C106.729 22.6903 106.86 22.023 107.121 21.449C107.382 20.875 107.76 20.427 108.255 20.105C108.754 19.783 109.354 19.622 110.054 19.622C110.735 19.622 111.312 19.769 111.783 20.063C112.254 20.357 112.611 20.7723 112.854 21.309C113.101 21.841 113.225 22.4733 113.225 23.206V23.682H108.038ZM108.045 22.807H111.979C111.979 22.3917 111.909 22.0183 111.769 21.687C111.629 21.351 111.414 21.0873 111.125 20.896C110.84 20.7 110.481 20.602 110.047 20.602C109.594 20.602 109.219 20.7117 108.92 20.931C108.626 21.1457 108.404 21.4233 108.255 21.764C108.11 22.1 108.04 22.4477 108.045 22.807ZM118 29.394C116.861 29.394 115.975 29.2283 115.34 28.897C114.71 28.5703 114.395 28.1013 114.395 27.49C114.395 27.2287 114.456 27.007 114.577 26.825C114.698 26.6383 114.843 26.4843 115.011 26.363C115.179 26.2417 115.335 26.146 115.48 26.076C115.625 26.0013 115.718 25.9477 115.76 25.915C115.681 25.8683 115.58 25.81 115.459 25.74C115.342 25.67 115.24 25.5767 115.151 25.46C115.062 25.3433 115.018 25.1917 115.018 25.005C115.018 24.7763 115.125 24.5663 115.34 24.375C115.555 24.1837 115.872 24.0413 116.292 23.948C115.867 23.7333 115.536 23.4487 115.298 23.094C115.06 22.7393 114.941 22.3543 114.941 21.939C114.941 21.4723 115.067 21.0663 115.319 20.721C115.576 20.3757 115.94 20.112 116.411 19.93C116.882 19.7433 117.442 19.65 118.091 19.65C118.562 19.65 118.959 19.706 119.281 19.818C119.603 19.9253 119.902 20.0793 120.177 20.28C120.252 20.2473 120.368 20.1983 120.527 20.133C120.69 20.063 120.87 19.9883 121.066 19.909C121.262 19.8297 121.444 19.755 121.612 19.685C121.785 19.6103 121.922 19.5543 122.025 19.517L122.018 20.714L120.751 20.952C120.821 21.1013 120.877 21.2647 120.919 21.442C120.966 21.6193 120.989 21.785 120.989 21.939C120.989 22.3637 120.877 22.7487 120.653 23.094C120.434 23.4393 120.1 23.7147 119.652 23.92C119.204 24.1253 118.644 24.228 117.972 24.228C117.916 24.228 117.844 24.228 117.755 24.228C117.671 24.2233 117.599 24.2187 117.538 24.214C117.043 24.228 116.703 24.284 116.516 24.382C116.329 24.4753 116.236 24.5803 116.236 24.697C116.236 24.8323 116.341 24.9257 116.551 24.977C116.761 25.0283 117.118 25.0727 117.622 25.11C117.804 25.1193 118.028 25.131 118.294 25.145C118.565 25.159 118.863 25.1777 119.19 25.201C119.951 25.2477 120.536 25.4413 120.947 25.782C121.358 26.1227 121.563 26.5823 121.563 27.161C121.563 27.819 121.269 28.3557 120.681 28.771C120.093 29.1863 119.199 29.394 118 29.394ZM118.231 28.561C118.898 28.561 119.409 28.4607 119.764 28.26C120.119 28.0593 120.296 27.756 120.296 27.35C120.296 27.0607 120.186 26.825 119.967 26.643C119.752 26.4563 119.423 26.349 118.98 26.321L116.95 26.188C116.768 26.1787 116.579 26.2253 116.383 26.328C116.187 26.426 116.019 26.5637 115.879 26.741C115.744 26.9183 115.676 27.119 115.676 27.343C115.676 27.7257 115.884 28.0243 116.299 28.239C116.719 28.4537 117.363 28.561 118.231 28.561ZM118.007 23.395C118.53 23.395 118.95 23.2737 119.267 23.031C119.589 22.7883 119.75 22.429 119.75 21.953C119.75 21.463 119.589 21.0897 119.267 20.833C118.95 20.5763 118.53 20.448 118.007 20.448C117.48 20.448 117.053 20.5787 116.726 20.84C116.404 21.0967 116.243 21.4677 116.243 21.953C116.243 22.4103 116.397 22.765 116.705 23.017C117.013 23.269 117.447 23.395 118.007 23.395ZM125.44 27.14C124.974 27.14 124.561 27.0583 124.201 26.895C123.842 26.727 123.56 26.4867 123.354 26.174C123.154 25.8613 123.053 25.4833 123.053 25.04C123.053 24.2373 123.333 23.64 123.893 23.248C124.453 22.856 125.352 22.646 126.588 22.618L127.883 22.583V22.016C127.883 21.5727 127.75 21.2227 127.484 20.966C127.218 20.7047 126.805 20.574 126.245 20.574C125.83 20.5787 125.464 20.6767 125.146 20.868C124.834 21.0593 124.631 21.372 124.537 21.806H123.396C123.424 21.3347 123.557 20.938 123.795 20.616C124.033 20.2893 124.365 20.042 124.789 19.874C125.219 19.706 125.725 19.622 126.308 19.622C126.938 19.622 127.461 19.7107 127.876 19.888C128.296 20.0653 128.609 20.3267 128.814 20.672C129.024 21.0173 129.129 21.442 129.129 21.946V27H128.023L127.932 25.642C127.652 26.2067 127.295 26.5987 126.861 26.818C126.432 27.0327 125.958 27.14 125.44 27.14ZM125.832 26.209C126.075 26.209 126.315 26.1647 126.553 26.076C126.796 25.9873 127.018 25.8683 127.218 25.719C127.419 25.565 127.578 25.3947 127.694 25.208C127.816 25.0167 127.879 24.8207 127.883 24.62V23.381L126.805 23.402C126.255 23.4113 125.793 23.4673 125.419 23.57C125.051 23.6727 124.773 23.8337 124.586 24.053C124.404 24.2723 124.313 24.5593 124.313 24.914C124.313 25.32 124.453 25.6373 124.733 25.866C125.018 26.0947 125.384 26.209 125.832 26.209ZM131.341 27V19.762H132.594V20.812C132.71 20.6113 132.871 20.4223 133.077 20.245C133.287 20.0677 133.539 19.9253 133.833 19.818C134.131 19.7107 134.474 19.657 134.862 19.657C135.319 19.657 135.739 19.748 136.122 19.93C136.509 20.112 136.817 20.3967 137.046 20.784C137.279 21.1667 137.396 21.6613 137.396 22.268V27H136.101V22.394C136.101 21.8293 135.951 21.4117 135.653 21.141C135.359 20.8657 134.976 20.728 134.505 20.728C134.178 20.728 133.872 20.7817 133.588 20.889C133.303 20.9917 133.072 21.1503 132.895 21.365C132.717 21.575 132.629 21.841 132.629 22.163V27H131.341ZM142.473 29.394C141.334 29.394 140.447 29.2283 139.813 28.897C139.183 28.5703 138.868 28.1013 138.868 27.49C138.868 27.2287 138.928 27.007 139.05 26.825C139.171 26.6383 139.316 26.4843 139.484 26.363C139.652 26.2417 139.808 26.146 139.953 26.076C140.097 26.0013 140.191 25.9477 140.233 25.915C140.153 25.8683 140.053 25.81 139.932 25.74C139.815 25.67 139.712 25.5767 139.624 25.46C139.535 25.3433 139.491 25.1917 139.491 25.005C139.491 24.7763 139.598 24.5663 139.813 24.375C140.027 24.1837 140.345 24.0413 140.765 23.948C140.34 23.7333 140.009 23.4487 139.771 23.094C139.533 22.7393 139.414 22.3543 139.414 21.939C139.414 21.4723 139.54 21.0663 139.792 20.721C140.048 20.3757 140.412 20.112 140.884 19.93C141.355 19.7433 141.915 19.65 142.564 19.65C143.035 19.65 143.432 19.706 143.754 19.818C144.076 19.9253 144.374 20.0793 144.65 20.28C144.724 20.2473 144.841 20.1983 145 20.133C145.163 20.063 145.343 19.9883 145.539 19.909C145.735 19.8297 145.917 19.755 146.085 19.685C146.257 19.6103 146.395 19.5543 146.498 19.517L146.491 20.714L145.224 20.952C145.294 21.1013 145.35 21.2647 145.392 21.442C145.438 21.6193 145.462 21.785 145.462 21.939C145.462 22.3637 145.35 22.7487 145.126 23.094C144.906 23.4393 144.573 23.7147 144.125 23.92C143.677 24.1253 143.117 24.228 142.445 24.228C142.389 24.228 142.316 24.228 142.228 24.228C142.144 24.2233 142.071 24.2187 142.011 24.214C141.516 24.228 141.175 24.284 140.989 24.382C140.802 24.4753 140.709 24.5803 140.709 24.697C140.709 24.8323 140.814 24.9257 141.024 24.977C141.234 25.0283 141.591 25.0727 142.095 25.11C142.277 25.1193 142.501 25.131 142.767 25.145C143.037 25.159 143.336 25.1777 143.663 25.201C144.423 25.2477 145.009 25.4413 145.42 25.782C145.83 26.1227 146.036 26.5823 146.036 27.161C146.036 27.819 145.742 28.3557 145.154 28.771C144.566 29.1863 143.672 29.394 142.473 29.394ZM142.704 28.561C143.371 28.561 143.882 28.4607 144.237 28.26C144.591 28.0593 144.769 27.756 144.769 27.35C144.769 27.0607 144.659 26.825 144.44 26.643C144.225 26.4563 143.896 26.349 143.453 26.321L141.423 26.188C141.241 26.1787 141.052 26.2253 140.856 26.328C140.66 26.426 140.492 26.5637 140.352 26.741C140.216 26.9183 140.149 27.119 140.149 27.343C140.149 27.7257 140.356 28.0243 140.772 28.239C141.192 28.4537 141.836 28.561 142.704 28.561ZM142.48 23.395C143.002 23.395 143.422 23.2737 143.74 23.031C144.062 22.7883 144.223 22.429 144.223 21.953C144.223 21.463 144.062 21.0897 143.74 20.833C143.422 20.5763 143.002 20.448 142.48 20.448C141.952 20.448 141.525 20.5787 141.199 20.84C140.877 21.0967 140.716 21.4677 140.716 21.953C140.716 22.4103 140.87 22.765 141.178 23.017C141.486 23.269 141.92 23.395 142.48 23.395ZM157.698 27H156.326L154.058 23.367L152.63 24.844V27H151.342V16.598H152.63V23.381L156.032 19.762H157.516L154.905 22.52L157.698 27ZM159.245 27V19.762H160.477V21.155C160.598 20.8097 160.768 20.525 160.988 20.301C161.207 20.0723 161.457 19.902 161.737 19.79C162.021 19.678 162.315 19.622 162.619 19.622C162.726 19.622 162.831 19.629 162.934 19.643C163.036 19.657 163.116 19.6803 163.172 19.713V20.966C163.102 20.9333 163.011 20.9123 162.899 20.903C162.791 20.889 162.7 20.882 162.626 20.882C162.336 20.8633 162.066 20.882 161.814 20.938C161.562 20.9893 161.34 21.0803 161.149 21.211C160.957 21.3417 160.806 21.5143 160.694 21.729C160.586 21.939 160.533 22.1957 160.533 22.499V27H159.245ZM166.073 19.762V27H164.82V19.762H166.073ZM166.101 16.885V18.229H164.778V16.885H166.101ZM169.848 27.322C169.848 27.9987 169.701 28.5003 169.407 28.827C169.118 29.1583 168.605 29.324 167.867 29.324C167.471 29.324 167.221 29.296 167.118 29.24C167.011 29.184 166.957 29.156 166.957 29.156V28.295L167.671 28.26C167.998 28.2367 168.227 28.1503 168.357 28.001C168.488 27.8517 168.553 27.6113 168.553 27.28V19.762H169.848V27.322ZM169.883 16.885V18.229H168.511V16.885H169.883ZM175.053 29.394C173.914 29.394 173.027 29.2283 172.393 28.897C171.763 28.5703 171.448 28.1013 171.448 27.49C171.448 27.2287 171.508 27.007 171.63 26.825C171.751 26.6383 171.896 26.4843 172.064 26.363C172.232 26.2417 172.388 26.146 172.533 26.076C172.677 26.0013 172.771 25.9477 172.813 25.915C172.733 25.8683 172.633 25.81 172.512 25.74C172.395 25.67 172.292 25.5767 172.204 25.46C172.115 25.3433 172.071 25.1917 172.071 25.005C172.071 24.7763 172.178 24.5663 172.393 24.375C172.607 24.1837 172.925 24.0413 173.345 23.948C172.92 23.7333 172.589 23.4487 172.351 23.094C172.113 22.7393 171.994 22.3543 171.994 21.939C171.994 21.4723 172.12 21.0663 172.372 20.721C172.628 20.3757 172.992 20.112 173.464 19.93C173.935 19.7433 174.495 19.65 175.144 19.65C175.615 19.65 176.012 19.706 176.334 19.818C176.656 19.9253 176.954 20.0793 177.23 20.28C177.304 20.2473 177.421 20.1983 177.58 20.133C177.743 20.063 177.923 19.9883 178.119 19.909C178.315 19.8297 178.497 19.755 178.665 19.685C178.837 19.6103 178.975 19.5543 179.078 19.517L179.071 20.714L177.804 20.952C177.874 21.1013 177.93 21.2647 177.972 21.442C178.018 21.6193 178.042 21.785 178.042 21.939C178.042 22.3637 177.93 22.7487 177.706 23.094C177.486 23.4393 177.153 23.7147 176.705 23.92C176.257 24.1253 175.697 24.228 175.025 24.228C174.969 24.228 174.896 24.228 174.808 24.228C174.724 24.2233 174.651 24.2187 174.591 24.214C174.096 24.228 173.755 24.284 173.569 24.382C173.382 24.4753 173.289 24.5803 173.289 24.697C173.289 24.8323 173.394 24.9257 173.604 24.977C173.814 25.0283 174.171 25.0727 174.675 25.11C174.857 25.1193 175.081 25.131 175.347 25.145C175.617 25.159 175.916 25.1777 176.243 25.201C177.003 25.2477 177.589 25.4413 178 25.782C178.41 26.1227 178.616 26.5823 178.616 27.161C178.616 27.819 178.322 28.3557 177.734 28.771C177.146 29.1863 176.252 29.394 175.053 29.394ZM175.284 28.561C175.951 28.561 176.462 28.4607 176.817 28.26C177.171 28.0593 177.349 27.756 177.349 27.35C177.349 27.0607 177.239 26.825 177.02 26.643C176.805 26.4563 176.476 26.349 176.033 26.321L174.003 26.188C173.821 26.1787 173.632 26.2253 173.436 26.328C173.24 26.426 173.072 26.5637 172.932 26.741C172.796 26.9183 172.729 27.119 172.729 27.343C172.729 27.7257 172.936 28.0243 173.352 28.239C173.772 28.4537 174.416 28.561 175.284 28.561ZM175.06 23.395C175.582 23.395 176.002 23.2737 176.32 23.031C176.642 22.7883 176.803 22.429 176.803 21.953C176.803 21.463 176.642 21.0897 176.32 20.833C176.002 20.5763 175.582 20.448 175.06 20.448C174.532 20.448 174.105 20.5787 173.779 20.84C173.457 21.0967 173.296 21.4677 173.296 21.953C173.296 22.4103 173.45 22.765 173.758 23.017C174.066 23.269 174.5 23.395 175.06 23.395ZM181.401 23.682C181.401 24.1393 181.476 24.5547 181.625 24.928C181.779 25.2967 182.01 25.5907 182.318 25.81C182.631 26.0293 183.021 26.139 183.487 26.139C183.949 26.139 184.346 26.0317 184.677 25.817C185.013 25.6023 185.228 25.292 185.321 24.886H186.546C186.458 25.376 186.262 25.789 185.958 26.125C185.655 26.461 185.289 26.7153 184.859 26.888C184.43 27.056 183.982 27.14 183.515 27.14C182.839 27.14 182.244 26.993 181.73 26.699C181.217 26.405 180.816 25.9827 180.526 25.432C180.237 24.8813 180.092 24.221 180.092 23.451C180.092 22.6903 180.223 22.023 180.484 21.449C180.746 20.875 181.124 20.427 181.618 20.105C182.118 19.783 182.717 19.622 183.417 19.622C184.099 19.622 184.675 19.769 185.146 20.063C185.618 20.357 185.975 20.7723 186.217 21.309C186.465 21.841 186.588 22.4733 186.588 23.206V23.682H181.401ZM181.408 22.807H185.342C185.342 22.3917 185.272 22.0183 185.132 21.687C184.992 21.351 184.778 21.0873 184.488 20.896C184.204 20.7 183.844 20.602 183.41 20.602C182.958 20.602 182.582 20.7117 182.283 20.931C181.989 21.1457 181.768 21.4233 181.618 21.764C181.474 22.1 181.404 22.4477 181.408 22.807ZM188.366 27V19.762H189.619V20.812C189.736 20.6113 189.897 20.4223 190.102 20.245C190.312 20.0677 190.564 19.9253 190.858 19.818C191.157 19.7107 191.5 19.657 191.887 19.657C192.344 19.657 192.764 19.748 193.147 19.93C193.534 20.112 193.842 20.3967 194.071 20.784C194.304 21.1667 194.421 21.6613 194.421 22.268V27H193.126V22.394C193.126 21.8293 192.977 21.4117 192.678 21.141C192.384 20.8657 192.001 20.728 191.53 20.728C191.203 20.728 190.898 20.7817 190.613 20.889C190.328 20.9917 190.097 21.1503 189.92 21.365C189.743 21.575 189.654 21.841 189.654 22.163V27H188.366ZM203.364 20.707H201.733V25.208C201.733 25.4647 201.758 25.6537 201.81 25.775C201.866 25.8917 201.957 25.9663 202.083 25.999C202.213 26.0317 202.391 26.048 202.615 26.048H203.406V26.916C203.317 26.9487 203.182 26.9767 203 27C202.822 27.0233 202.601 27.035 202.335 27.035C201.835 27.035 201.448 26.9673 201.173 26.832C200.897 26.6967 200.704 26.496 200.592 26.23C200.484 25.964 200.431 25.6373 200.431 25.25V20.707H199.255V19.762H200.466L200.781 17.655H201.733V19.755H203.364V20.707ZM207.909 27.14C207.242 27.14 206.658 26.9977 206.159 26.713C205.66 26.4237 205.272 26.0013 204.997 25.446C204.722 24.8907 204.584 24.2117 204.584 23.409C204.584 22.653 204.712 21.9903 204.969 21.421C205.226 20.8517 205.601 20.4107 206.096 20.098C206.595 19.7807 207.2 19.622 207.909 19.622C208.576 19.622 209.155 19.769 209.645 20.063C210.14 20.3523 210.522 20.7793 210.793 21.344C211.064 21.9087 211.199 22.597 211.199 23.409C211.199 24.1463 211.073 24.795 210.821 25.355C210.574 25.915 210.205 26.3537 209.715 26.671C209.23 26.9837 208.628 27.14 207.909 27.14ZM207.909 26.118C208.343 26.118 208.709 26.0083 209.008 25.789C209.307 25.5697 209.533 25.2547 209.687 24.844C209.841 24.4333 209.918 23.9457 209.918 23.381C209.918 22.863 209.85 22.3987 209.715 21.988C209.58 21.5727 209.363 21.2437 209.064 21.001C208.77 20.7583 208.385 20.637 207.909 20.637C207.47 20.637 207.099 20.7467 206.796 20.966C206.493 21.1807 206.262 21.4933 206.103 21.904C205.949 22.3147 205.872 22.807 205.872 23.381C205.872 23.8897 205.942 24.3517 206.082 24.767C206.222 25.1823 206.441 25.5113 206.74 25.754C207.039 25.9967 207.428 26.118 207.909 26.118ZM216.338 20.707H214.707V25.208C214.707 25.4647 214.733 25.6537 214.784 25.775C214.84 25.8917 214.931 25.9663 215.057 25.999C215.188 26.0317 215.365 26.048 215.589 26.048H216.38V26.916C216.291 26.9487 216.156 26.9767 215.974 27C215.797 27.0233 215.575 27.035 215.309 27.035C214.81 27.035 214.422 26.9673 214.147 26.832C213.872 26.6967 213.678 26.496 213.566 26.23C213.459 25.964 213.405 25.6373 213.405 25.25V20.707H212.229V19.762H213.44L213.755 17.655H214.707V19.755H216.338V20.707ZM224.124 27.14C223.456 27.14 222.873 26.9977 222.374 26.713C221.874 26.4237 221.487 26.0013 221.212 25.446C220.936 24.8907 220.799 24.2117 220.799 23.409C220.799 22.653 220.927 21.9903 221.184 21.421C221.44 20.8517 221.816 20.4107 222.311 20.098C222.81 19.7807 223.414 19.622 224.124 19.622C224.791 19.622 225.37 19.769 225.86 20.063C226.354 20.3523 226.737 20.7793 227.008 21.344C227.278 21.9087 227.414 22.597 227.414 23.409C227.414 24.1463 227.288 24.795 227.036 25.355C226.788 25.915 226.42 26.3537 225.93 26.671C225.444 26.9837 224.842 27.14 224.124 27.14ZM224.124 26.118C224.558 26.118 224.924 26.0083 225.223 25.789C225.521 25.5697 225.748 25.2547 225.902 24.844C226.056 24.4333 226.133 23.9457 226.133 23.381C226.133 22.863 226.065 22.3987 225.93 21.988C225.794 21.5727 225.577 21.2437 225.279 21.001C224.985 20.7583 224.6 20.637 224.124 20.637C223.685 20.637 223.314 20.7467 223.011 20.966C222.707 21.1807 222.476 21.4933 222.318 21.904C222.164 22.3147 222.087 22.807 222.087 23.381C222.087 23.8897 222.157 24.3517 222.297 24.767C222.437 25.1823 222.656 25.5113 222.955 25.754C223.253 25.9967 223.643 26.118 224.124 26.118ZM229.108 27V19.762H230.361V20.812C230.478 20.6113 230.639 20.4223 230.844 20.245C231.054 20.0677 231.306 19.9253 231.6 19.818C231.899 19.7107 232.242 19.657 232.629 19.657C233.086 19.657 233.506 19.748 233.889 19.93C234.276 20.112 234.584 20.3967 234.813 20.784C235.046 21.1667 235.163 21.6613 235.163 22.268V27H233.868V22.394C233.868 21.8293 233.719 21.4117 233.42 21.141C233.126 20.8657 232.743 20.728 232.272 20.728C231.945 20.728 231.64 20.7817 231.355 20.889C231.07 20.9917 230.839 21.1503 230.662 21.365C230.485 21.575 230.396 21.841 230.396 22.163V27H229.108ZM236.622 27V26.195L240.71 20.714H236.797V19.762H242.25V20.567L238.169 26.048H242.285V27H236.622ZM244.702 23.682C244.702 24.1393 244.777 24.5547 244.926 24.928C245.08 25.2967 245.311 25.5907 245.619 25.81C245.932 26.0293 246.321 26.139 246.788 26.139C247.25 26.139 247.647 26.0317 247.978 25.817C248.314 25.6023 248.529 25.292 248.622 24.886H249.847C249.758 25.376 249.562 25.789 249.259 26.125C248.956 26.461 248.589 26.7153 248.16 26.888C247.731 27.056 247.283 27.14 246.816 27.14C246.139 27.14 245.544 26.993 245.031 26.699C244.518 26.405 244.116 25.9827 243.827 25.432C243.538 24.8813 243.393 24.221 243.393 23.451C243.393 22.6903 243.524 22.023 243.785 21.449C244.046 20.875 244.424 20.427 244.919 20.105C245.418 19.783 246.018 19.622 246.718 19.622C247.399 19.622 247.976 19.769 248.447 20.063C248.918 20.357 249.275 20.7723 249.518 21.309C249.765 21.841 249.889 22.4733 249.889 23.206V23.682H244.702ZM244.709 22.807H248.643C248.643 22.3917 248.573 22.0183 248.433 21.687C248.293 21.351 248.078 21.0873 247.789 20.896C247.504 20.7 247.145 20.602 246.711 20.602C246.258 20.602 245.883 20.7117 245.584 20.931C245.29 21.1457 245.068 21.4233 244.919 21.764C244.774 22.1 244.704 22.4477 244.709 22.807ZM255.558 23.682C255.558 24.1393 255.632 24.5547 255.782 24.928C255.936 25.2967 256.167 25.5907 256.475 25.81C256.787 26.0293 257.177 26.139 257.644 26.139C258.106 26.139 258.502 26.0317 258.834 25.817C259.17 25.6023 259.384 25.292 259.478 24.886H260.703C260.614 25.376 260.418 25.789 260.115 26.125C259.811 26.461 259.445 26.7153 259.016 26.888C258.586 27.056 258.138 27.14 257.672 27.14C256.995 27.14 256.4 26.993 255.887 26.699C255.373 26.405 254.972 25.9827 254.683 25.432C254.393 24.8813 254.249 24.221 254.249 23.451C254.249 22.6903 254.379 22.023 254.641 21.449C254.902 20.875 255.28 20.427 255.775 20.105C256.274 19.783 256.874 19.622 257.574 19.622C258.255 19.622 258.831 19.769 259.303 20.063C259.774 20.357 260.131 20.7723 260.374 21.309C260.621 21.841 260.745 22.4733 260.745 23.206V23.682H255.558ZM255.565 22.807H259.499C259.499 22.3917 259.429 22.0183 259.289 21.687C259.149 21.351 258.934 21.0873 258.645 20.896C258.36 20.7 258.001 20.602 257.567 20.602C257.114 20.602 256.738 20.7117 256.44 20.931C256.146 21.1457 255.924 21.4233 255.775 21.764C255.63 22.1 255.56 22.4477 255.565 22.807ZM267.973 19.762L265.362 27H264.186L261.568 19.762H262.786L264.711 25.376H264.83L266.762 19.762H267.973ZM270.022 23.682C270.022 24.1393 270.097 24.5547 270.246 24.928C270.4 25.2967 270.631 25.5907 270.939 25.81C271.252 26.0293 271.642 26.139 272.108 26.139C272.57 26.139 272.967 26.0317 273.298 25.817C273.634 25.6023 273.849 25.292 273.942 24.886H275.167C275.079 25.376 274.883 25.789 274.579 26.125C274.276 26.461 273.91 26.7153 273.48 26.888C273.051 27.056 272.603 27.14 272.136 27.14C271.46 27.14 270.865 26.993 270.351 26.699C269.838 26.405 269.437 25.9827 269.147 25.432C268.858 24.8813 268.713 24.221 268.713 23.451C268.713 22.6903 268.844 22.023 269.105 21.449C269.367 20.875 269.745 20.427 270.239 20.105C270.739 19.783 271.338 19.622 272.038 19.622C272.72 19.622 273.296 19.769 273.767 20.063C274.239 20.357 274.596 20.7723 274.838 21.309C275.086 21.841 275.209 22.4733 275.209 23.206V23.682H270.022ZM270.029 22.807H273.963C273.963 22.3917 273.893 22.0183 273.753 21.687C273.613 21.351 273.399 21.0873 273.109 20.896C272.825 20.7 272.465 20.602 272.031 20.602C271.579 20.602 271.203 20.7117 270.904 20.931C270.61 21.1457 270.389 21.4233 270.239 21.764C270.095 22.1 270.025 22.4477 270.029 22.807ZM276.987 27V19.762H278.24V20.812C278.357 20.6113 278.518 20.4223 278.723 20.245C278.933 20.0677 279.185 19.9253 279.479 19.818C279.778 19.7107 280.121 19.657 280.508 19.657C280.965 19.657 281.385 19.748 281.768 19.93C282.155 20.112 282.463 20.3967 282.692 20.784C282.925 21.1667 283.042 21.6613 283.042 22.268V27H281.747V22.394C281.747 21.8293 281.598 21.4117 281.299 21.141C281.005 20.8657 280.622 20.728 280.151 20.728C279.824 20.728 279.519 20.7817 279.234 20.889C278.949 20.9917 278.718 21.1503 278.541 21.365C278.364 21.575 278.275 21.841 278.275 22.163V27H276.987ZM288.403 20.707H286.772V25.208C286.772 25.4647 286.797 25.6537 286.849 25.775C286.905 25.8917 286.996 25.9663 287.122 25.999C287.252 26.0317 287.43 26.048 287.654 26.048H288.445V26.916C288.356 26.9487 288.221 26.9767 288.039 27C287.861 27.0233 287.64 27.035 287.374 27.035C286.874 27.035 286.487 26.9673 286.212 26.832C285.936 26.6967 285.743 26.496 285.631 26.23C285.523 25.964 285.47 25.6373 285.47 25.25V20.707H284.294V19.762H285.505L285.82 17.655H286.772V19.755H288.403V20.707ZM292.804 27.14C292.3 27.14 291.831 27.063 291.397 26.909C290.968 26.7503 290.611 26.5053 290.326 26.174C290.041 25.838 289.862 25.411 289.787 24.893H290.963C291.028 25.1777 291.145 25.4157 291.313 25.607C291.486 25.7937 291.7 25.936 291.957 26.034C292.214 26.1273 292.494 26.174 292.797 26.174C293.282 26.174 293.674 26.083 293.973 25.901C294.272 25.719 294.421 25.439 294.421 25.061C294.421 24.795 294.342 24.5827 294.183 24.424C294.029 24.2607 293.789 24.1417 293.462 24.067L291.964 23.696C291.381 23.556 290.914 23.3367 290.564 23.038C290.214 22.7393 290.039 22.3217 290.039 21.785C290.034 21.3603 290.135 20.987 290.34 20.665C290.545 20.343 290.853 20.0887 291.264 19.902C291.675 19.7153 292.186 19.622 292.797 19.622C293.581 19.622 294.213 19.7993 294.694 20.154C295.179 20.504 295.431 21.0197 295.45 21.701H294.309C294.262 21.3557 294.106 21.0827 293.84 20.882C293.579 20.6767 293.226 20.574 292.783 20.574C292.321 20.574 291.945 20.6673 291.656 20.854C291.367 21.036 291.222 21.3207 291.222 21.708C291.222 21.9647 291.325 22.1677 291.53 22.317C291.735 22.4617 292.039 22.583 292.44 22.681L293.889 23.045C294.225 23.1337 294.5 23.2503 294.715 23.395C294.934 23.5397 295.107 23.7007 295.233 23.878C295.364 24.0553 295.455 24.242 295.506 24.438C295.562 24.6293 295.59 24.8137 295.59 24.991C295.59 25.4343 295.478 25.817 295.254 26.139C295.035 26.4563 294.717 26.7037 294.302 26.881C293.891 27.0537 293.392 27.14 292.804 27.14ZM306.145 19.762L303.534 27H302.358L299.74 19.762H300.958L302.883 25.376H303.002L304.934 19.762H306.145ZM308.93 19.762V27H307.677V19.762H308.93ZM308.958 16.885V18.229H307.635V16.885H308.958ZM313.21 27.14C312.743 27.14 312.33 27.0583 311.971 26.895C311.611 26.727 311.329 26.4867 311.124 26.174C310.923 25.8613 310.823 25.4833 310.823 25.04C310.823 24.2373 311.103 23.64 311.663 23.248C312.223 22.856 313.121 22.646 314.358 22.618L315.653 22.583V22.016C315.653 21.5727 315.52 21.2227 315.254 20.966C314.988 20.7047 314.575 20.574 314.015 20.574C313.599 20.5787 313.233 20.6767 312.916 20.868C312.603 21.0593 312.4 21.372 312.307 21.806H311.166C311.194 21.3347 311.327 20.938 311.565 20.616C311.803 20.2893 312.134 20.042 312.559 19.874C312.988 19.706 313.494 19.622 314.078 19.622C314.708 19.622 315.23 19.7107 315.646 19.888C316.066 20.0653 316.378 20.3267 316.584 20.672C316.794 21.0173 316.899 21.442 316.899 21.946V27H315.793L315.702 25.642C315.422 26.2067 315.065 26.5987 314.631 26.818C314.201 27.0327 313.728 27.14 313.21 27.14ZM313.602 26.209C313.844 26.209 314.085 26.1647 314.323 26.076C314.565 25.9873 314.787 25.8683 314.988 25.719C315.188 25.565 315.347 25.3947 315.464 25.208C315.585 25.0167 315.648 24.8207 315.653 24.62V23.381L314.575 23.402C314.024 23.4113 313.562 23.4673 313.189 23.57C312.82 23.6727 312.542 23.8337 312.356 24.053C312.174 24.2723 312.083 24.5593 312.083 24.914C312.083 25.32 312.223 25.6373 312.503 25.866C312.787 26.0947 313.154 26.209 313.602 26.209ZM324.77 27.14C323.832 27.14 323.088 26.818 322.537 26.174C321.986 25.53 321.711 24.5897 321.711 23.353C321.711 22.6017 321.821 21.946 322.04 21.386C322.264 20.826 322.595 20.392 323.034 20.084C323.473 19.776 324.019 19.622 324.672 19.622C325.017 19.622 325.323 19.6663 325.589 19.755C325.86 19.8437 326.093 19.9557 326.289 20.091C326.485 20.2263 326.644 20.3663 326.765 20.511C326.891 20.6557 326.984 20.7887 327.045 20.91V16.598H328.347V27H327.36L327.22 25.516C327.173 25.656 327.099 25.8193 326.996 26.006C326.893 26.188 326.749 26.3677 326.562 26.545C326.375 26.7177 326.135 26.86 325.841 26.972C325.552 27.084 325.195 27.14 324.77 27.14ZM325.001 26.146C325.734 26.146 326.256 25.9243 326.569 25.481C326.886 25.033 327.045 24.3027 327.045 23.29C327.04 22.7253 326.968 22.2447 326.828 21.848C326.693 21.4513 326.478 21.1503 326.184 20.945C325.895 20.735 325.51 20.63 325.029 20.63C324.432 20.63 323.946 20.8423 323.573 21.267C323.2 21.6917 323.013 22.366 323.013 23.29C323.013 24.1953 323.181 24.8977 323.517 25.397C323.858 25.8963 324.352 26.146 325.001 26.146ZM331.409 23.682C331.409 24.1393 331.484 24.5547 331.633 24.928C331.787 25.2967 332.018 25.5907 332.326 25.81C332.639 26.0293 333.028 26.139 333.495 26.139C333.957 26.139 334.354 26.0317 334.685 25.817C335.021 25.6023 335.236 25.292 335.329 24.886H336.554C336.465 25.376 336.269 25.789 335.966 26.125C335.663 26.461 335.296 26.7153 334.867 26.888C334.438 27.056 333.99 27.14 333.523 27.14C332.846 27.14 332.251 26.993 331.738 26.699C331.225 26.405 330.823 25.9827 330.534 25.432C330.245 24.8813 330.1 24.221 330.1 23.451C330.1 22.6903 330.231 22.023 330.492 21.449C330.753 20.875 331.131 20.427 331.626 20.105C332.125 19.783 332.725 19.622 333.425 19.622C334.106 19.622 334.683 19.769 335.154 20.063C335.625 20.357 335.982 20.7723 336.225 21.309C336.472 21.841 336.596 22.4733 336.596 23.206V23.682H331.409ZM331.416 22.807H335.35C335.35 22.3917 335.28 22.0183 335.14 21.687C335 21.351 334.785 21.0873 334.496 20.896C334.211 20.7 333.852 20.602 333.418 20.602C332.965 20.602 332.59 20.7117 332.291 20.931C331.997 21.1457 331.775 21.4233 331.626 21.764C331.481 22.1 331.411 22.4477 331.416 22.807ZM47.962 39.622C48.5033 39.622 48.984 39.7293 49.404 39.944C49.8287 40.154 50.1717 40.448 50.433 40.826C50.6943 41.204 50.853 41.645 50.909 42.149H49.614C49.572 41.911 49.481 41.6893 49.341 41.484C49.2057 41.2787 49.0213 41.1153 48.788 40.994C48.5593 40.868 48.2863 40.805 47.969 40.805C47.3903 40.805 46.919 41.0173 46.555 41.442C46.191 41.8667 46.009 42.5177 46.009 43.395C46.009 44.1977 46.177 44.837 46.513 45.313C46.8537 45.789 47.3483 46.027 47.997 46.027C48.3097 46.027 48.5803 45.9617 48.809 45.831C49.0423 45.7003 49.2267 45.5323 49.362 45.327C49.4973 45.1217 49.5837 44.9093 49.621 44.69H50.895C50.8437 45.1753 50.685 45.6023 50.419 45.971C50.1577 46.3397 49.8147 46.6267 49.39 46.832C48.97 47.0373 48.494 47.14 47.962 47.14C47.304 47.14 46.7207 46.9977 46.212 46.713C45.7033 46.4237 45.3043 46.0013 45.015 45.446C44.7303 44.886 44.588 44.207 44.588 43.409C44.588 42.6577 44.721 41.9973 44.987 41.428C45.253 40.8587 45.638 40.4153 46.142 40.098C46.6507 39.7807 47.2573 39.622 47.962 39.622ZM55.5019 47.14C54.8252 47.14 54.2325 46.9953 53.7239 46.706C53.2199 46.412 52.8279 45.9873 52.5479 45.432C52.2725 44.8767 52.1349 44.2047 52.1349 43.416C52.1349 42.6553 52.2655 41.9903 52.5269 41.421C52.7929 40.8517 53.1779 40.4107 53.6819 40.098C54.1859 39.7807 54.7949 39.622 55.5089 39.622C56.1902 39.622 56.7805 39.7713 57.2799 40.07C57.7792 40.364 58.1665 40.7957 58.4419 41.365C58.7172 41.9297 58.8549 42.6133 58.8549 43.416C58.8549 44.1487 58.7242 44.795 58.4629 45.355C58.2062 45.915 57.8282 46.3537 57.3289 46.671C56.8342 46.9837 56.2252 47.14 55.5019 47.14ZM55.5089 45.985C55.9195 45.985 56.2625 45.8777 56.5379 45.663C56.8179 45.4437 57.0279 45.138 57.1679 44.746C57.3079 44.3493 57.3779 43.892 57.3779 43.374C57.3779 42.8933 57.3149 42.457 57.1889 42.065C57.0675 41.6683 56.8692 41.3533 56.5939 41.12C56.3185 40.8867 55.9569 40.77 55.5089 40.77C55.0889 40.77 54.7389 40.8773 54.4589 41.092C54.1789 41.302 53.9665 41.603 53.8219 41.995C53.6819 42.3823 53.6119 42.842 53.6119 43.374C53.6119 43.8453 53.6749 44.2793 53.8009 44.676C53.9269 45.0727 54.1299 45.39 54.4099 45.628C54.6899 45.866 55.0562 45.985 55.5089 45.985ZM60.4642 47V39.762H61.9202V40.805C62.1256 40.4877 62.4056 40.2123 62.7602 39.979C63.1149 39.741 63.5722 39.622 64.1322 39.622C64.3936 39.622 64.6572 39.6663 64.9232 39.755C65.1939 39.8437 65.4412 39.9767 65.6652 40.154C65.8939 40.3267 66.0736 40.5413 66.2042 40.798C66.4329 40.4527 66.7386 40.1703 67.1212 39.951C67.5039 39.7317 67.9332 39.622 68.4092 39.622C68.6659 39.622 68.9319 39.664 69.2072 39.748C69.4826 39.8273 69.7369 39.965 69.9702 40.161C70.2082 40.3523 70.3996 40.6183 70.5442 40.959C70.6936 41.2997 70.7682 41.7313 70.7682 42.254V47H69.2632V42.415C69.2632 42.0183 69.1956 41.708 69.0602 41.484C68.9296 41.26 68.7569 41.1037 68.5422 41.015C68.3322 40.9217 68.1082 40.875 67.8702 40.875C67.6556 40.875 67.4316 40.917 67.1982 41.001C66.9649 41.085 66.7666 41.225 66.6032 41.421C66.4399 41.617 66.3582 41.883 66.3582 42.219V47H64.8602V42.093C64.8602 41.827 64.7879 41.603 64.6432 41.421C64.5032 41.239 64.3259 41.1037 64.1112 41.015C63.9012 40.9217 63.6912 40.875 63.4812 40.875C63.2479 40.875 63.0146 40.9217 62.7812 41.015C62.5479 41.1083 62.3519 41.2553 62.1932 41.456C62.0392 41.652 61.9622 41.9063 61.9622 42.219V47H60.4642ZM72.6869 47V39.762H74.1429V40.805C74.3482 40.4877 74.6282 40.2123 74.9829 39.979C75.3375 39.741 75.7949 39.622 76.3549 39.622C76.6162 39.622 76.8799 39.6663 77.1459 39.755C77.4165 39.8437 77.6639 39.9767 77.8879 40.154C78.1165 40.3267 78.2962 40.5413 78.4269 40.798C78.6555 40.4527 78.9612 40.1703 79.3439 39.951C79.7265 39.7317 80.1559 39.622 80.6319 39.622C80.8885 39.622 81.1545 39.664 81.4299 39.748C81.7052 39.8273 81.9595 39.965 82.1929 40.161C82.4309 40.3523 82.6222 40.6183 82.7669 40.959C82.9162 41.2997 82.9909 41.7313 82.9909 42.254V47H81.4859V42.415C81.4859 42.0183 81.4182 41.708 81.2829 41.484C81.1522 41.26 80.9795 41.1037 80.7649 41.015C80.5549 40.9217 80.3309 40.875 80.0929 40.875C79.8782 40.875 79.6542 40.917 79.4209 41.001C79.1875 41.085 78.9892 41.225 78.8259 41.421C78.6625 41.617 78.5809 41.883 78.5809 42.219V47H77.0829V42.093C77.0829 41.827 77.0105 41.603 76.8659 41.421C76.7259 41.239 76.5485 41.1037 76.3339 41.015C76.1239 40.9217 75.9139 40.875 75.7039 40.875C75.4705 40.875 75.2372 40.9217 75.0039 41.015C74.7705 41.1083 74.5745 41.2553 74.4159 41.456C74.2619 41.652 74.1849 41.9063 74.1849 42.219V47H72.6869ZM87.4602 47.14C87.0962 47.1353 86.7485 47.0817 86.4172 46.979C86.0858 46.8763 85.7895 46.7223 85.5282 46.517C85.2715 46.3117 85.0662 46.0573 84.9122 45.754C84.7628 45.4507 84.6882 45.0983 84.6882 44.697V39.762H86.1932V44.536C86.1932 44.97 86.3285 45.3223 86.5992 45.593C86.8698 45.8637 87.2782 45.999 87.8242 45.999C88.3188 45.999 88.7155 45.8707 89.0142 45.614C89.3128 45.3527 89.4622 44.9723 89.4622 44.473V39.762H90.9532V47H89.7912L89.6232 45.6C89.5392 45.978 89.3875 46.2813 89.1682 46.51C88.9535 46.734 88.6968 46.8973 88.3982 47C88.1042 47.098 87.7915 47.1447 87.4602 47.14ZM92.9623 47V39.762H94.4253V40.805C94.5419 40.609 94.6983 40.4247 94.8943 40.252C95.0949 40.0793 95.3399 39.9393 95.6293 39.832C95.9233 39.7247 96.2616 39.671 96.6443 39.671C97.0969 39.671 97.5146 39.762 97.8973 39.944C98.2846 40.1213 98.5949 40.4013 98.8283 40.784C99.0616 41.162 99.1783 41.652 99.1783 42.254V47H97.6803V42.415C97.6803 41.897 97.5403 41.512 97.2603 41.26C96.9849 41.008 96.6279 40.882 96.1893 40.882C95.8953 40.882 95.6153 40.931 95.3493 41.029C95.0833 41.127 94.8686 41.2763 94.7053 41.477C94.5419 41.673 94.4603 41.9203 94.4603 42.219V47H92.9623ZM102.679 39.762V47H101.237V39.762H102.679ZM102.707 36.885V38.362H101.202V36.885H102.707ZM108.777 40.84H107.153L107.16 45.159C107.16 45.397 107.184 45.572 107.23 45.684C107.282 45.7913 107.366 45.8613 107.482 45.894C107.604 45.922 107.767 45.936 107.972 45.936H108.819V46.909C108.726 46.9463 108.586 46.979 108.399 47.007C108.217 47.035 107.982 47.049 107.692 47.049C107.156 47.049 106.738 46.9767 106.439 46.832C106.145 46.6873 105.94 46.4797 105.823 46.209C105.711 45.9337 105.655 45.6023 105.655 45.215V40.84H104.479V39.762H105.697L106.068 37.634H107.153V39.755H108.777V40.84ZM111.411 49.31C110.968 49.31 110.66 49.2773 110.487 49.212C110.319 49.1467 110.235 49.114 110.235 49.114V48.148L110.97 48.162C111.25 48.176 111.479 48.1597 111.656 48.113C111.838 48.0663 111.981 48.001 112.083 47.917C112.191 47.8377 112.272 47.7513 112.328 47.658C112.384 47.5647 112.426 47.4783 112.454 47.399L112.678 46.79L109.857 39.762H111.355L113.385 45.11L115.401 39.762H116.871L113.854 47.406C113.649 47.91 113.423 48.2997 113.175 48.575C112.933 48.8503 112.664 49.0417 112.37 49.149C112.076 49.2563 111.757 49.31 111.411 49.31ZM124.06 39.622C124.601 39.622 125.082 39.7293 125.502 39.944C125.926 40.154 126.269 40.448 126.531 40.826C126.792 41.204 126.951 41.645 127.007 42.149H125.712C125.67 41.911 125.579 41.6893 125.439 41.484C125.303 41.2787 125.119 41.1153 124.886 40.994C124.657 40.868 124.384 40.805 124.067 40.805C123.488 40.805 123.017 41.0173 122.653 41.442C122.289 41.8667 122.107 42.5177 122.107 43.395C122.107 44.1977 122.275 44.837 122.611 45.313C122.951 45.789 123.446 46.027 124.095 46.027C124.407 46.027 124.678 45.9617 124.907 45.831C125.14 45.7003 125.324 45.5323 125.46 45.327C125.595 45.1217 125.681 44.9093 125.719 44.69H126.993C126.941 45.1753 126.783 45.6023 126.517 45.971C126.255 46.3397 125.912 46.6267 125.488 46.832C125.068 47.0373 124.592 47.14 124.06 47.14C123.402 47.14 122.818 46.9977 122.31 46.713C121.801 46.4237 121.402 46.0013 121.113 45.446C120.828 44.886 120.686 44.207 120.686 43.409C120.686 42.6577 120.819 41.9973 121.085 41.428C121.351 40.8587 121.736 40.4153 122.24 40.098C122.748 39.7807 123.355 39.622 124.06 39.622ZM128.66 47V36.598H130.137V40.819C130.253 40.6277 130.41 40.4457 130.606 40.273C130.806 40.1003 131.049 39.9603 131.334 39.853C131.623 39.741 131.959 39.685 132.342 39.685C132.813 39.685 133.238 39.7737 133.616 39.951C133.998 40.1237 134.302 40.3757 134.526 40.707C134.754 41.0337 134.869 41.4233 134.869 41.876V47H133.371V42.149C133.371 41.743 133.231 41.4303 132.951 41.211C132.671 40.9917 132.311 40.882 131.873 40.882C131.579 40.882 131.299 40.9333 131.033 41.036C130.771 41.134 130.559 41.2833 130.396 41.484C130.237 41.68 130.158 41.9273 130.158 42.226V47H128.66ZM138.797 47.14C138.33 47.14 137.915 47.056 137.551 46.888C137.192 46.72 136.909 46.4773 136.704 46.16C136.499 45.8427 136.396 45.46 136.396 45.012C136.396 44.2093 136.681 43.6097 137.25 43.213C137.819 42.8163 138.727 42.6063 139.973 42.583L141.163 42.548V42.023C141.163 41.6077 141.039 41.281 140.792 41.043C140.545 40.805 140.164 40.6883 139.651 40.693C139.264 40.693 138.918 40.7817 138.615 40.959C138.316 41.1363 138.12 41.428 138.027 41.834H136.725C136.753 41.3533 136.891 40.9497 137.138 40.623C137.39 40.2917 137.735 40.042 138.174 39.874C138.613 39.706 139.128 39.622 139.721 39.622C140.379 39.622 140.92 39.713 141.345 39.895C141.77 40.0723 142.085 40.3337 142.29 40.679C142.5 41.0243 142.605 41.4443 142.605 41.939V47H141.338L141.219 45.67C140.948 46.2253 140.605 46.6103 140.19 46.825C139.779 47.035 139.315 47.14 138.797 47.14ZM139.266 46.097C139.495 46.097 139.721 46.0573 139.945 45.978C140.169 45.894 140.372 45.782 140.554 45.642C140.736 45.4973 140.881 45.3363 140.988 45.159C141.1 44.9817 141.158 44.7997 141.163 44.613V43.416L140.183 43.437C139.684 43.4417 139.259 43.493 138.909 43.591C138.564 43.689 138.298 43.8407 138.111 44.046C137.929 44.2513 137.838 44.5243 137.838 44.865C137.838 45.2523 137.973 45.5557 138.244 45.775C138.515 45.9897 138.855 46.097 139.266 46.097ZM148.248 40.84H146.624L146.631 45.159C146.631 45.397 146.654 45.572 146.701 45.684C146.752 45.7913 146.836 45.8613 146.953 45.894C147.074 45.922 147.238 45.936 147.443 45.936H148.29V46.909C148.197 46.9463 148.057 46.979 147.87 47.007C147.688 47.035 147.452 47.049 147.163 47.049C146.626 47.049 146.209 46.9767 145.91 46.832C145.616 46.6873 145.411 46.4797 145.294 46.209C145.182 45.9337 145.126 45.6023 145.126 45.215V40.84H143.95V39.762H145.168L145.539 37.634H146.624V39.755H148.248V40.84ZM149.77 47V45.348H151.31V47H149.77Z" fill="#EEEEFC"/>
<path d="M44 50.08H148.997V51.06H44V50.08Z" fill="#EEEEFC"/>
<rect x="0.5" y="0.5" width="398" height="63" rx="3.5" stroke="url(#paint0_linear_655_6378)"/>
<defs>
<linearGradient id="paint0_linear_655_6378" x1="0" y1="32" x2="399" y2="32" gradientUnits="userSpaceOnUse">
<stop stop-color="#8932F6"/>
<stop offset="1" stop-color="#F971BA"/>
</linearGradient>
</defs>
</svg>
