<svg width="25" height="24" viewBox="0 0 25 24" fill="none" xmlns="http://www.w3.org/2000/svg">
<path d="M15.5 6L13.7 4.28572L15.5 2.57143L14.3 1.42857L12.5 3.14286L10.7 1.42857L9.5 2.57143L11.3 4.28572L9.5 6L10.7 7.14286L12.5 5.42857L14.3 7.14286L15.5 6Z" fill="white"/>
<path d="M15.5 13.7143L13.7 12L15.5 10.2857L14.3 9.14286L12.5 10.8571L10.7 9.14286L9.5 10.2857L11.3 12L9.5 13.7143L10.7 14.8571L12.5 13.1429L14.3 14.8571L15.5 13.7143Z" fill="white"/>
<path d="M15.5 21.4286L13.7 19.7143L15.5 18L14.3 16.8571L12.5 18.5714L10.7 16.8571L9.5 18L11.3 19.7143L9.5 21.4286L10.7 22.5714L12.5 20.8571L14.3 22.5714L15.5 21.4286Z" fill="white"/>
</svg>
