<svg width="20" height="20" viewBox="0 0 20 20" fill="none" xmlns="http://www.w3.org/2000/svg">
<path d="M13.3337 1.6665V4.99984" stroke="#F2EBEF" stroke-linecap="round" stroke-linejoin="round"/>
<path d="M6.66667 1.6665V4.99984" stroke="#F2EBEF" stroke-linecap="round" stroke-linejoin="round"/>
<path d="M2.5 7.49967H17.5" stroke="#F2EBEF" stroke-linecap="round" stroke-linejoin="round"/>
<path fill-rule="evenodd" clip-rule="evenodd" d="M15.8333 3.33301H4.16667C3.24583 3.33301 2.5 4.07884 2.5 4.99967V15.833C2.5 16.7538 3.24583 17.4997 4.16667 17.4997H15.8333C16.7542 17.4997 17.5 16.7538 17.5 15.833V4.99967C17.5 4.07884 16.7542 3.33301 15.8333 3.33301Z" stroke="#F2EBEF" stroke-linecap="round" stroke-linejoin="round"/>
<path d="M10.0106 10.6073C9.89556 10.6073 9.80223 10.7006 9.80306 10.8156C9.80306 10.9306 9.8964 11.0239 10.0114 11.0239C10.1264 11.0239 10.2197 10.9306 10.2197 10.8156C10.2197 10.7006 10.1264 10.6073 10.0106 10.6073" stroke="#F2EBEF" stroke-linecap="round" stroke-linejoin="round"/>
<path d="M14.1776 10.6073C14.0626 10.6073 13.9692 10.7006 13.9701 10.8156C13.9701 10.9306 14.0634 11.0239 14.1784 11.0239C14.2934 11.0239 14.3867 10.9306 14.3867 10.8156C14.3867 10.7006 14.2934 10.6073 14.1776 10.6073" stroke="#F2EBEF" stroke-linecap="round" stroke-linejoin="round"/>
<path d="M5.84455 13.9408C5.72955 13.9408 5.63621 14.0341 5.63705 14.1491C5.63705 14.2641 5.73038 14.3574 5.84538 14.3574C5.96038 14.3574 6.05371 14.2641 6.05371 14.1491C6.05371 14.0341 5.96038 13.9408 5.84455 13.9408" stroke="#F2EBEF" stroke-linecap="round" stroke-linejoin="round"/>
<path d="M10.0106 13.9408C9.89556 13.9408 9.80223 14.0341 9.80306 14.1491C9.80306 14.2641 9.8964 14.3574 10.0114 14.3574C10.1264 14.3574 10.2197 14.2641 10.2197 14.1491C10.2197 14.0341 10.1264 13.9408 10.0106 13.9408" stroke="#F2EBEF" stroke-linecap="round" stroke-linejoin="round"/>
</svg>
