<svg width="101" height="70" viewBox="0 0 101 70" fill="none" xmlns="http://www.w3.org/2000/svg">
<rect x="0.5" width="100" height="70" rx="8" fill="#262123"/>
<path d="M44.875 16.5C43.6341 16.5 42.625 17.5091 42.625 18.75V29.25C42.625 30.4909 43.6341 31.5 44.875 31.5H56.125C57.3659 31.5 58.375 30.4909 58.375 29.25V18.75C58.375 17.5091 57.3659 16.5 56.125 16.5H44.875ZM44.875 20.625H56.125C56.5386 20.625 56.875 20.9614 56.875 21.375V29.25C56.875 29.6636 56.5386 30 56.125 30H44.875C44.4614 30 44.125 29.6636 44.125 29.25V21.375C44.125 20.9614 44.4614 20.625 44.875 20.625ZM46.0938 23.6023C45.4472 23.6023 44.9841 23.9546 44.9841 24.4863C44.9841 24.9195 45.2683 25.197 45.8484 25.3118L46.1567 25.3726C46.5212 25.4472 46.6577 25.5556 46.6577 25.7468C46.6577 25.9602 46.4365 26.1174 46.1099 26.1174C45.832 26.1174 45.6045 26.0168 45.51 25.7952C45.4376 25.6662 45.3544 25.6179 45.2295 25.6179C45.0724 25.6179 44.9622 25.7247 44.9622 25.886C44.9622 25.9404 44.9738 25.9968 44.9944 26.0493C45.111 26.3677 45.4959 26.6067 46.0967 26.6074C46.8216 26.6074 47.2671 26.249 47.2671 25.6809C47.2671 25.2395 47.0007 24.9924 46.3838 24.8694L46.0776 24.8064C45.7334 24.7378 45.595 24.6275 45.595 24.4482C45.595 24.2349 45.7945 24.0938 46.0945 24.0938C46.3442 24.0938 46.5317 24.1842 46.6284 24.4036C46.6967 24.5284 46.7808 24.583 46.9177 24.583C47.073 24.583 47.1777 24.4842 47.1777 24.3391C47.1777 24.2866 47.1693 24.2445 47.155 24.2043C47.026 23.8256 46.6255 23.6023 46.0938 23.6023ZM52.531 23.6023C51.8845 23.6023 51.4214 23.9546 51.4214 24.4863C51.4214 24.9195 51.7055 25.197 52.2856 25.3118L52.5933 25.3726C52.9578 25.4472 53.095 25.5556 53.095 25.7468C53.095 25.9602 52.8737 26.1174 52.5471 26.1174C52.2692 26.1174 52.0418 26.0168 51.9473 25.7952C51.8749 25.6662 51.7916 25.6179 51.6667 25.6179C51.5096 25.6179 51.3994 25.7247 51.3994 25.886C51.3994 25.9404 51.411 25.9968 51.4316 26.0493C51.5483 26.3677 51.9332 26.6067 52.5339 26.6074C53.2588 26.6074 53.7043 26.249 53.7043 25.6809C53.7043 25.2395 53.4379 24.9924 52.821 24.8694L52.5149 24.8064C52.1706 24.7378 52.0322 24.6275 52.0322 24.4482C52.0322 24.2349 52.2317 24.0938 52.5317 24.0938C52.7815 24.0938 52.9689 24.1842 53.0657 24.4036C53.1339 24.5284 53.2181 24.583 53.355 24.583C53.5102 24.583 53.615 24.4842 53.615 24.3391C53.615 24.2866 53.6065 24.2445 53.5923 24.2043C53.4633 23.8256 53.0628 23.6023 52.531 23.6023ZM50.8955 23.6074C50.7526 23.6074 50.6699 23.68 50.626 23.8352L49.7354 26.9048C49.7275 26.9352 49.7214 26.9716 49.7214 27.0117C49.7214 27.1445 49.8157 27.2476 49.9829 27.2476C50.1262 27.2476 50.209 27.181 50.251 27.0359L51.1438 23.9568C51.1535 23.9223 51.1577 23.8921 51.1577 23.8557C51.1577 23.7087 51.053 23.6074 50.8955 23.6074ZM48.551 24.353C48.104 24.353 47.758 24.5125 47.6567 24.7705C47.6369 24.8148 47.6267 24.8566 47.6267 24.9031C47.6267 25.0362 47.7288 25.1287 47.8721 25.1287C47.9669 25.1287 48.0412 25.0926 48.1057 25.0203C48.2362 24.8511 48.3454 24.7925 48.5247 24.7925C48.7463 24.7925 48.8872 24.9097 48.8872 25.1111V25.2539L48.3438 25.2861C47.8041 25.3184 47.5022 25.5461 47.5022 25.9387C47.5022 26.3276 47.8145 26.5931 48.2251 26.5935C48.4947 26.5935 48.765 26.4583 48.8857 26.2288H48.8975V26.3394C48.9098 26.5126 49.0204 26.6016 49.1794 26.6016C49.3471 26.6016 49.4658 26.5003 49.4658 26.3049V25.0745C49.4658 24.6395 49.1053 24.353 48.551 24.353ZM54.3079 24.3552C54.1365 24.3552 54.0134 24.4622 54.0134 24.6636V25.7915C54.0134 26.2951 54.3237 26.5994 54.7905 26.5994C55.1168 26.5994 55.3308 26.442 55.4373 26.1702H55.449V26.3027C55.449 26.4981 55.564 26.6008 55.7332 26.6008C55.9023 26.6008 56.0173 26.4981 56.0173 26.3027V24.6636C56.0173 24.4622 55.8969 24.3552 55.7236 24.3552C55.5523 24.3552 55.4292 24.4622 55.4292 24.6636V25.6362C55.4292 25.922 55.2665 26.1094 55.0044 26.1094C54.7449 26.1094 54.6016 25.9565 54.6016 25.6685V24.6636C54.6016 24.4622 54.4807 24.3552 54.3079 24.3552ZM48.8872 25.6099V25.7673C48.8872 26.001 48.6765 26.1676 48.4185 26.1672C48.2208 26.1672 48.0881 26.067 48.0881 25.9058C48.0881 25.7528 48.2126 25.6538 48.4324 25.6377L48.8872 25.6099Z" fill="#F3EAFE"/>
<path d="M11.0307 42.878C11.0727 42.878 11.1963 42.878 11.4017 42.878C11.607 42.878 11.8497 42.878 12.1297 42.878C12.4143 42.878 12.7013 42.8803 12.9907 42.885C13.2847 42.885 13.539 42.8873 13.7537 42.892C14.9857 42.9153 15.9867 43.1277 16.7567 43.529C17.5313 43.9257 18.0983 44.4927 18.4577 45.23C18.8217 45.9627 19.0037 46.847 19.0037 47.883C19.0037 48.9657 18.81 49.8873 18.4227 50.648C18.04 51.4087 17.452 51.992 16.6587 52.398C15.87 52.7993 14.8667 53 13.6487 53H11.0307V42.878ZM12.7597 44.285V51.593H13.6767C14.372 51.593 14.9857 51.474 15.5177 51.236C16.0497 50.9933 16.465 50.6013 16.7637 50.06C17.067 49.5187 17.2187 48.7953 17.2187 47.89C17.2187 47.0127 17.0787 46.3103 16.7987 45.783C16.5187 45.2557 16.1173 44.8753 15.5947 44.642C15.072 44.404 14.4467 44.285 13.7187 44.285H12.7597ZM22.4408 45.762V53H20.8028V45.762H22.4408ZM22.4618 42.885V44.495H20.7748V42.885H22.4618ZM28.6142 46.966H26.9972L27.0042 51.117C27.0042 51.3317 27.0276 51.4903 27.0742 51.593C27.1256 51.691 27.2049 51.7563 27.3122 51.789C27.4242 51.817 27.5736 51.831 27.7602 51.831H28.6492V52.909C28.5559 52.9463 28.4136 52.979 28.2222 53.007C28.0356 53.0397 27.7836 53.056 27.4662 53.056C26.8922 53.056 26.4466 52.9813 26.1292 52.832C25.8166 52.678 25.5996 52.461 25.4782 52.181C25.3569 51.901 25.2962 51.5673 25.2962 51.18V46.966H24.1202V45.762H25.3452L25.7722 43.613H26.9972V45.755H28.6142V46.966ZM43.0749 45.762L40.7789 53H39.3089L37.8249 48.177L36.3759 53H34.9409L32.6449 45.762H34.1779L35.6899 50.739H35.7669L37.2299 45.762H38.4759L39.9809 50.732H40.0579L41.5139 45.762H43.0749ZM45.4134 49.773C45.4087 50.1837 45.474 50.5477 45.6094 50.865C45.7447 51.1823 45.9454 51.432 46.2114 51.614C46.4774 51.7913 46.8064 51.88 47.1984 51.88C47.5997 51.88 47.9474 51.7913 48.2414 51.614C48.54 51.432 48.7384 51.1567 48.8364 50.788H50.3974C50.3134 51.292 50.1127 51.719 49.7954 52.069C49.478 52.419 49.093 52.685 48.6404 52.867C48.1924 53.049 47.7257 53.14 47.2404 53.14C46.5404 53.14 45.9244 52.993 45.3924 52.699C44.865 52.4003 44.452 51.9757 44.1534 51.425C43.8594 50.8743 43.7124 50.2187 43.7124 49.458C43.7124 48.716 43.8477 48.058 44.1184 47.484C44.389 46.9053 44.7787 46.4503 45.2874 46.119C45.8007 45.7877 46.4167 45.622 47.1354 45.622C47.8494 45.622 48.449 45.7737 48.9344 46.077C49.4244 46.3803 49.793 46.805 50.0404 47.351C50.2924 47.8923 50.4184 48.527 50.4184 49.255V49.773H45.4134ZM45.4134 48.716H48.8084C48.8084 48.366 48.7477 48.051 48.6264 47.771C48.505 47.4863 48.3184 47.2623 48.0664 47.099C47.819 46.931 47.5064 46.847 47.1284 46.847C46.755 46.847 46.44 46.938 46.1834 47.12C45.9267 47.302 45.733 47.5377 45.6024 47.827C45.4717 48.1117 45.4087 48.408 45.4134 48.716ZM53.343 49.773C53.3384 50.1837 53.4037 50.5477 53.539 50.865C53.6744 51.1823 53.875 51.432 54.141 51.614C54.407 51.7913 54.736 51.88 55.128 51.88C55.5294 51.88 55.877 51.7913 56.171 51.614C56.4697 51.432 56.668 51.1567 56.766 50.788H58.327C58.243 51.292 58.0424 51.719 57.725 52.069C57.4077 52.419 57.0227 52.685 56.57 52.867C56.122 53.049 55.6554 53.14 55.17 53.14C54.47 53.14 53.854 52.993 53.322 52.699C52.7947 52.4003 52.3817 51.9757 52.083 51.425C51.789 50.8743 51.642 50.2187 51.642 49.458C51.642 48.716 51.7774 48.058 52.048 47.484C52.3187 46.9053 52.7084 46.4503 53.217 46.119C53.7304 45.7877 54.3464 45.622 55.065 45.622C55.779 45.622 56.3787 45.7737 56.864 46.077C57.354 46.3803 57.7227 46.805 57.97 47.351C58.222 47.8923 58.348 48.527 58.348 49.255V49.773H53.343ZM53.343 48.716H56.738C56.738 48.366 56.6774 48.051 56.556 47.771C56.4347 47.4863 56.248 47.2623 55.996 47.099C55.7487 46.931 55.436 46.847 55.058 46.847C54.6847 46.847 54.3697 46.938 54.113 47.12C53.8564 47.302 53.6627 47.5377 53.532 47.827C53.4014 48.1117 53.3384 48.408 53.343 48.716ZM66.6347 53H64.9057L62.8057 49.647L61.6297 50.879V53H59.9357V42.598H61.6297V49.045L64.6327 45.762H66.5017L63.8837 48.59L66.6347 53ZM68.9563 49.773C68.9517 50.1837 69.017 50.5477 69.1523 50.865C69.2877 51.1823 69.4883 51.432 69.7543 51.614C70.0203 51.7913 70.3493 51.88 70.7413 51.88C71.1427 51.88 71.4903 51.7913 71.7843 51.614C72.083 51.432 72.2813 51.1567 72.3793 50.788H73.9403C73.8563 51.292 73.6557 51.719 73.3383 52.069C73.021 52.419 72.636 52.685 72.1833 52.867C71.7353 53.049 71.2687 53.14 70.7833 53.14C70.0833 53.14 69.4673 52.993 68.9353 52.699C68.408 52.4003 67.995 51.9757 67.6963 51.425C67.4023 50.8743 67.2553 50.2187 67.2553 49.458C67.2553 48.716 67.3907 48.058 67.6613 47.484C67.932 46.9053 68.3217 46.4503 68.8303 46.119C69.3437 45.7877 69.9597 45.622 70.6783 45.622C71.3923 45.622 71.992 45.7737 72.4773 46.077C72.9673 46.3803 73.336 46.805 73.5833 47.351C73.8353 47.8923 73.9613 48.527 73.9613 49.255V49.773H68.9563ZM68.9563 48.716H72.3513C72.3513 48.366 72.2907 48.051 72.1693 47.771C72.048 47.4863 71.8613 47.2623 71.6093 47.099C71.362 46.931 71.0493 46.847 70.6713 46.847C70.298 46.847 69.983 46.938 69.7263 47.12C69.4697 47.302 69.276 47.5377 69.1453 47.827C69.0147 48.1117 68.9517 48.408 68.9563 48.716ZM75.549 53V45.762H77.215V46.798C77.327 46.6113 77.4787 46.4317 77.67 46.259C77.866 46.0863 78.1063 45.9463 78.391 45.839C78.6757 45.7317 79.0093 45.678 79.392 45.678C79.84 45.678 80.2553 45.7667 80.638 45.944C81.0253 46.1213 81.3357 46.399 81.569 46.777C81.807 47.155 81.926 47.6427 81.926 48.24V53H80.218V48.443C80.218 47.967 80.0873 47.6147 79.826 47.386C79.5647 47.1527 79.2357 47.036 78.839 47.036C78.5683 47.036 78.3117 47.0827 78.069 47.176C77.8263 47.2647 77.628 47.4023 77.474 47.589C77.3247 47.771 77.25 47.9997 77.25 48.275V53H75.549ZM86.4051 53.14C85.4485 53.14 84.6971 52.811 84.1511 52.153C83.6051 51.495 83.3321 50.5593 83.3321 49.346C83.3321 48.59 83.4418 47.9343 83.6611 47.379C83.8851 46.819 84.2118 46.3873 84.6411 46.084C85.0751 45.776 85.6118 45.622 86.2511 45.622C86.5498 45.622 86.8205 45.6593 87.0631 45.734C87.3105 45.804 87.5298 45.8973 87.7211 46.014C87.9125 46.1307 88.0735 46.259 88.2041 46.399C88.3395 46.539 88.4445 46.679 88.5191 46.819V42.598H90.2271V53H88.9671L88.7781 51.516C88.7221 51.6887 88.6381 51.8707 88.5261 52.062C88.4188 52.2487 88.2718 52.4237 88.0851 52.587C87.9031 52.7503 87.6745 52.8833 87.3991 52.986C87.1238 53.0887 86.7925 53.14 86.4051 53.14ZM86.7551 51.887C87.3665 51.887 87.8121 51.6887 88.0921 51.292C88.3768 50.8907 88.5191 50.228 88.5191 49.304C88.5145 48.7767 88.4491 48.3333 88.3231 47.974C88.2018 47.6147 88.0128 47.344 87.7561 47.162C87.5041 46.98 87.1775 46.889 86.7761 46.889C86.2628 46.889 85.8405 47.078 85.5091 47.456C85.1778 47.834 85.0121 48.45 85.0121 49.304C85.0121 50.1533 85.1638 50.7973 85.4671 51.236C85.7705 51.67 86.1998 51.887 86.7551 51.887Z" fill="#F2EBEF"/>
</svg>
