<svg width="18" height="18" viewBox="0 0 18 18" fill="none" xmlns="http://www.w3.org/2000/svg">
<g id="Group">
<path id="Path" d="M13.3359 12.0894L15.0033 13.7567" stroke="#EF2C38" stroke-width="1.2" stroke-linecap="round" stroke-linejoin="round"/>
<path id="Path_2" d="M15.0033 12.0894L13.3359 13.7567" stroke="#EF2C38" stroke-width="1.2" stroke-linecap="round" stroke-linejoin="round"/>
<path id="Path_3" d="M9.33347 9.04454V6.99902" stroke="#EF2C38" stroke-width="1.2" stroke-linecap="round" stroke-linejoin="round"/>
<path id="Path_4" d="M9.33379 11.4515C9.30525 11.4515 9.27791 11.4629 9.25785 11.4832C9.2378 11.5035 9.22672 11.531 9.22707 11.5595C9.22743 11.6186 9.27479 11.6665 9.33379 11.6676C9.39346 11.6676 9.44183 11.6192 9.44183 11.5595C9.44183 11.4999 9.39346 11.4515 9.33379 11.4515" stroke="#EF2C38" stroke-width="1.2" stroke-linecap="round" stroke-linejoin="round"/>
<path id="Path_5" d="M14.7004 10.0121L11.5478 4.59785C11.0878 3.81146 10.2452 3.32812 9.33418 3.32812C8.42316 3.32812 7.58054 3.81146 7.1206 4.59785L3.31901 11.1192C2.89306 11.852 2.89231 12.7568 3.31707 13.4903C3.74182 14.2237 4.52697 14.6734 5.37454 14.6688H11.359" stroke="#EF2C38" stroke-width="1.2" stroke-linecap="round" stroke-linejoin="round"/>
</g>
</svg>
