<svg width="25" height="24" viewBox="0 0 25 24" fill="none" xmlns="http://www.w3.org/2000/svg">
<path d="M5 4.5C4.17162 4.5 3.5 5.17162 3.5 6V9C3.5 9.43313 3.86725 9.78043 4.30713 9.7478C4.92325 9.70243 5.54463 9.88858 5.91626 10.3821C7.30413 12.2248 6.00516 14.2549 4.24341 14.25C3.83128 14.2489 3.5 14.5883 3.5 15V18C3.5 18.8284 4.17162 19.5 5 19.5H20C20.8284 19.5 21.5 18.8284 21.5 18V15C21.5 14.5669 21.1327 14.2196 20.6929 14.2522C20.0767 14.2976 19.4554 14.1114 19.0837 13.6179C17.6959 11.7752 18.9948 9.74512 20.7566 9.75C21.1687 9.75112 21.5 9.41175 21.5 9V6C21.5 5.17162 20.8284 4.5 20 4.5H5ZM5.375 6H19.625C19.832 6 20 6.168 20 6.375V8.32544C18.2904 8.67381 17 10.1891 17 12C17 13.8109 18.2904 15.3258 20 15.6746V17.625C20 17.832 19.832 18 19.625 18H5.375C5.168 18 5 17.832 5 17.625V15.6746C6.70963 15.3262 8 13.8109 8 12C8 10.1891 6.70963 8.67419 5 8.32544V6.375C5 6.168 5.168 6 5.375 6ZM12.5 8.8125C12.3711 8.81255 12.2419 8.88368 12.1858 9.02637L11.5691 10.6047L9.8772 10.7043C9.57157 10.722 9.44721 11.1063 9.68384 11.3005L10.9941 12.375L10.5657 14.0149C10.4884 14.3111 10.8145 14.5483 11.0725 14.3833L12.5 13.4692L13.9275 14.3833C14.1855 14.5487 14.5116 14.3111 14.4343 14.0149L14.0059 12.375L15.3162 11.2998C15.5532 11.1056 15.4277 10.7223 15.1221 10.7043L13.4309 10.6047L12.8135 9.02637C12.7576 8.88387 12.6289 8.81245 12.5 8.8125Z" fill="#F2EBEF"/>
</svg>
