<svg width="16" height="16" viewBox="0 0 16 16" fill="none" xmlns="http://www.w3.org/2000/svg">
<path fill-rule="evenodd" clip-rule="evenodd" d="M5.33301 2.66446L6.20004 1.58067C6.32675 1.4226 6.51817 1.33057 6.72092 1.33057H9.28132C9.48407 1.33057 9.67548 1.4226 9.8022 1.58067L10.6686 2.66446V2.66446V3.3314C10.6686 3.69955 10.3698 3.99834 10.0016 3.99834H5.99995C5.6318 3.99834 5.33301 3.69955 5.33301 3.3314V2.66446V2.66446Z" stroke="#F2EBEF" stroke-linecap="round" stroke-linejoin="round"/>
<path d="M5.33282 2.66443H3.99893C3.26195 2.66443 2.66504 3.26134 2.66504 3.99832V12.6686C2.66504 13.4056 3.26195 14.0025 3.99893 14.0025H12.0023C12.7392 14.0025 13.3361 13.4056 13.3361 12.6686V3.99832C13.3361 3.26134 12.7392 2.66443 12.0023 2.66443H10.6684" stroke="#F2EBEF" stroke-linecap="round" stroke-linejoin="round"/>
<path d="M9.33477 8.3335L7.66741 10.0009L6.66699 9.00044" stroke="#F2EBEF" stroke-width="0.8" stroke-linecap="round" stroke-linejoin="round"/>
</svg>
