<svg width="25" height="24" viewBox="0 0 25 24" fill="none" xmlns="http://www.w3.org/2000/svg">
<path d="M3.875 5.625C3.46062 5.625 3.125 5.96062 3.125 6.375V15C3.125 15.4144 3.46062 15.75 3.875 15.75H10.8176C11.0269 16.0577 11.3189 16.3204 11.6782 16.5044C12.8366 17.0973 13.9106 17.6266 14.7705 18.0432C15.363 18.3301 15.8533 18.5638 16.1995 18.7273C16.3281 18.788 16.5277 18.8489 16.7737 18.8489C17.3647 18.8489 18.6159 18.8563 18.9666 18.8035C20.6207 18.5545 21.875 17.1463 21.875 15.4614V13.0986C21.875 12.2781 21.5764 11.4885 21.0364 10.8757L18.5176 8.00171C17.9333 7.33571 17.0859 6.9375 16.25 6.9375V6.375C16.25 5.96062 15.9144 5.625 15.5 5.625H3.875ZM4.8125 7.125H14.5625C14.666 7.125 14.75 7.209 14.75 7.3125V7.6875V13.0408L12.9849 12.5918C11.9427 12.3615 10.9064 12.9482 10.5737 13.9453C10.539 14.0444 10.5136 14.1467 10.4946 14.25H4.8125C4.709 14.25 4.625 14.166 4.625 14.0625V7.3125C4.625 7.209 4.709 7.125 4.8125 7.125ZM7.8125 8.25C7.24775 8.25 6.79004 8.75362 6.79004 9.375C6.79004 9.99638 7.24775 10.5 7.8125 10.5C8.37725 10.5 8.83496 9.99638 8.83496 9.375C8.83496 8.75362 8.37725 8.25 7.8125 8.25ZM16.25 8.4375C16.6602 8.4375 17.0863 8.64435 17.3896 8.99048L19.9099 11.866C20.2099 12.2061 20.375 12.6438 20.375 13.0986V15.4614C20.375 16.3974 19.682 17.1775 18.7644 17.3174C18.0932 17.4194 17.098 17.486 16.8396 17.3701C16.4245 17.1841 15.969 16.9579 15.3484 16.6567C14.5095 16.2499 13.4749 15.7381 12.3616 15.1685C12.1099 15.0395 11.9595 14.8341 11.9595 14.6177C11.9595 14.5562 11.9692 14.4969 11.9924 14.4309C12.0723 14.1913 12.2976 14.0383 12.5278 14.0383C12.5646 14.0383 12.6006 14.0429 12.637 14.0508L15.3147 14.7327C15.5386 14.7897 15.7773 14.7408 15.9607 14.5986C16.1433 14.4565 16.25 14.2379 16.25 14.0061V8.4375ZM7.8125 11.0625C7.3445 11.0625 6.86969 11.168 6.37769 11.5408C6.14969 11.7136 5.75 12.144 5.75 12.6387C5.75 12.9049 6.0114 12.9375 6.09277 12.9375H9.53223C9.6136 12.9375 9.875 12.9053 9.875 12.6387C9.875 12.1437 9.47531 11.7136 9.24731 11.5408C8.75531 11.168 8.2805 11.0625 7.8125 11.0625Z" fill="#F2EBEF"/>
</svg>
