<svg width="500" height="500" viewBox="0 0 500 500" fill="none" xmlns="http://www.w3.org/2000/svg">
<g clip-path="url(#clip0_1516_18384)">
<path d="M422.553 179.328L425.782 186.001C426.676 187.849 426.65 190.122 425.501 192.211C425.344 192.496 425.17 192.771 424.98 193.035L421.751 186.361C421.941 186.098 422.115 185.823 422.272 185.538C423.422 183.449 423.447 181.176 422.553 179.328Z" fill="#8932F6"/>
<path d="M424.98 193.235C424.943 193.235 424.906 193.224 424.874 193.204C424.842 193.184 424.817 193.156 424.8 193.122L421.572 186.449C421.556 186.416 421.549 186.38 421.553 186.344C421.556 186.308 421.568 186.274 421.59 186.245C421.775 185.988 421.945 185.719 422.098 185.442C423.177 183.481 423.278 181.286 422.375 179.418L422.374 179.415C422.363 179.392 422.356 179.366 422.354 179.34C422.353 179.314 422.357 179.287 422.365 179.263C422.374 179.238 422.387 179.215 422.405 179.195C422.422 179.176 422.443 179.16 422.467 179.148C422.49 179.137 422.516 179.13 422.542 179.129C422.568 179.127 422.594 179.131 422.619 179.139C422.644 179.148 422.667 179.161 422.686 179.179C422.706 179.196 422.722 179.217 422.733 179.241L425.962 185.914C426.923 187.901 426.819 190.231 425.676 192.308C425.515 192.6 425.337 192.882 425.142 193.152C425.123 193.178 425.099 193.199 425.071 193.213C425.043 193.228 425.012 193.235 424.98 193.235ZM421.983 186.381L425.01 192.639C425.122 192.468 425.228 192.294 425.326 192.115C426.406 190.153 426.507 187.957 425.603 186.088L423.353 181.439C423.493 182.836 423.188 184.288 422.447 185.635C422.306 185.891 422.151 186.141 421.983 186.381Z" fill="#111111"/>
<path d="M419.129 176.166C422.867 177.703 424.275 181.899 422.272 185.538C422.115 185.823 421.941 186.098 421.751 186.361C419.913 184.928 417.824 183.709 415.503 182.754C413.183 181.8 410.77 181.169 408.324 180.84C408.443 180.542 408.58 180.252 408.734 179.971C410.737 176.332 415.391 174.628 419.129 176.166Z" fill="#E7D6FD"/>
<path d="M421.751 186.562C421.707 186.562 421.664 186.547 421.629 186.519C419.773 185.073 417.687 183.869 415.428 182.94C413.168 182.01 410.769 181.37 408.298 181.038C408.268 181.034 408.239 181.023 408.214 181.007C408.189 180.99 408.168 180.967 408.152 180.941C408.137 180.915 408.128 180.885 408.126 180.855C408.123 180.825 408.128 180.794 408.139 180.766C408.259 180.464 408.401 180.164 408.56 179.874C410.607 176.155 415.382 174.409 419.205 175.981C421.033 176.732 422.385 178.128 423.012 179.91C423.662 181.758 423.462 183.791 422.448 185.635C422.287 185.926 422.108 186.208 421.913 186.479C421.895 186.504 421.871 186.525 421.843 186.54C421.814 186.554 421.783 186.561 421.752 186.561L421.751 186.562ZM408.609 180.678C411.023 181.023 413.367 181.659 415.579 182.57C417.805 183.485 419.866 184.664 421.708 186.076C421.848 185.871 421.978 185.659 422.098 185.442C423.056 183.7 423.247 181.782 422.636 180.043C422.047 178.37 420.775 177.058 419.054 176.35C415.413 174.853 410.861 176.52 408.91 180.067C408.8 180.267 408.699 180.471 408.609 180.678H408.609Z" fill="#111111"/>
<path d="M371.453 243.96L349.627 234.984C348.729 234.615 348.101 233.994 347.746 233.26L350.975 239.933C351.33 240.667 351.958 241.288 352.855 241.657L374.682 250.633L371.453 243.96V243.96Z" fill="#8932F6"/>
<path d="M374.682 250.833C374.656 250.833 374.63 250.828 374.606 250.818L352.78 241.842C351.879 241.472 351.193 240.842 350.795 240.02L347.567 233.347C347.555 233.323 347.549 233.298 347.547 233.272C347.546 233.245 347.549 233.219 347.558 233.194C347.567 233.169 347.58 233.147 347.597 233.127C347.615 233.107 347.636 233.091 347.659 233.08C347.683 233.068 347.709 233.062 347.735 233.06C347.761 233.059 347.787 233.062 347.812 233.071C347.837 233.08 347.86 233.093 347.879 233.11C347.899 233.128 347.915 233.149 347.926 233.173L347.928 233.176C348.282 233.906 348.896 234.467 349.703 234.799L371.529 243.775C371.575 243.794 371.612 243.828 371.633 243.873L374.862 250.546C374.876 250.576 374.883 250.61 374.881 250.644C374.879 250.678 374.869 250.71 374.851 250.739C374.833 250.768 374.808 250.791 374.779 250.808C374.749 250.824 374.716 250.833 374.682 250.833V250.833ZM348.643 234.654L351.155 239.846C351.509 240.577 352.123 241.14 352.932 241.472L374.275 250.249L371.307 244.116L349.551 235.169C349.228 235.037 348.922 234.864 348.643 234.654Z" fill="#111111"/>
<path d="M388.366 250.915C388.361 252.512 387.947 254.166 387.077 255.745C384.246 260.891 377.663 263.301 372.377 261.127C367.09 258.953 365.1 253.018 367.931 247.872C368.801 246.292 370.023 244.97 371.454 243.96L388.366 250.915Z" fill="#F3EAFE"/>
<path d="M376.488 262.124C375.063 262.124 373.64 261.863 372.301 261.312C369.738 260.258 367.843 258.302 366.964 255.804C366.052 253.212 366.334 250.361 367.756 247.775C368.609 246.225 369.848 244.85 371.339 243.796C371.395 243.757 371.466 243.749 371.53 243.775L388.442 250.73C388.478 250.745 388.51 250.771 388.532 250.804C388.554 250.837 388.565 250.876 388.565 250.915C388.561 252.586 388.107 254.289 387.252 255.842C385.094 259.763 380.778 262.124 376.488 262.124ZM371.48 244.187C370.078 245.197 368.913 246.502 368.106 247.969C366.739 250.453 366.467 253.188 367.34 255.671C368.181 258.06 369.996 259.932 372.452 260.942C377.641 263.076 384.123 260.701 386.903 255.649C387.702 254.197 388.137 252.609 388.165 251.049L371.48 244.187L371.48 244.187Z" fill="#111111"/>
<path d="M388.366 250.915L391.595 257.588C391.59 259.185 391.175 260.839 390.306 262.419C387.475 267.564 380.892 269.974 375.605 267.8C373.354 266.875 371.701 265.267 370.763 263.328L367.534 256.655C368.472 258.593 370.126 260.201 372.377 261.127C377.663 263.301 384.246 260.891 387.078 255.745C387.947 254.166 388.362 252.512 388.366 250.915Z" fill="#8932F6"/>
<path d="M379.717 268.797C378.291 268.797 376.868 268.536 375.529 267.985C373.295 267.066 371.584 265.486 370.582 263.415L367.354 256.742C367.343 256.718 367.336 256.693 367.334 256.666C367.333 256.64 367.336 256.614 367.345 256.589C367.354 256.564 367.367 256.542 367.384 256.522C367.402 256.502 367.423 256.486 367.447 256.475C367.47 256.463 367.496 256.457 367.522 256.455C367.548 256.454 367.574 256.457 367.599 256.466C367.624 256.475 367.647 256.488 367.666 256.505C367.686 256.523 367.702 256.544 367.713 256.568C368.672 258.549 370.31 260.062 372.452 260.942C377.64 263.076 384.122 260.701 386.902 255.649C387.725 254.155 388.162 252.518 388.166 250.914C388.166 250.869 388.181 250.825 388.21 250.79C388.238 250.755 388.277 250.73 388.321 250.72C388.365 250.71 388.411 250.715 388.452 250.735C388.493 250.754 388.526 250.787 388.545 250.828L391.774 257.501C391.787 257.528 391.794 257.558 391.794 257.589C391.789 259.259 391.335 260.962 390.481 262.515C388.323 266.436 384.006 268.797 379.717 268.797ZM368.876 258.972L370.942 263.24C371.9 265.222 373.539 266.735 375.681 267.615C380.869 269.749 387.351 267.374 390.131 262.322C390.945 260.842 391.382 259.222 391.394 257.633L388.529 251.711C388.406 253.122 387.971 254.535 387.252 255.842C384.377 261.066 377.67 263.52 372.3 261.312C370.956 260.759 369.801 259.967 368.877 258.972L368.876 258.972Z" fill="#111111"/>
<path d="M431.966 201.648L428.737 194.975C432.192 202.116 432.092 210.898 427.65 218.97L419.148 234.421C415.934 240.26 415.903 249.343 416.385 255.653C416.618 258.696 413.112 261.091 410.194 259.892L388.365 250.915L391.594 257.588L413.423 266.565C416.34 267.765 419.847 265.369 419.614 262.326C419.132 256.016 419.163 246.933 422.376 241.094L430.879 225.643C435.321 217.571 435.42 208.789 431.966 201.648Z" fill="url(#paint0_linear_1516_18384)"/>
<path d="M415.029 267.076C414.451 267.076 413.88 266.969 413.347 266.75L391.518 257.773C391.473 257.754 391.436 257.719 391.414 257.675L388.186 251.002C388.168 250.966 388.162 250.925 388.168 250.885C388.174 250.845 388.193 250.807 388.22 250.778C388.248 250.748 388.284 250.728 388.323 250.72C388.363 250.711 388.404 250.715 388.441 250.73L410.27 259.707C411.609 260.257 413.219 260.032 414.472 259.118C415.646 258.264 416.286 256.974 416.187 255.668C415.688 249.147 415.767 240.15 418.973 234.325L427.476 218.873C431.737 211.129 432.132 202.45 428.558 195.062C428.546 195.039 428.54 195.013 428.538 194.987C428.537 194.961 428.54 194.934 428.549 194.91C428.557 194.885 428.571 194.862 428.588 194.842C428.606 194.823 428.627 194.807 428.65 194.795C428.674 194.784 428.7 194.777 428.726 194.776C428.752 194.774 428.778 194.778 428.803 194.786C428.828 194.795 428.85 194.808 428.87 194.826C428.89 194.843 428.906 194.864 428.917 194.888L432.145 201.561C435.777 209.067 435.379 217.88 431.054 225.74L422.551 241.191C419.393 246.931 419.319 255.844 419.813 262.311C419.924 263.756 419.222 265.178 417.936 266.115C417.067 266.748 416.039 267.076 415.029 267.076L415.029 267.076ZM391.74 257.432L413.499 266.38C414.837 266.931 416.447 266.705 417.701 265.792C418.874 264.937 419.515 263.647 419.415 262.341C418.917 255.82 418.996 246.824 422.201 240.998L430.704 225.547C434.966 217.802 435.36 209.123 431.786 201.736L430.483 199.043C432.279 205.527 431.374 212.618 427.825 219.066L419.323 234.518C416.164 240.257 416.09 249.171 416.584 255.638C416.695 257.083 415.993 258.505 414.707 259.442C413.342 260.436 411.584 260.679 410.118 260.077L388.773 251.298L391.74 257.432H391.74Z" fill="#111111"/>
<path d="M415.503 182.754C417.824 183.709 419.912 184.928 421.751 186.361C431.357 193.849 434.144 207.168 427.65 218.97L419.147 234.421C415.934 240.26 415.903 249.343 416.385 255.653C416.618 258.696 413.111 261.091 410.194 259.892L388.365 250.915L371.453 243.96L349.627 234.984C346.706 233.783 346.644 229.92 349.522 228.156C355.492 224.5 363.621 218.747 366.834 212.908L375.337 197.456C381.831 185.655 395.543 179.121 408.324 180.84C410.77 181.169 413.182 181.8 415.503 182.754L415.503 182.754Z" fill="#E7D6FD"/>
<path d="M411.8 260.403C411.223 260.403 410.652 260.296 410.119 260.077L349.551 235.169C348.199 234.613 347.325 233.44 347.213 232.032C347.086 230.447 347.931 228.897 349.418 227.986C355.537 224.238 363.495 218.563 366.66 212.812L375.163 197.36C381.552 185.748 395.2 178.874 408.351 180.642C410.856 180.979 413.288 181.627 415.579 182.57C417.872 183.513 419.99 184.735 421.874 186.204C431.777 193.924 434.225 207.437 427.826 219.066L419.323 234.518C416.165 240.257 416.091 249.171 416.585 255.638C416.695 257.083 415.993 258.505 414.707 259.442C413.839 260.075 412.811 260.404 411.8 260.404L411.8 260.403ZM404.207 180.766C392.559 180.766 381.163 187.284 375.512 197.553L367.009 213.004C363.802 218.832 355.786 224.554 349.627 228.327C348.269 229.159 347.496 230.566 347.61 232C347.712 233.274 348.475 234.294 349.703 234.799L410.27 259.707C411.608 260.257 413.219 260.032 414.472 259.118C415.646 258.264 416.286 256.974 416.186 255.668C415.688 249.147 415.767 240.15 418.973 234.324L427.476 218.873C433.778 207.42 431.374 194.116 421.628 186.519C419.773 185.073 417.686 183.868 415.428 182.939C413.168 182.01 410.769 181.37 408.298 181.038C406.941 180.856 405.575 180.765 404.206 180.766H404.207Z" fill="#111111"/>
</g>
<g clip-path="url(#clip1_1516_18384)">
<path d="M283.321 91.2933C286.847 90.798 290.584 93.4288 291.668 97.1699L376.587 390.049C377.672 393.79 375.693 397.224 372.168 397.72L236.105 416.84C232.571 417.337 228.834 414.706 227.749 410.965L142.83 118.086C141.746 114.345 143.724 110.911 147.258 110.414L283.321 91.2933ZM236.95 114.065C239.605 113.692 241.109 111.082 240.291 108.263C239.474 105.444 236.635 103.447 233.98 103.82L199.706 108.637C197.051 109.01 195.547 111.62 196.365 114.437C197.182 117.255 200.022 119.254 202.677 118.881L236.951 114.065" fill="#F3EAFE"/>
<path d="M235.246 417.1C231.904 417.1 228.576 414.536 227.557 411.021L142.638 118.142C142.072 116.189 142.309 114.201 143.289 112.686C143.727 112.013 144.307 111.443 144.988 111.016C145.668 110.589 146.434 110.316 147.231 110.216L283.293 91.0952C286.907 90.5873 290.75 93.2875 291.86 97.1143L376.779 389.994C377.345 391.948 377.107 393.937 376.127 395.452C375.69 396.124 375.112 396.693 374.433 397.119C373.754 397.545 372.99 397.818 372.195 397.919L236.132 417.039C235.839 417.08 235.542 417.1 235.246 417.1ZM283.321 91.2933L283.348 91.4915L147.286 110.612C146.546 110.705 145.835 110.958 145.203 111.354C144.571 111.75 144.033 112.279 143.626 112.904C142.709 114.321 142.489 116.189 143.023 118.03L227.941 410.909C228.997 414.552 232.647 417.124 236.077 416.642L372.139 397.521C372.878 397.428 373.587 397.176 374.218 396.78C374.848 396.385 375.385 395.857 375.791 395.234C376.708 393.816 376.928 391.947 376.394 390.105L291.476 97.2257C290.419 93.5824 286.774 91.01 283.348 91.4915L283.321 91.2933ZM202.03 119.126C199.485 119.126 196.95 117.172 196.173 114.493C195.742 113.007 195.926 111.489 196.678 110.328C197.011 109.814 197.451 109.378 197.97 109.052C198.488 108.726 199.071 108.516 199.679 108.439L233.952 103.622C236.709 103.235 239.639 105.292 240.485 108.208C240.916 109.694 240.731 111.212 239.98 112.373C239.647 112.888 239.206 113.323 238.688 113.65C238.169 113.976 237.586 114.185 236.978 114.263L202.705 119.079C202.481 119.111 202.256 119.126 202.03 119.126ZM234.632 103.975C234.423 103.975 234.214 103.99 234.007 104.019L199.734 108.835C199.183 108.905 198.654 109.094 198.184 109.39C197.714 109.685 197.314 110.08 197.013 110.545C196.324 111.609 196.157 113.007 196.556 114.381C197.348 117.114 200.081 119.043 202.648 118.683L236.922 113.867C237.473 113.797 238.002 113.607 238.472 113.312C238.942 113.016 239.342 112.622 239.643 112.156C240.332 111.092 240.499 109.694 240.1 108.32C239.371 105.809 237.002 103.975 234.632 103.975Z" fill="#111111"/>
<path d="M233.98 103.821C236.635 103.447 239.475 105.447 240.292 108.264C241.109 111.082 239.606 113.692 236.951 114.065L202.677 118.881C200.022 119.254 197.182 117.255 196.365 114.437C195.548 111.62 197.052 109.01 199.706 108.637L233.98 103.821Z" fill="#E7D6FD"/>
<path d="M202.031 119.126C199.486 119.126 196.95 117.172 196.174 114.493C195.743 113.007 195.927 111.49 196.679 110.328C197.011 109.814 197.452 109.378 197.971 109.052C198.489 108.726 199.072 108.516 199.68 108.439L233.953 103.622C236.71 103.235 239.64 105.292 240.486 108.209C240.916 109.694 240.732 111.212 239.98 112.373C239.648 112.888 239.207 113.323 238.688 113.65C238.17 113.976 237.587 114.185 236.979 114.263L202.706 119.079C202.482 119.111 202.257 119.126 202.031 119.126ZM234.633 103.975C234.424 103.975 234.215 103.99 234.008 104.019L199.735 108.835C199.184 108.905 198.655 109.094 198.186 109.39C197.716 109.685 197.316 110.08 197.014 110.546C196.325 111.609 196.159 113.008 196.557 114.382C197.285 116.893 199.653 118.726 202.024 118.726C202.233 118.727 202.442 118.712 202.649 118.683L236.923 113.867C237.474 113.797 238.003 113.607 238.473 113.312C238.943 113.016 239.343 112.622 239.644 112.156C240.333 111.092 240.5 109.694 240.101 108.32C239.372 105.809 237.005 103.975 234.633 103.975Z" fill="#111111"/>
<path d="M373.672 402.907L237.6 422.029C231.384 422.903 224.785 418.256 222.869 411.651L137.951 118.772C136.64 114.252 137.862 109.986 140.758 107.462L131.733 115.327C128.836 117.851 127.614 122.118 128.925 126.637L213.844 419.516C215.759 426.122 222.358 430.768 228.575 429.894L364.646 410.772C366.494 410.531 368.231 409.754 369.642 408.537L378.668 400.672C377.256 401.889 375.52 402.666 373.672 402.907Z" fill="url(#paint1_linear_1516_18384)"/>
<path d="M227.062 430.199C221.24 430.199 215.433 425.717 213.652 419.572L128.733 126.693C127.445 122.253 128.545 117.84 131.601 115.176L140.627 107.31C140.647 107.292 140.67 107.279 140.695 107.27C140.72 107.261 140.747 107.257 140.773 107.258C140.8 107.26 140.826 107.267 140.85 107.278C140.874 107.29 140.895 107.306 140.913 107.327C140.93 107.347 140.944 107.37 140.952 107.395C140.96 107.421 140.964 107.447 140.961 107.474C140.959 107.501 140.952 107.527 140.94 107.55C140.927 107.574 140.91 107.595 140.89 107.612C137.952 110.173 136.899 114.427 138.143 118.715L223.061 411.595C224.795 417.572 230.433 421.934 236.082 421.934C236.581 421.935 237.079 421.9 237.572 421.831L373.644 402.709C375.452 402.47 377.152 401.71 378.536 400.521C378.576 400.486 378.628 400.469 378.681 400.472C378.734 400.476 378.784 400.5 378.818 400.54C378.853 400.58 378.871 400.633 378.867 400.686C378.864 400.739 378.839 400.788 378.799 400.823L369.774 408.688C368.331 409.928 366.559 410.721 364.674 410.97L228.602 430.093C228.092 430.164 227.577 430.2 227.062 430.199ZM138.835 109.403L131.864 115.478C128.926 118.039 127.874 122.293 129.117 126.581L214.036 419.46C215.921 425.964 222.431 430.555 228.547 429.696L364.618 410.574C366.427 410.335 368.127 409.575 369.511 408.387L376.496 402.299C375.607 402.7 374.666 402.971 373.699 403.105L237.628 422.227C231.323 423.113 224.616 418.394 222.677 411.706L137.758 118.828C136.767 115.408 137.191 112.004 138.835 109.403Z" fill="#111111"/>
<path d="M281.816 86.1059C288.042 85.231 294.641 89.8772 296.557 96.4831L381.475 389.362C383.391 395.968 379.896 402.032 373.672 402.906L237.601 422.028C231.385 422.902 224.785 418.255 222.87 411.65L137.95 118.772C136.035 112.166 139.529 106.101 145.753 105.228L281.816 86.1059ZM376.587 390.049L291.668 97.1701C290.583 93.4289 286.846 90.7979 283.321 91.2933L147.258 110.414C143.724 110.911 141.745 114.345 142.83 118.086L227.749 410.965C228.834 414.706 232.571 417.337 236.105 416.84L372.167 397.72C375.693 397.224 377.672 393.79 376.587 390.049Z" fill="#E7D6FD"/>
<path d="M236.088 422.334C230.265 422.334 224.459 417.851 222.677 411.706L137.758 118.828C136.771 115.421 137.184 111.954 138.892 109.316C139.651 108.147 140.656 107.158 141.836 106.418C143.017 105.677 144.345 105.203 145.727 105.029L281.789 85.9078C288.099 85.0207 294.81 89.74 296.749 96.4275L381.668 389.306C382.655 392.712 382.242 396.179 380.534 398.818C379.775 399.986 378.771 400.975 377.59 401.716C376.41 402.456 375.082 402.93 373.7 403.105L237.628 422.227C237.118 422.298 236.603 422.334 236.088 422.334ZM281.845 86.3039L145.782 105.425C144.457 105.592 143.184 106.046 142.052 106.756C140.919 107.465 139.956 108.413 139.228 109.533C137.583 112.074 137.187 115.421 138.143 118.716L223.062 411.595C224.794 417.572 230.433 421.934 236.082 421.934C236.581 421.934 237.079 421.9 237.572 421.831L373.644 402.709C374.97 402.542 376.243 402.088 377.375 401.378C378.507 400.668 379.47 399.72 380.198 398.6C381.843 396.059 382.239 392.712 381.284 389.417L296.365 96.5387C294.479 90.0351 287.966 85.4439 281.845 86.3039ZM235.246 417.1C231.905 417.1 228.576 414.536 227.557 411.021L142.638 118.142C142.072 116.189 142.31 114.201 143.29 112.686C143.728 112.013 144.307 111.443 144.988 111.016C145.669 110.589 146.434 110.316 147.232 110.216L283.293 91.0952C286.908 90.5875 290.751 93.2875 291.86 97.1143L376.779 389.994C377.346 391.948 377.108 393.937 376.127 395.452C375.691 396.124 375.113 396.693 374.434 397.119C373.755 397.545 372.991 397.818 372.196 397.919L236.133 417.038C235.839 417.08 235.543 417.1 235.246 417.1ZM284.183 91.4335C283.904 91.4334 283.625 91.4528 283.349 91.4915L147.286 110.612C146.546 110.705 145.835 110.958 145.203 111.354C144.57 111.75 144.032 112.278 143.625 112.904C142.708 114.321 142.488 116.189 143.022 118.03L227.941 410.909C228.998 414.552 232.648 417.124 236.078 416.642L372.14 397.522C372.878 397.429 373.588 397.176 374.218 396.781C374.849 396.385 375.386 395.858 375.791 395.234C376.709 393.816 376.929 391.947 376.395 390.105L291.476 97.2257C290.505 93.8777 287.347 91.4335 284.183 91.4335Z" fill="#111111"/>
</g>
<g clip-path="url(#clip2_1516_18384)">
<path d="M318.182 350.8L259.271 359.087C251.843 360.132 247.672 367.377 249.958 375.268C252.246 383.168 260.124 388.719 267.552 387.674L326.462 379.387C333.891 378.342 338.061 371.097 335.773 363.197C333.487 355.306 325.611 349.755 318.182 350.8" fill="#E7D6FD"/>
<path d="M265.744 387.999C258.807 387.999 251.889 382.653 249.766 375.324C248.59 371.266 249.082 367.136 251.115 363.993C252.932 361.184 255.819 359.371 259.244 358.889L318.154 350.602C325.666 349.546 333.656 355.171 335.965 363.141C337.142 367.205 336.651 371.338 334.618 374.482C332.801 377.291 329.914 379.103 326.49 379.585L267.58 387.872C266.97 387.958 266.357 388 265.744 388L265.744 387.999ZM318.209 350.998L259.299 359.285C255.991 359.751 253.203 361.5 251.45 364.211C249.48 367.256 249.006 371.266 250.15 375.213C252.407 383.005 260.201 388.505 267.524 387.476L326.434 379.189C329.742 378.724 332.529 376.975 334.282 374.265C336.252 371.218 336.726 367.204 335.581 363.252C333.325 355.465 325.532 349.968 318.209 350.998Z" fill="#111111"/>
<path d="M303.9 308.022L248.062 315.876L250.883 325.614L306.72 317.759L303.9 308.022Z" fill="#8932F6"/>
<path d="M250.883 325.814C250.839 325.814 250.797 325.8 250.763 325.773C250.728 325.747 250.703 325.711 250.691 325.669L247.87 315.932C247.862 315.905 247.86 315.876 247.864 315.847C247.869 315.819 247.879 315.792 247.894 315.768C247.91 315.743 247.93 315.723 247.955 315.708C247.979 315.692 248.006 315.682 248.034 315.678L303.872 307.824C303.919 307.817 303.968 307.828 304.008 307.854C304.048 307.88 304.078 307.92 304.091 307.966L306.912 317.704C306.92 317.731 306.922 317.76 306.918 317.788C306.914 317.817 306.904 317.844 306.888 317.868C306.873 317.892 306.852 317.913 306.828 317.928C306.804 317.943 306.776 317.953 306.748 317.957L250.911 325.812C250.901 325.813 250.892 325.814 250.883 325.814ZM248.318 316.042L251.026 325.392L306.464 317.594L303.756 308.244L248.318 316.042Z" fill="#111111"/>
<path d="M280.27 290.301L215.16 299.46L217.981 309.197L283.09 300.039L280.27 290.301Z" fill="#8932F6"/>
<path d="M217.98 309.397C217.893 309.397 217.814 309.339 217.789 309.253L214.968 299.516C214.96 299.488 214.958 299.459 214.962 299.431C214.966 299.402 214.976 299.375 214.992 299.351C215.008 299.327 215.028 299.307 215.052 299.291C215.076 299.276 215.104 299.266 215.132 299.262L280.242 290.103C280.289 290.096 280.338 290.107 280.378 290.133C280.419 290.159 280.448 290.199 280.462 290.246L283.282 299.983C283.29 300.01 283.292 300.039 283.288 300.068C283.284 300.096 283.274 300.123 283.258 300.147C283.243 300.171 283.222 300.192 283.198 300.207C283.174 300.223 283.146 300.233 283.118 300.237L218.008 309.395C217.999 309.397 217.99 309.397 217.98 309.397ZM215.416 299.626L218.124 308.975L282.834 299.873L280.126 290.524L215.416 299.626Z" fill="#111111"/>
<path d="M325.096 283.996L289.437 289.012L292.257 298.749L327.916 293.733L325.096 283.996Z" fill="#8932F6"/>
<path d="M292.257 298.949C292.213 298.949 292.171 298.935 292.137 298.909C292.102 298.883 292.077 298.846 292.065 298.805L289.244 289.067C289.236 289.04 289.234 289.011 289.238 288.983C289.243 288.954 289.253 288.927 289.268 288.903C289.284 288.879 289.304 288.858 289.329 288.843C289.353 288.828 289.38 288.818 289.408 288.814L325.068 283.797C325.115 283.791 325.164 283.801 325.204 283.827C325.245 283.854 325.274 283.893 325.287 283.94L328.108 293.677C328.116 293.705 328.118 293.734 328.114 293.762C328.11 293.79 328.1 293.817 328.084 293.842C328.068 293.866 328.048 293.886 328.024 293.901C328 293.917 327.972 293.927 327.944 293.931L292.285 298.947C292.275 298.948 292.266 298.949 292.257 298.949L292.257 298.949ZM289.692 289.178L292.4 298.527L327.66 293.567L324.952 284.218L289.692 289.178V289.178Z" fill="#111111"/>
<path d="M325.017 250.848L318.172 227.216L305.052 181.923C304.084 178.584 301.522 175.731 298.314 174.435L233.137 148.125C231.523 147.474 229.871 147.267 228.342 147.482C226.813 147.697 225.407 148.334 224.287 149.37L178.851 191.24C176.623 193.301 175.841 196.624 176.808 199.963L196.773 268.888C198.272 274.064 203.437 277.696 208.301 277.012L318.913 261.453C323.787 260.767 326.516 256.025 325.017 250.848Z" fill="#8932F6"/>
<path d="M207.116 277.294C202.541 277.294 197.979 273.772 196.581 268.943L176.616 200.018C175.632 196.621 176.436 193.201 178.715 191.093L224.151 149.223C225.281 148.179 226.72 147.508 228.314 147.284C229.902 147.061 231.596 147.287 233.212 147.94L298.388 174.25C301.636 175.562 304.262 178.481 305.244 181.868L325.208 250.793C325.985 253.474 325.661 256.201 324.319 258.276C323.118 260.133 321.208 261.332 318.941 261.651L208.329 277.21C207.927 277.266 207.522 277.295 207.116 277.294V277.294ZM229.521 147.6C229.133 147.6 228.748 147.627 228.37 147.68C226.857 147.893 225.492 148.528 224.422 149.517L178.986 191.387C176.819 193.391 176.058 196.656 177 199.907L196.965 268.832C198.434 273.904 203.506 277.484 208.273 276.814L318.885 261.255C321.036 260.952 322.846 259.817 323.984 258.058C325.262 256.081 325.569 253.474 324.825 250.904L304.86 181.979C303.912 178.707 301.375 175.888 298.239 174.621L233.062 148.31C231.898 147.84 230.692 147.6 229.521 147.6V147.6Z" fill="#111111"/>
<path d="M269.972 147.516L241.536 151.516L218.431 154.766L189.996 158.766L205.255 211.444L247.166 228.359C248.776 229.011 250.426 229.218 251.955 229.003C253.484 228.788 254.892 228.151 256.017 227.114L285.23 200.191L269.972 147.516Z" fill="#F3EAFE"/>
<path d="M250.777 229.285C249.555 229.285 248.301 229.035 247.091 228.544L205.18 211.63C205.152 211.618 205.127 211.601 205.107 211.578C205.086 211.556 205.071 211.529 205.063 211.5L189.804 158.821C189.796 158.794 189.794 158.765 189.798 158.736C189.802 158.708 189.812 158.681 189.828 158.657C189.843 158.633 189.864 158.612 189.888 158.597C189.912 158.581 189.94 158.571 189.968 158.567L269.944 147.318C269.992 147.311 270.04 147.322 270.081 147.348C270.121 147.374 270.151 147.414 270.164 147.46L285.422 200.135C285.443 200.208 285.421 200.287 285.365 200.338L256.152 227.261C255.018 228.306 253.576 228.977 251.983 229.201C251.583 229.257 251.18 229.285 250.777 229.284V229.285ZM205.42 211.295L247.241 228.174C248.788 228.8 250.409 229.019 251.927 228.805C253.44 228.592 254.807 227.957 255.882 226.967L285.004 200.128L269.828 147.738L190.252 158.932L205.42 211.295H205.42Z" fill="#111111"/>
<path d="M305.051 181.923L256.017 227.114C254.892 228.151 253.484 228.788 251.955 229.003C250.426 229.218 248.776 229.011 247.166 228.359L176.808 199.963L196.773 268.888C198.272 274.064 203.436 277.696 208.301 277.012L318.913 261.453C323.786 260.767 326.516 256.025 325.016 250.848L305.051 181.923Z" fill="#E7D6FD"/>
<path d="M207.117 277.294C202.542 277.294 197.98 273.772 196.581 268.943L176.616 200.018C176.606 199.982 176.606 199.944 176.616 199.908C176.626 199.872 176.647 199.84 176.674 199.815C176.702 199.789 176.736 199.773 176.773 199.766C176.81 199.759 176.848 199.763 176.883 199.777L247.242 228.173C248.789 228.8 250.41 229.018 251.928 228.805C253.441 228.592 254.808 227.956 255.882 226.967L304.917 181.776C304.942 181.753 304.972 181.737 305.005 181.729C305.038 181.721 305.073 181.721 305.106 181.73C305.138 181.74 305.168 181.757 305.192 181.781C305.217 181.805 305.234 181.835 305.244 181.867L325.209 250.792C325.985 253.473 325.661 256.201 324.32 258.275C323.118 260.133 321.208 261.331 318.941 261.65L208.329 277.21C207.927 277.266 207.522 277.294 207.117 277.294ZM177.114 200.302L196.965 268.832C198.434 273.904 203.507 277.485 208.273 276.814L318.885 261.255C321.036 260.952 322.847 259.817 323.984 258.058C325.263 256.081 325.569 253.474 324.825 250.904L304.95 182.289L256.153 227.261C255.019 228.306 253.577 228.977 251.984 229.201C250.396 229.425 248.704 229.198 247.092 228.545L177.114 200.302Z" fill="#111111"/>
<path d="M249.084 160.714L216.595 165.284L218.243 170.973L250.732 166.403L249.084 160.714Z" fill="#E7D6FD"/>
<path d="M218.243 171.173C218.2 171.173 218.158 171.159 218.123 171.133C218.089 171.107 218.064 171.071 218.052 171.029L216.404 165.34C216.395 165.312 216.393 165.284 216.398 165.255C216.402 165.227 216.412 165.2 216.427 165.175C216.443 165.151 216.464 165.131 216.488 165.116C216.512 165.1 216.539 165.09 216.568 165.086L249.057 160.516C249.105 160.509 249.153 160.52 249.194 160.546C249.234 160.572 249.264 160.612 249.277 160.658L250.925 166.348C250.933 166.375 250.935 166.404 250.931 166.432C250.927 166.461 250.916 166.488 250.901 166.512C250.885 166.536 250.865 166.557 250.84 166.572C250.816 166.587 250.789 166.597 250.761 166.601L218.271 171.171C218.262 171.173 218.253 171.173 218.243 171.173ZM216.852 165.45L218.387 170.751L250.477 166.237L248.941 160.936L216.852 165.45ZM203.956 180.687C203.906 180.686 203.858 180.666 203.821 180.632C203.785 180.597 203.763 180.55 203.759 180.5C203.756 180.45 203.771 180.401 203.802 180.362C203.834 180.322 203.879 180.296 203.928 180.289L269.169 171.111C269.195 171.108 269.222 171.109 269.247 171.116C269.273 171.122 269.297 171.134 269.317 171.149C269.338 171.165 269.356 171.185 269.369 171.208C269.383 171.23 269.391 171.256 269.395 171.282C269.399 171.308 269.397 171.334 269.39 171.359C269.384 171.385 269.372 171.409 269.357 171.43C269.341 171.451 269.321 171.468 269.298 171.482C269.276 171.495 269.251 171.504 269.225 171.507L203.984 180.685C203.974 180.686 203.965 180.687 203.955 180.687H203.956ZM207.746 193.772C207.696 193.771 207.648 193.752 207.611 193.717C207.575 193.683 207.553 193.636 207.55 193.586C207.546 193.536 207.562 193.486 207.593 193.447C207.624 193.408 207.669 193.382 207.718 193.374L272.96 184.197C272.986 184.193 273.012 184.195 273.037 184.201C273.063 184.208 273.087 184.219 273.108 184.235C273.128 184.251 273.146 184.271 273.159 184.293C273.173 184.316 273.181 184.341 273.185 184.367C273.189 184.393 273.187 184.42 273.181 184.445C273.174 184.47 273.163 184.494 273.147 184.515C273.131 184.536 273.111 184.554 273.089 184.567C273.066 184.581 273.041 184.589 273.015 184.593L207.774 193.77C207.765 193.772 207.755 193.772 207.746 193.772H207.746ZM211.536 206.858C211.486 206.857 211.438 206.837 211.402 206.803C211.366 206.768 211.344 206.721 211.34 206.671C211.337 206.621 211.352 206.572 211.383 206.533C211.415 206.493 211.459 206.467 211.509 206.46L276.75 197.282C276.802 197.275 276.856 197.289 276.898 197.321C276.94 197.353 276.968 197.4 276.976 197.452C276.983 197.505 276.969 197.558 276.937 197.601C276.905 197.643 276.858 197.671 276.806 197.678L211.564 206.856C211.555 206.857 211.546 206.858 211.536 206.858H211.536Z" fill="#111111"/>
</g>
<g clip-path="url(#clip3_1516_18384)">
<path d="M170.747 117.297L163.76 120.605L163.148 124.755L170.134 121.447C173.711 119.753 175.941 116.615 176.45 113.172L177.062 109.022C176.554 112.465 174.324 115.603 170.747 117.297Z" fill="#E7D6FD"/>
<path d="M163.13 124.955C163.103 124.952 163.077 124.944 163.053 124.931C163.029 124.918 163.008 124.901 162.991 124.879C162.974 124.858 162.962 124.833 162.955 124.807C162.948 124.781 162.946 124.753 162.95 124.726L163.563 120.576C163.572 120.51 163.615 120.452 163.675 120.424L170.661 117.116C174.03 115.521 176.349 112.484 176.865 108.993C176.873 108.941 176.901 108.894 176.944 108.862C176.986 108.831 177.04 108.817 177.092 108.824C177.118 108.828 177.143 108.837 177.166 108.851C177.188 108.864 177.208 108.882 177.224 108.903C177.239 108.924 177.251 108.948 177.257 108.974C177.263 108.999 177.265 109.026 177.261 109.052L177.26 109.055L176.648 113.202C176.112 116.826 173.709 119.976 170.22 121.629L163.234 124.937C163.201 124.952 163.166 124.958 163.13 124.955ZM163.943 120.74L163.4 124.414L170.048 121.266C173.417 119.671 175.736 116.634 176.252 113.143L176.444 111.84C175.361 114.254 173.388 116.267 170.832 117.478L163.943 120.74Z" fill="#111111"/>
<path d="M162.109 131.07C161.794 131.218 161.448 131.288 161.101 131.275C160.753 131.263 160.413 131.167 160.11 130.996L151.741 126.297L151.128 130.447L159.497 135.147C159.801 135.317 160.14 135.413 160.488 135.426C160.835 135.439 161.181 135.368 161.496 135.221C162.048 134.959 162.468 134.466 162.561 133.831L163.174 129.681C163.081 130.315 162.661 130.809 162.109 131.07Z" fill="#E7D6FD"/>
<path d="M160.365 135.618C160.031 135.589 159.702 135.49 159.4 135.322L151.03 130.621C150.995 130.601 150.967 130.571 150.949 130.535C150.931 130.498 150.924 130.457 150.93 130.417L151.543 126.267C151.548 126.235 151.561 126.204 151.58 126.178C151.599 126.152 151.624 126.131 151.653 126.117C151.682 126.102 151.714 126.095 151.747 126.096C151.779 126.097 151.811 126.106 151.839 126.121L160.208 130.822C160.771 131.135 161.45 131.161 162.024 130.889C162.55 130.64 162.897 130.189 162.976 129.652C162.985 129.599 163.013 129.553 163.056 129.521C163.098 129.489 163.151 129.476 163.204 129.483C163.23 129.487 163.255 129.496 163.277 129.509C163.3 129.523 163.32 129.541 163.335 129.562C163.351 129.583 163.362 129.607 163.369 129.632C163.375 129.658 163.376 129.684 163.372 129.71L162.76 133.861C162.66 134.533 162.231 135.095 161.582 135.402C161.203 135.581 160.782 135.655 160.365 135.618ZM151.346 130.339L159.595 134.972C160.159 135.285 160.838 135.311 161.411 135.039C161.937 134.79 162.284 134.339 162.364 133.802L162.803 130.83C162.625 131.004 162.42 131.146 162.195 131.251C161.505 131.578 160.69 131.548 160.013 131.171L151.897 126.613L151.346 130.339Z" fill="#111111"/>
<path d="M118.814 141.888C112.886 144.696 105.501 142.474 102.324 136.92L83.8958 104.707C82.6368 102.507 82.2279 100.114 82.562 97.8523L81.9491 102.003C81.615 104.264 82.0238 106.657 83.2828 108.858L101.711 141.071C104.888 146.625 112.273 148.846 118.201 146.039L151.128 130.447L151.741 126.296L118.814 141.888Z" fill="#E7D6FD"/>
<path d="M111.587 147.399C107.487 147.04 103.618 144.807 101.537 141.17L83.1098 108.957C81.8673 106.785 81.3975 104.37 81.7517 101.973L82.3646 97.8229C82.3683 97.7968 82.3772 97.7718 82.3907 97.7492C82.4042 97.7265 82.422 97.7068 82.4431 97.6911C82.4643 97.6755 82.4883 97.6641 82.5138 97.6578C82.5394 97.6514 82.5659 97.6502 82.5919 97.6542C82.6179 97.658 82.643 97.6669 82.6656 97.6804C82.6881 97.6939 82.7078 97.7117 82.7235 97.7329C82.7392 97.754 82.7505 97.778 82.7569 97.8036C82.7632 97.8291 82.7645 97.8557 82.7605 97.8817C82.4199 100.189 82.8726 102.515 84.07 104.608L102.498 136.821C105.618 142.276 112.899 144.468 118.729 141.707L151.655 126.115C151.688 126.1 151.725 126.094 151.761 126.097C151.797 126.101 151.831 126.114 151.86 126.136C151.889 126.157 151.912 126.186 151.926 126.22C151.94 126.253 151.944 126.29 151.939 126.326L151.326 130.476C151.316 130.542 151.274 130.599 151.214 130.628L118.287 146.22C116.157 147.229 113.837 147.596 111.587 147.399ZM82.3383 100.741L82.1477 102.032C81.807 104.339 82.2597 106.665 83.4571 108.758L101.885 140.971C105.005 146.426 112.286 148.618 118.116 145.858L150.946 130.311L151.488 126.638L118.9 142.069C112.886 144.917 105.372 142.652 102.15 137.02L83.7227 104.807C82.9858 103.519 82.5209 102.146 82.3383 100.741Z" fill="#111111"/>
<path d="M140.817 64.9768C146.745 62.1695 154.121 64.3942 157.299 69.9485L175.727 102.162C178.904 107.716 176.675 114.489 170.746 117.297L163.76 120.605L163.19 129.538C163.142 130.241 162.702 130.789 162.109 131.07C161.794 131.218 161.449 131.288 161.101 131.275C160.753 131.262 160.414 131.167 160.11 130.996L151.741 126.296L118.814 141.888C112.886 144.696 105.501 142.474 102.324 136.921L83.8961 104.707C80.7189 99.1532 82.9562 92.3758 88.8848 89.5686L140.817 64.9768Z" fill="#F3EAFE"/>
<path d="M112.2 143.248C108.099 142.889 104.23 140.657 102.15 137.02L83.7223 104.807C82.1866 102.122 81.8372 99.0627 82.7383 96.1915C83.6735 93.2116 85.8259 90.7952 88.7988 89.3873L140.731 64.7957C146.74 61.95 154.25 64.2169 157.472 69.8491L175.9 102.062C177.437 104.749 177.787 107.81 176.886 110.682C175.952 113.658 173.802 116.071 170.832 117.478L163.952 120.735L163.389 129.551C163.339 130.285 162.893 130.921 162.195 131.251C161.505 131.578 160.689 131.548 160.013 131.172L151.733 126.522L118.9 142.069C116.769 143.078 114.45 143.446 112.2 143.248ZM140.817 64.9768L140.902 65.1579L88.9701 89.7494C86.0993 91.109 84.0217 93.4395 83.1203 96.3115C82.2531 99.075 82.5901 102.021 84.0697 104.608L102.497 136.821C105.618 142.276 112.899 144.468 118.728 141.707L151.655 126.115C151.684 126.101 151.716 126.095 151.748 126.096C151.78 126.097 151.811 126.106 151.839 126.122L160.208 130.822C160.772 131.135 161.45 131.161 162.023 130.889C162.588 130.621 162.95 130.111 162.99 129.525L163.56 120.592C163.562 120.556 163.574 120.522 163.594 120.492C163.614 120.463 163.642 120.439 163.674 120.424L170.66 117.116C173.528 115.757 175.603 113.43 176.504 110.562C177.371 107.798 177.033 104.85 175.552 102.261L157.125 70.0481C154.005 64.5934 146.727 62.4 140.902 65.1581L140.817 64.9768Z" fill="#111111"/>
<path d="M111.169 108.209C109.147 109.167 108.383 111.489 109.467 113.382C110.555 115.285 113.079 116.039 115.101 115.082C117.131 114.121 117.891 111.811 116.803 109.909C115.719 108.015 113.199 107.248 111.169 108.209Z" fill="#111111"/>
<path d="M112.832 115.677C111.389 115.55 110.026 114.764 109.293 113.482C108.75 112.533 108.628 111.45 108.947 110.432C109.278 109.378 110.037 108.524 111.083 108.028C113.198 107.027 115.842 107.826 116.976 109.809C117.521 110.762 117.645 111.846 117.327 112.861C116.997 113.912 116.236 114.765 115.186 115.263C114.438 115.617 113.623 115.746 112.832 115.677ZM111.255 108.391C110.31 108.838 109.626 109.606 109.329 110.552C109.043 111.463 109.154 112.433 109.64 113.283C110.673 115.089 113.084 115.815 115.015 114.901C115.963 114.451 116.648 113.685 116.944 112.741C117.229 111.833 117.117 110.863 116.628 110.008C115.595 108.202 113.184 107.477 111.255 108.391ZM128.127 100.179C126.105 101.137 125.341 103.458 126.425 105.352C127.513 107.254 130.037 108.009 132.058 107.052C134.088 106.09 134.848 103.78 133.76 101.878C132.677 99.9847 130.157 99.218 128.127 100.179Z" fill="#111111"/>
<path d="M129.791 107.647C128.348 107.521 126.985 106.734 126.252 105.452C125.709 104.503 125.586 103.42 125.906 102.401C126.237 101.347 126.995 100.494 128.042 99.9983C130.157 98.9973 132.8 99.7955 133.935 101.779C134.48 102.731 134.604 103.815 134.285 104.831C133.955 105.882 133.195 106.735 132.144 107.233C131.396 107.587 130.581 107.716 129.791 107.647ZM130.365 99.9818C129.642 99.9184 128.898 100.036 128.213 100.36C127.269 100.808 126.585 101.575 126.288 102.522C126.002 103.432 126.112 104.402 126.599 105.252C127.632 107.058 130.043 107.784 131.973 106.87C132.921 106.421 133.607 105.654 133.903 104.711C134.188 103.803 134.076 102.832 133.587 101.978C132.92 100.813 131.68 100.097 130.365 99.9818ZM145.085 92.149C143.064 93.1063 142.299 95.4281 143.383 97.322C144.471 99.2241 146.995 99.9786 149.017 99.0214C151.047 98.06 151.807 95.7501 150.719 93.848C149.636 91.9544 147.116 91.1877 145.085 92.149Z" fill="#111111"/>
<path d="M146.749 99.6167C145.305 99.4902 143.942 98.7033 143.209 97.4216C142.667 96.4732 142.544 95.39 142.864 94.3715C143.195 93.317 143.953 92.4635 145 91.9679C147.115 90.9666 149.758 91.7649 150.893 93.7486C151.438 94.701 151.562 95.7849 151.244 96.8005C150.913 97.8518 150.153 98.7048 149.103 99.2024C148.354 99.557 147.539 99.686 146.749 99.6167ZM147.323 91.9514C146.6 91.8881 145.856 92.0061 145.171 92.3303C144.226 92.7775 143.543 93.5452 143.245 94.4919C142.96 95.4023 143.07 96.3723 143.556 97.2225C144.59 99.0285 147 99.7546 148.931 98.8402C149.879 98.3912 150.565 97.624 150.861 96.6805C151.146 95.7724 151.034 94.8019 150.545 93.9476C149.879 92.7822 148.638 92.0666 147.323 91.9514Z" fill="#111111"/>
</g>
<defs>
<linearGradient id="paint0_linear_1516_18384" x1="388.365" y1="230.928" x2="434.4" y2="230.928" gradientUnits="userSpaceOnUse">
<stop stop-color="#8932F6"/>
<stop offset="1" stop-color="#F971BA"/>
</linearGradient>
<linearGradient id="paint1_linear_1516_18384" x1="128.4" y1="268.731" x2="378.668" y2="268.731" gradientUnits="userSpaceOnUse">
<stop stop-color="#8932F6"/>
<stop offset="1" stop-color="#F971BA"/>
</linearGradient>
<clipPath id="clip0_1516_18384">
<rect width="87.4" height="93.4" fill="white" transform="translate(347.2 175.4)"/>
</clipPath>
<clipPath id="clip1_1516_18384">
<rect width="254" height="344.4" fill="white" transform="translate(128.2 85.8)"/>
</clipPath>
<clipPath id="clip2_1516_18384">
<rect width="160.4" height="240.8" fill="white" transform="translate(176.2 147.2)"/>
</clipPath>
<clipPath id="clip3_1516_18384">
<rect width="95.8" height="86.6" fill="white" transform="matrix(0.996184 0.0872815 -0.0869673 0.996211 85.5547 58.1914)"/>
</clipPath>
</defs>
</svg>
