<svg width="12" height="12" viewBox="0 0 12 12" fill="none" xmlns="http://www.w3.org/2000/svg">
<path d="M6 1.875C3.72188 1.875 1.875 3.72188 1.875 6C1.875 8.27812 3.72188 10.125 6 10.125C8.27812 10.125 10.125 8.27812 10.125 6C10.125 3.72188 8.27812 1.875 6 1.875ZM6 2.625C7.86394 2.625 9.375 4.13606 9.375 6C9.375 7.86394 7.86394 9.375 6 9.375C4.13606 9.375 2.625 7.86394 2.625 6C2.625 4.13606 4.13606 2.625 6 2.625ZM6 3.9375C5.68931 3.9375 5.4375 4.18931 5.4375 4.5C5.4375 4.81069 5.68931 5.0625 6 5.0625C6.31069 5.0625 6.5625 4.81069 6.5625 4.5C6.5625 4.18931 6.31069 3.9375 6 3.9375ZM6 5.625C5.79281 5.625 5.625 5.793 5.625 6V7.875C5.625 8.082 5.79281 8.25 6 8.25C6.20719 8.25 6.375 8.082 6.375 7.875V6C6.375 5.793 6.20719 5.625 6 5.625Z" fill="#5559DF"/>
</svg>
