<svg width="20" height="20" viewBox="0 0 20 20" fill="none" xmlns="http://www.w3.org/2000/svg">
<path d="M15.4688 4.0625C14.8683 4.0625 14.3394 4.37273 14.032 4.8407L6.31165 6.89941C5.97617 6.98887 5.679 7.1574 5.43091 7.37671C5.11985 7.06693 4.69126 6.875 4.21875 6.875C3.27125 6.875 2.5 7.64594 2.5 8.59375V11.4062C2.5 12.3541 3.27125 13.125 4.21875 13.125C4.6801 13.125 5.09862 12.941 5.40771 12.644L5.70679 13.8403C5.91491 14.6741 6.526 15.3336 7.34131 15.6055L7.96326 15.813C8.22669 15.9008 8.49536 15.9436 8.76099 15.9436C9.48755 15.9436 10.1885 15.6252 10.6744 15.0421L11.2042 14.4055L14.0326 15.1599C14.3401 15.6275 14.8686 15.9375 15.4688 15.9375C16.4163 15.9375 17.1875 15.1666 17.1875 14.2188V5.78125C17.1875 4.83344 16.4163 4.0625 15.4688 4.0625ZM15.4688 5.3125C15.7272 5.3125 15.9375 5.52281 15.9375 5.78125V14.2188C15.9375 14.4772 15.7272 14.6875 15.4688 14.6875C15.2103 14.6875 15 14.4772 15 14.2188V5.78125C15 5.52281 15.2103 5.3125 15.4688 5.3125ZM13.75 6.20972V13.7903L6.6333 11.8927C6.22361 11.7836 5.9375 11.411 5.9375 10.9869V9.01306C5.9375 8.589 6.22361 8.21636 6.6333 8.1073L13.75 6.20972ZM4.21875 8.125C4.47719 8.125 4.6875 8.33531 4.6875 8.59375V9.01306V10.9869V11.4062C4.6875 11.6647 4.47719 11.875 4.21875 11.875C3.96031 11.875 3.75 11.6647 3.75 11.4062V8.59375C3.75 8.33531 3.96031 8.125 4.21875 8.125ZM6.84631 13.244L9.87305 14.0509L9.71436 14.2413C9.38217 14.6395 8.85064 14.7918 8.35876 14.6271L7.73682 14.4196C7.32932 14.2839 7.02362 13.9539 6.91956 13.537L6.84631 13.244Z" fill="#EEEEFC"/>
</svg>
