<svg width="24" height="24" viewBox="0 0 24 24" fill="none" xmlns="http://www.w3.org/2000/svg">
<path d="M8.25 3.375C7.836 3.375 7.5 3.711 7.5 4.125V4.875H16.5V4.125C16.5 3.711 16.164 3.375 15.75 3.375H8.25ZM6.75 5.625C6.336 5.625 6 5.961 6 6.375V7.125H18V6.375C18 5.961 17.664 5.625 17.25 5.625H6.75ZM6.375 7.875C5.13412 7.875 4.125 8.88412 4.125 10.125V18.375C4.125 19.6159 5.13412 20.625 6.375 20.625H17.625C18.8659 20.625 19.875 19.6159 19.875 18.375V10.125C19.875 8.88412 18.8659 7.875 17.625 7.875H6.375ZM6.375 9.375H17.625C18.0386 9.375 18.375 9.71137 18.375 10.125V18.375C18.375 18.7886 18.0386 19.125 17.625 19.125H6.375C5.96137 19.125 5.625 18.7886 5.625 18.375V10.125C5.625 9.71137 5.96137 9.375 6.375 9.375ZM14.7678 10.4949C14.7245 10.4851 14.6785 10.4847 14.6316 10.4963L12.0952 11.1277C11.8192 11.1963 11.625 11.4444 11.625 11.729V14.4954C11.625 15.089 11.3392 15.2255 10.6882 15.3684C9.81148 15.5612 9.375 16.0361 9.375 16.7512C9.375 17.5267 10.0135 18 10.9446 18C11.8888 18 12.75 17.4116 12.75 15.4688V13.136C12.75 13.0374 12.8181 12.9512 12.9141 12.9287L14.6602 12.5215C14.8593 12.475 15 12.297 15 12.0923V10.7842C15 10.6396 14.8979 10.5242 14.7678 10.4949Z" fill="#E5DFE2"/>
</svg>
