<svg width="150" height="150" viewBox="0 0 150 150" fill="none" xmlns="http://www.w3.org/2000/svg">
<g clip-path="url(#clip0_37_11412)">
<path d="M126.766 53.7986L127.735 55.8006C128.003 56.355 127.995 57.0369 127.65 57.6636C127.603 57.749 127.551 57.8315 127.494 57.9106L126.525 55.9086C126.582 55.8296 126.635 55.7471 126.682 55.6616C127.027 55.0348 127.034 54.353 126.766 53.7986Z" fill="#8932F6"/>
<path d="M127.494 57.9705C127.483 57.9705 127.472 57.9674 127.462 57.9614C127.453 57.9554 127.445 57.9469 127.44 57.9367L126.472 55.9347C126.467 55.925 126.465 55.9141 126.466 55.9034C126.467 55.8926 126.471 55.8823 126.477 55.8735C126.533 55.7964 126.584 55.7159 126.63 55.6326C126.953 55.0444 126.984 54.3858 126.713 53.8256L126.713 53.8247C126.709 53.8176 126.707 53.8099 126.707 53.802C126.706 53.7941 126.707 53.7863 126.71 53.7788C126.712 53.7714 126.716 53.7645 126.722 53.7586C126.727 53.7528 126.733 53.748 126.74 53.7445C126.747 53.7411 126.755 53.7391 126.763 53.7386C126.771 53.7382 126.779 53.7393 126.786 53.7418C126.793 53.7444 126.8 53.7485 126.806 53.7537C126.812 53.7589 126.817 53.7653 126.82 53.7724L127.789 55.7743C128.077 56.3703 128.046 57.0694 127.703 57.6925C127.655 57.78 127.601 57.8646 127.543 57.9457C127.537 57.9534 127.53 57.9597 127.522 57.964C127.513 57.9683 127.504 57.9705 127.494 57.9705ZM126.595 55.9144L127.503 57.7917C127.537 57.7406 127.569 57.6881 127.598 57.6345C127.922 57.046 127.952 56.3871 127.681 55.8266L127.006 54.4318C127.048 54.8507 126.957 55.2865 126.734 55.6904C126.692 55.7675 126.645 55.8423 126.595 55.9144Z" fill="#111111"/>
<path d="M125.739 52.8499C126.86 53.311 127.282 54.57 126.682 55.6616C126.634 55.747 126.582 55.8295 126.525 55.9086C125.974 55.4787 125.347 55.1128 124.651 54.8265C123.955 54.5402 123.231 54.3509 122.497 54.2522C122.533 54.1628 122.574 54.0757 122.62 53.9915C123.221 52.8998 124.617 52.3887 125.739 52.8499Z" fill="#E7D6FD"/>
<path d="M126.525 55.9685C126.512 55.9685 126.499 55.9641 126.489 55.9558C125.932 55.5219 125.306 55.1606 124.628 54.8819C123.95 54.6031 123.231 54.4111 122.489 54.3115C122.48 54.3103 122.472 54.3071 122.464 54.302C122.457 54.297 122.45 54.2902 122.446 54.2824C122.441 54.2745 122.438 54.2657 122.438 54.2566C122.437 54.2475 122.438 54.2383 122.442 54.2299C122.478 54.1393 122.52 54.0493 122.568 53.9623C123.182 52.8465 124.615 52.3226 125.762 52.7942C126.31 53.0197 126.716 53.4384 126.904 53.9731C127.099 54.5275 127.039 55.1375 126.734 55.6904C126.686 55.778 126.633 55.8625 126.574 55.9436C126.569 55.9513 126.561 55.9576 126.553 55.9619C126.544 55.9662 126.535 55.9685 126.525 55.9684L126.525 55.9685ZM122.583 54.2033C123.307 54.3071 124.01 54.4979 124.674 54.7709C125.341 55.0454 125.96 55.3991 126.512 55.8227C126.554 55.7612 126.593 55.6977 126.629 55.6325C126.917 55.1099 126.974 54.5347 126.791 54.0129C126.614 53.5109 126.232 53.1175 125.716 52.9052C124.624 52.456 123.258 52.9561 122.673 54.0203C122.64 54.0801 122.61 54.1414 122.583 54.2033H122.583Z" fill="#111111"/>
<path d="M111.436 73.188L104.888 70.4953C104.619 70.3845 104.431 70.1983 104.324 69.978L105.293 71.98C105.399 72.2002 105.588 72.3865 105.857 72.4973L112.405 75.1901L111.436 73.1881V73.188Z" fill="#8932F6"/>
<path d="M112.404 75.2501C112.396 75.2502 112.389 75.2486 112.381 75.2456L105.834 72.5528C105.563 72.4417 105.357 72.2527 105.238 72.0063L104.27 70.0043C104.266 69.9973 104.264 69.9896 104.264 69.9817C104.263 69.9738 104.264 69.966 104.267 69.9585C104.27 69.9511 104.274 69.9442 104.279 69.9383C104.284 69.9324 104.29 69.9276 104.297 69.9242C104.305 69.9208 104.312 69.9188 104.32 69.9183C104.328 69.9179 104.336 69.9189 104.343 69.9215C104.351 69.9241 104.357 69.9281 104.363 69.9334C104.369 69.9386 104.374 69.945 104.377 69.952L104.378 69.9529C104.484 70.1719 104.668 70.3403 104.91 70.44L111.458 73.1327C111.472 73.1383 111.483 73.1488 111.49 73.162L112.458 75.1639C112.463 75.1731 112.465 75.1832 112.464 75.1934C112.463 75.2035 112.46 75.2133 112.455 75.222C112.45 75.2306 112.442 75.2377 112.433 75.2426C112.424 75.2475 112.414 75.2501 112.404 75.2501V75.2501ZM104.593 70.3965L105.346 71.954C105.452 72.1735 105.637 72.3421 105.879 72.4419L112.282 75.0751L111.392 73.235L104.865 70.5509C104.768 70.5114 104.676 70.4595 104.593 70.3965Z" fill="#111111"/>
<path d="M116.51 75.2745C116.509 75.7536 116.384 76.2498 116.124 76.7236C115.274 78.2673 113.299 78.9903 111.713 78.3382C110.127 77.686 109.53 75.9053 110.38 74.3616C110.641 73.8877 111.007 73.4912 111.436 73.188L116.51 75.2745Z" fill="#F3EAFE"/>
<path d="M112.947 78.6372C112.519 78.6372 112.092 78.559 111.69 78.3937C110.921 78.0776 110.353 77.4907 110.089 76.7412C109.816 75.9637 109.9 75.1083 110.327 74.3327C110.583 73.8677 110.955 73.455 111.402 73.1391C111.418 73.1273 111.44 73.1249 111.459 73.1326L116.533 75.2191C116.544 75.2236 116.553 75.2313 116.56 75.2413C116.566 75.2512 116.57 75.2628 116.57 75.2747C116.568 75.7758 116.432 76.2869 116.176 76.7527C115.528 77.929 114.233 78.6372 112.947 78.6372ZM111.444 73.2562C111.023 73.5592 110.674 73.9508 110.432 74.3907C110.022 75.136 109.94 75.9566 110.202 76.7014C110.454 77.4182 110.999 77.9798 111.736 78.2828C113.292 78.923 115.237 78.2105 116.071 76.6949C116.311 76.2592 116.441 75.7828 116.45 75.3147L111.444 73.2563L111.444 73.2562Z" fill="#111111"/>
<path d="M116.509 75.2747L117.478 77.2766C117.477 77.7557 117.352 78.2519 117.091 78.7258C116.242 80.2695 114.267 80.9925 112.681 80.3403C112.006 80.0626 111.51 79.5802 111.228 78.9986L110.26 76.9966C110.541 77.5782 111.037 78.0606 111.713 78.3384C113.298 78.9905 115.273 78.2676 116.123 76.7238C116.384 76.2499 116.508 75.7537 116.509 75.2747Z" fill="#8932F6"/>
<path d="M113.915 80.6391C113.487 80.6391 113.061 80.5609 112.659 80.3957C111.988 80.12 111.475 79.646 111.175 79.0246L110.206 77.0227C110.203 77.0156 110.201 77.0079 110.2 77C110.2 76.9922 110.201 76.9843 110.204 76.9769C110.206 76.9694 110.21 76.9626 110.215 76.9567C110.221 76.9508 110.227 76.946 110.234 76.9426C110.241 76.9391 110.249 76.9371 110.257 76.9367C110.264 76.9362 110.272 76.9373 110.28 76.9399C110.287 76.9425 110.294 76.9465 110.3 76.9517C110.306 76.957 110.311 76.9633 110.314 76.9704C110.602 77.5648 111.093 78.0185 111.736 78.2828C113.292 78.9229 115.237 78.2104 116.071 76.6948C116.317 76.2466 116.448 75.7554 116.45 75.2744C116.45 75.2608 116.454 75.2477 116.463 75.2371C116.471 75.2265 116.483 75.2191 116.496 75.2161C116.51 75.2131 116.523 75.2146 116.536 75.2205C116.548 75.2264 116.558 75.2362 116.564 75.2484L117.532 77.2504C117.536 77.2586 117.538 77.2676 117.538 77.2767C117.537 77.7777 117.4 78.2888 117.144 78.7546C116.497 79.931 115.202 80.6391 113.915 80.6391ZM110.663 77.6917L111.283 78.9722C111.57 79.5666 112.062 80.0205 112.704 80.2847C114.261 80.9247 116.205 80.2123 117.039 78.6966C117.284 78.2526 117.414 77.7666 117.418 77.2901L116.559 75.5135C116.522 75.9366 116.391 76.3607 116.176 76.7526C115.313 78.3199 113.301 79.056 111.69 78.3936C111.287 78.2277 110.94 77.9901 110.663 77.6916L110.663 77.6917Z" fill="#111111"/>
<path d="M129.59 60.4947L128.621 58.4927C129.658 60.6348 129.628 63.2694 128.295 65.691L125.745 70.3264C124.781 72.0781 124.771 74.803 124.916 76.696C124.986 77.609 123.934 78.3275 123.058 77.9676L116.51 75.2745L117.478 77.2765L124.027 79.9695C124.902 80.3295 125.954 79.6109 125.884 78.6979C125.74 76.8049 125.749 74.0801 126.713 72.3284L129.264 67.6929C130.596 65.2714 130.626 62.6368 129.59 60.4947Z" fill="url(#paint0_linear_37_11412)"/>
<path d="M124.509 80.1229C124.336 80.1229 124.164 80.0907 124.005 80.025L117.456 77.3319C117.442 77.3263 117.431 77.3159 117.425 77.3026L116.456 75.3006C116.451 75.2897 116.449 75.2774 116.451 75.2654C116.453 75.2534 116.458 75.2423 116.466 75.2334C116.475 75.2246 116.486 75.2185 116.497 75.2159C116.509 75.2133 116.522 75.2144 116.533 75.219L123.081 77.9121C123.483 78.0772 123.966 78.0095 124.342 77.7355C124.694 77.4791 124.886 77.0921 124.856 76.7005C124.707 74.7441 124.731 72.0451 125.692 70.2974L128.243 65.662C129.522 63.3386 129.64 60.735 128.568 58.5187C128.564 58.5117 128.562 58.504 128.562 58.4961C128.561 58.4882 128.562 58.4804 128.565 58.4729C128.568 58.4655 128.572 58.4586 128.577 58.4527C128.582 58.4468 128.588 58.4421 128.595 58.4386C128.603 58.4352 128.61 58.4332 128.618 58.4327C128.626 58.4323 128.634 58.4334 128.641 58.4359C128.649 58.4385 128.656 58.4425 128.661 58.4478C128.667 58.453 128.672 58.4594 128.675 58.4664L129.644 60.4684C130.733 62.7202 130.614 65.364 129.317 67.7219L126.766 72.3574C125.818 74.0792 125.796 76.7532 125.944 78.6934C125.977 79.1269 125.767 79.5535 125.381 79.8346C125.12 80.0244 124.812 80.123 124.509 80.123L124.509 80.1229ZM117.522 77.2297L124.05 79.914C124.452 80.0792 124.935 80.0115 125.311 79.7375C125.663 79.4811 125.855 79.0941 125.825 78.7025C125.675 76.7461 125.699 74.0472 126.661 72.2994L129.212 67.664C130.49 65.3406 130.608 62.7371 129.536 60.5208L129.145 59.713C129.684 61.6581 129.413 63.7853 128.348 65.7199L125.797 70.3554C124.85 72.0771 124.827 74.7512 124.976 76.6914C125.009 77.1249 124.798 77.5515 124.412 77.8326C124.003 78.1308 123.476 78.2038 123.036 78.0231L116.632 75.3896L117.522 77.2297H117.522Z" fill="#111111"/>
<path d="M124.651 54.8264C125.347 55.1127 125.974 55.4786 126.525 55.9085C129.407 58.1549 130.243 62.1505 128.295 65.6909L125.744 70.3263C124.78 72.0781 124.771 74.8029 124.915 76.6959C124.985 77.6089 123.933 78.3274 123.058 77.9675L116.509 75.2745L111.436 73.188L104.888 70.4952C104.012 70.135 103.993 68.9761 104.857 68.4469C106.647 67.3499 109.086 65.6241 110.05 63.8724L112.601 59.2369C114.549 55.6966 118.663 53.7365 122.497 54.252C123.231 54.3506 123.955 54.54 124.651 54.8263L124.651 54.8264Z" fill="#E7D6FD"/>
<path d="M123.54 78.1211C123.367 78.1211 123.196 78.0889 123.036 78.0231L104.865 70.5509C104.46 70.3841 104.198 70.0323 104.164 69.6097C104.126 69.1344 104.38 68.6693 104.826 68.396C106.661 67.2716 109.049 65.569 109.998 63.8437L112.549 59.2082C114.466 55.7247 118.56 53.6624 122.505 54.1928C123.257 54.2939 123.987 54.4884 124.674 54.7712C125.362 55.054 125.997 55.4208 126.562 55.8614C129.533 58.1774 130.268 62.2314 128.348 65.7201L125.797 70.3556C124.849 72.0774 124.827 74.7514 124.976 76.6916C125.009 77.1251 124.798 77.5517 124.412 77.8328C124.152 78.0227 123.843 78.1213 123.54 78.1213L123.54 78.1211ZM121.262 54.2299C117.768 54.2299 114.349 56.1853 112.654 59.266L110.103 63.9015C109.141 65.6499 106.736 67.3663 104.888 68.4982C104.481 68.7479 104.249 69.1701 104.283 69.6001C104.314 69.9823 104.542 70.2884 104.911 70.4399L123.081 77.9122C123.483 78.0772 123.966 78.0097 124.342 77.7357C124.694 77.4793 124.886 77.0923 124.856 76.7006C124.707 74.7442 124.73 72.0452 125.692 70.2975L128.243 65.6621C130.134 62.2262 129.412 58.2349 126.489 55.9559C125.932 55.522 125.306 55.1607 124.628 54.882C123.95 54.6032 123.231 54.4112 122.489 54.3116C122.083 54.2571 121.672 54.2298 121.262 54.2299H121.262Z" fill="#111111"/>
</g>
<g clip-path="url(#clip1_37_11412)">
<path d="M84.9961 27.3881C86.0538 27.2395 87.1749 28.0287 87.5003 29.1511L112.976 117.015C113.301 118.137 112.708 119.167 111.65 119.316L70.8313 125.052C69.771 125.201 68.6501 124.412 68.3245 123.29L42.8489 35.4259C42.5235 34.3036 43.1169 33.2733 44.1773 33.1244L84.9961 27.3881ZM71.0848 34.2196C71.8814 34.1076 72.3325 33.3247 72.0872 32.479C71.8419 31.6334 70.9904 31.0343 70.1937 31.1462L59.9116 32.5911C59.1151 32.7031 58.664 33.486 58.9093 34.3312C59.1545 35.1765 60.0064 35.7764 60.8029 35.6645L71.085 34.2196" fill="#F3EAFE"/>
<path d="M70.574 125.13C69.5717 125.13 68.5732 124.361 68.2673 123.306L42.7917 35.4424C42.6219 34.8566 42.6931 34.2601 42.9872 33.8057C43.1186 33.6037 43.2924 33.4327 43.4966 33.3047C43.7009 33.1767 43.9306 33.0948 44.1697 33.0647L84.9882 27.3285C86.0724 27.1761 87.2255 27.9862 87.5584 29.1342L113.034 116.998C113.204 117.584 113.133 118.181 112.838 118.636C112.707 118.837 112.534 119.008 112.33 119.136C112.127 119.263 111.897 119.345 111.659 119.375L70.8401 125.112C70.752 125.124 70.6631 125.13 70.574 125.13ZM84.9966 27.3879L85.0049 27.4474L44.1861 33.1836C43.9641 33.2115 43.7509 33.2874 43.5612 33.4061C43.3716 33.5248 43.2102 33.6835 43.0881 33.871C42.813 34.2961 42.747 34.8567 42.9072 35.409L68.3827 123.273C68.6996 124.366 69.7945 125.137 70.8234 124.993L111.642 119.256C111.864 119.228 112.076 119.153 112.266 119.034C112.455 118.916 112.616 118.757 112.738 118.57C113.013 118.145 113.079 117.584 112.919 117.031L87.4431 29.1676C87.1261 28.0746 86.0325 27.3029 85.0048 27.4474L84.9966 27.3879ZM60.6093 35.7377C59.846 35.7377 59.0852 35.1515 58.8522 34.3478C58.7229 33.9021 58.7782 33.4467 59.0037 33.0983C59.1036 32.944 59.2358 32.8134 59.3913 32.7155C59.5468 32.6176 59.7218 32.5548 59.9041 32.5315L70.1861 31.0866C71.013 30.9705 71.8922 31.5876 72.1458 32.4624C72.2751 32.9081 72.2198 33.3636 71.9943 33.7119C71.8945 33.8662 71.7622 33.9969 71.6067 34.0948C71.4512 34.1927 71.2762 34.2555 71.0939 34.2788L60.8119 35.7237C60.7448 35.7331 60.6771 35.7378 60.6093 35.7377ZM70.39 31.1925C70.3273 31.1924 70.2646 31.1968 70.2025 31.2055L59.9205 32.6504C59.7553 32.6714 59.5966 32.7282 59.4557 32.8168C59.3147 32.9055 59.1947 33.0238 59.1042 33.1635C58.8976 33.4827 58.8476 33.9021 58.9671 34.3143C59.2048 35.1341 60.0246 35.7128 60.7947 35.6047L71.0771 34.1599C71.2423 34.1389 71.4009 34.0821 71.5419 33.9934C71.6829 33.9048 71.8029 33.7865 71.8934 33.6467C72.1 33.3276 72.15 32.9081 72.0305 32.4958C71.8118 31.7425 71.1011 31.1925 70.39 31.1925Z" fill="#111111"/>
<path d="M70.194 31.1463C70.9906 31.0343 71.8426 31.6341 72.0876 32.4794C72.3327 33.3247 71.8817 34.1076 71.0852 34.2196L60.8032 35.6645C60.0066 35.7764 59.1546 35.1766 58.9095 34.3313C58.6645 33.486 59.1155 32.7031 59.9119 32.5912L70.194 31.1463Z" fill="#E7D6FD"/>
<path d="M60.6089 35.7377C59.8455 35.7377 59.0847 35.1515 58.8517 34.3478C58.7225 33.9021 58.7777 33.4467 59.0032 33.0983C59.103 32.9441 59.2353 32.8134 59.3908 32.7155C59.5463 32.6176 59.7213 32.5548 59.9036 32.5315L70.1856 31.0866C71.0125 30.9703 71.8916 31.5876 72.1453 32.4624C72.2745 32.9081 72.2192 33.3636 71.9937 33.7119C71.8939 33.8662 71.7616 33.9968 71.6061 34.0947C71.4506 34.1927 71.2756 34.2555 71.0934 34.2788L60.8113 35.7237C60.7442 35.733 60.6766 35.7377 60.6089 35.7377ZM70.3896 31.1924C70.3269 31.1924 70.2642 31.1968 70.2021 31.2055L59.9201 32.6504C59.7549 32.6714 59.5963 32.7282 59.4553 32.8169C59.3143 32.9055 59.1943 33.0238 59.1038 33.1636C58.8972 33.4827 58.8472 33.9022 58.9667 34.3144C59.1852 35.0678 59.8955 35.6177 60.6069 35.6178C60.6697 35.6178 60.7323 35.6135 60.7944 35.6048L71.0766 34.1599C71.2418 34.1389 71.4004 34.082 71.5414 33.9934C71.6824 33.9048 71.8024 33.7865 71.8929 33.6467C72.0995 33.3275 72.1495 32.9081 72.03 32.4959C71.8113 31.7425 71.101 31.1924 70.3896 31.1924Z" fill="#111111"/>
<path d="M112.101 120.872L71.2795 126.609C69.4147 126.871 67.4348 125.477 66.8602 123.495L41.3846 35.6316C40.9915 34.2756 41.358 32.9957 42.2269 32.2385L39.5192 34.5982C38.6503 35.3554 38.2838 36.6353 38.6769 37.9912L64.1525 125.855C64.7271 127.837 66.7069 129.23 68.5718 128.968L109.393 123.232C109.948 123.159 110.469 122.926 110.892 122.561L113.6 120.202C113.176 120.567 112.655 120.8 112.101 120.872Z" fill="url(#paint1_linear_37_11412)"/>
<path d="M68.1185 129.06C66.3719 129.06 64.6299 127.715 64.0955 125.872L38.6198 38.0079C38.2336 36.6759 38.5634 35.352 39.4804 34.5529L42.1881 32.1932C42.194 32.1878 42.2009 32.1837 42.2084 32.181C42.216 32.1783 42.224 32.1771 42.232 32.1776C42.24 32.178 42.2478 32.1801 42.255 32.1836C42.2622 32.1871 42.2686 32.192 42.2738 32.1981C42.2791 32.2041 42.2831 32.2111 42.2856 32.2187C42.2881 32.2263 42.2891 32.2344 42.2884 32.2423C42.2878 32.2503 42.2856 32.2581 42.2819 32.2652C42.2782 32.2723 42.2731 32.2786 42.2669 32.2837C41.3856 33.0519 41.0698 34.3282 41.4428 35.6147L66.9184 123.479C67.4384 125.272 69.13 126.58 70.8246 126.58C70.9742 126.58 71.1236 126.57 71.2717 126.549L112.093 120.813C112.636 120.741 113.146 120.513 113.561 120.156C113.573 120.146 113.589 120.141 113.604 120.142C113.62 120.143 113.635 120.15 113.646 120.162C113.656 120.174 113.661 120.19 113.66 120.206C113.659 120.222 113.652 120.236 113.64 120.247L110.932 122.607C110.499 122.978 109.968 123.216 109.402 123.291L68.5807 129.028C68.4276 129.049 68.2732 129.06 68.1185 129.06ZM41.6506 32.8209L39.5592 34.6435C38.6778 35.4117 38.3621 36.688 38.7351 37.9745L64.2108 125.838C64.7764 127.789 66.7293 129.167 68.564 128.909L109.385 123.172C109.928 123.101 110.438 122.873 110.853 122.516L112.949 120.69C112.682 120.81 112.4 120.892 112.11 120.932L71.2884 126.668C69.3969 126.934 67.3848 125.518 66.8031 123.512L41.3275 35.6484C41.03 34.6224 41.1573 33.6012 41.6506 32.8209Z" fill="#111111"/>
<path d="M84.5448 25.8318C86.4123 25.5693 88.3923 26.9632 88.9668 28.945L114.442 116.809C115.017 118.79 113.969 120.61 112.101 120.872L71.2801 126.608C69.4152 126.871 67.4353 125.477 66.8608 123.495L41.3849 35.6316C40.8103 33.6498 41.8585 31.8305 43.7258 31.5683L84.5448 25.8318ZM112.976 117.015L87.5002 29.1511C87.1748 28.0287 86.0537 27.2394 84.996 27.388L44.1773 33.1243C43.1169 33.2733 42.5234 34.3034 42.8489 35.4259L68.3245 123.29C68.6499 124.412 69.771 125.201 70.8314 125.052L111.65 119.316C112.708 119.167 113.301 118.137 112.976 117.015Z" fill="#E7D6FD"/>
<path d="M70.8258 126.7C69.0791 126.7 67.3372 125.355 66.8027 123.512L41.327 35.6483C41.0308 34.6264 41.1547 33.5863 41.6671 32.7948C41.8948 32.4442 42.1962 32.1475 42.5504 31.9253C42.9045 31.7032 43.3029 31.561 43.7177 31.5086L84.5362 25.7724C86.4292 25.5063 88.4426 26.922 89.0242 28.9283L114.5 116.792C114.796 117.814 114.672 118.854 114.16 119.645C113.932 119.996 113.631 120.293 113.277 120.515C112.922 120.737 112.524 120.879 112.109 120.932L71.288 126.668C71.1348 126.69 70.9804 126.7 70.8258 126.7ZM84.5529 25.8912L43.7342 31.6274C43.3365 31.6776 42.9546 31.8138 42.615 32.0267C42.2754 32.2396 41.9863 32.524 41.7679 32.86C41.2744 33.6223 41.1556 34.6264 41.4424 35.6149L66.918 123.479C67.4378 125.272 69.1295 126.58 70.8241 126.58C70.9737 126.58 71.1231 126.57 71.2712 126.549L112.093 120.813C112.49 120.763 112.872 120.626 113.212 120.413C113.552 120.201 113.841 119.916 114.059 119.58C114.553 118.818 114.671 117.814 114.385 116.825L88.909 28.9616C88.3432 27.0106 86.3892 25.6332 84.5529 25.8912ZM70.5734 125.13C69.571 125.13 68.5724 124.361 68.2666 123.306L42.791 35.4426C42.6212 34.8568 42.6924 34.2602 42.9865 33.8059C43.1179 33.6038 43.2917 33.4328 43.4959 33.3048C43.7001 33.1768 43.9298 33.0949 44.169 33.0648L84.9874 27.3286C86.0718 27.1763 87.2248 27.9863 87.5577 29.1343L113.033 116.998C113.203 117.584 113.132 118.181 112.838 118.636C112.707 118.837 112.533 119.008 112.33 119.136C112.126 119.264 111.897 119.345 111.658 119.376L70.8395 125.112C70.7513 125.124 70.6624 125.13 70.5734 125.13ZM85.2545 27.4301C85.1707 27.43 85.0871 27.4359 85.0041 27.4475L44.1854 33.1837C43.9634 33.2115 43.75 33.2874 43.5603 33.4062C43.3706 33.5249 43.2091 33.6836 43.087 33.8712C42.8118 34.2962 42.7458 34.8568 42.906 35.4091L68.3819 123.273C68.6988 124.366 69.7938 125.137 70.8228 124.993L111.642 119.257C111.863 119.229 112.076 119.153 112.265 119.034C112.454 118.916 112.615 118.757 112.737 118.57C113.012 118.145 113.078 117.584 112.918 117.031L87.4423 29.1677C87.1511 28.1633 86.2036 27.4301 85.2545 27.4301Z" fill="#111111"/>
</g>
<g clip-path="url(#clip2_37_11412)">
<path d="M95.4547 105.24L77.7816 107.726C75.5531 108.039 74.3019 110.213 74.9876 112.58C75.6741 114.95 78.0372 116.615 80.2657 116.302L97.9389 113.816C100.168 113.502 101.419 111.329 100.732 108.959C100.046 106.592 97.6834 104.926 95.4547 105.24" fill="#E7D6FD"/>
<path d="M79.7238 116.4C77.6427 116.4 75.5672 114.796 74.9304 112.597C74.5777 111.38 74.7252 110.141 75.3349 109.198C75.8801 108.355 76.7462 107.811 77.7737 107.667L95.4468 105.181C97.7005 104.864 100.097 106.551 100.79 108.942C101.143 110.161 100.996 111.401 100.386 112.345C99.8408 113.187 98.9749 113.731 97.9476 113.875L80.2745 116.361C80.0917 116.387 79.9076 116.4 79.7239 116.4L79.7238 116.4ZM95.4634 105.299L77.7903 107.785C76.7978 107.925 75.9615 108.45 75.4355 109.263C74.8447 110.177 74.7025 111.38 75.0455 112.564C75.7226 114.901 78.0607 116.551 80.2578 116.243L97.9309 113.757C98.9232 113.617 99.7593 113.092 100.285 112.279C100.876 111.365 101.018 110.161 100.675 108.976C99.9981 106.639 97.6601 104.99 95.4634 105.299Z" fill="#111111"/>
<path d="M91.1701 92.4065L74.4189 94.7628L75.2651 97.684L92.0162 95.3277L91.1701 92.4065Z" fill="#8932F6"/>
<path d="M75.2645 97.744C75.2515 97.7439 75.2389 97.7397 75.2285 97.7319C75.2181 97.7241 75.2106 97.7131 75.207 97.7006L74.3608 94.7795C74.3584 94.7712 74.3578 94.7625 74.359 94.754C74.3603 94.7455 74.3633 94.7373 74.368 94.7301C74.3727 94.7229 74.3788 94.7168 74.3861 94.7121C74.3933 94.7075 74.4015 94.7045 74.41 94.7033L91.1612 92.347C91.1755 92.345 91.19 92.3482 91.2021 92.3561C91.2143 92.3639 91.2231 92.3759 91.2271 92.3897L92.0733 95.3109C92.0757 95.3192 92.0763 95.3279 92.0751 95.3364C92.0739 95.3449 92.0708 95.353 92.0661 95.3603C92.0615 95.3675 92.0553 95.3736 92.048 95.3783C92.0408 95.3829 92.0326 95.3859 92.0241 95.3871L75.2729 97.7434C75.2701 97.7438 75.2673 97.744 75.2645 97.744ZM74.4952 94.8126L75.3076 97.6174L91.9389 95.2779L91.1264 92.4731L74.4952 94.8126Z" fill="#111111"/>
<path d="M84.0808 87.0903L64.5479 89.8379L65.394 92.7591L84.9269 90.0115L84.0808 87.0903Z" fill="#8932F6"/>
<path d="M65.3944 92.8191C65.3681 92.8191 65.3444 92.8017 65.3369 92.7758L64.4907 89.8546C64.4883 89.8463 64.4877 89.8377 64.4889 89.8291C64.4901 89.8206 64.4932 89.8125 64.4979 89.8053C64.5025 89.798 64.5087 89.7919 64.516 89.7873C64.5232 89.7826 64.5314 89.7796 64.5399 89.7785L84.0728 87.0309C84.0871 87.0288 84.1016 87.0321 84.1137 87.0399C84.1259 87.0478 84.1347 87.0597 84.1387 87.0736L84.9849 89.9948C84.9873 90.003 84.9879 90.0117 84.9867 90.0202C84.9855 90.0287 84.9824 90.0369 84.9777 90.0441C84.9731 90.0513 84.9669 90.0575 84.9596 90.0621C84.9524 90.0667 84.9442 90.0697 84.9357 90.0709L65.4028 92.8185C65.4 92.8189 65.3972 92.8191 65.3944 92.8191ZM64.6251 89.8877L65.4376 92.6925L84.8505 89.9618L84.0381 87.157L64.6251 89.8877Z" fill="#111111"/>
<path d="M97.5288 85.1987L86.8311 86.7035L87.6772 89.6247L98.375 88.1199L97.5288 85.1987Z" fill="#8932F6"/>
<path d="M87.6776 89.6845C87.6646 89.6845 87.652 89.6803 87.6416 89.6725C87.6312 89.6647 87.6237 89.6537 87.6201 89.6412L86.7739 86.72C86.7715 86.7118 86.7709 86.7031 86.7721 86.6946C86.7734 86.6861 86.7764 86.6779 86.7811 86.6707C86.7857 86.6635 86.7919 86.6573 86.7992 86.6527C86.8064 86.6481 86.8146 86.6451 86.8231 86.6439L97.5209 85.139C97.5352 85.137 97.5497 85.1402 97.5618 85.148C97.5739 85.1559 97.5828 85.1679 97.5868 85.1818L98.433 88.1029C98.4354 88.1112 98.436 88.1199 98.4348 88.1284C98.4335 88.1369 98.4305 88.1451 98.4258 88.1523C98.4211 88.1595 98.4149 88.1656 98.4077 88.1703C98.4004 88.1749 98.3923 88.1779 98.3838 88.1791L87.686 89.6839C87.6832 89.6843 87.6804 89.6845 87.6776 89.6845L87.6776 89.6845ZM86.9083 86.7532L87.7207 89.5579L98.2985 88.0699L97.4861 85.2651L86.9083 86.7531V86.7532Z" fill="#111111"/>
<path d="M97.5048 75.2544L95.4513 68.1649L91.5153 54.5769C91.2251 53.5751 90.4564 52.7194 89.4939 52.3306L69.941 44.4375C69.4568 44.2421 68.961 44.18 68.5024 44.2445C68.0437 44.309 67.622 44.5001 67.2858 44.811L53.655 57.3719C52.9868 57.9902 52.752 58.987 53.0422 59.9888L59.0317 80.6663C59.4815 82.2193 61.0308 83.3089 62.4901 83.1036L95.6738 78.4358C97.1358 78.2301 97.9547 76.8074 97.5048 75.2544Z" fill="#8932F6"/>
<path d="M62.1353 83.1883C60.7628 83.1883 59.3942 82.1316 58.9746 80.6831L52.9852 60.0056C52.69 58.9864 52.9313 57.9604 53.6148 57.3279L67.2457 44.7669C67.5846 44.4536 68.0165 44.2524 68.4946 44.1852C68.971 44.1182 69.4791 44.1862 69.964 44.3819L89.5168 52.2751C90.4911 52.6686 91.2791 53.5443 91.5735 54.5603L97.5629 75.2378C97.7959 76.0422 97.6987 76.8604 97.2961 77.4828C96.9357 78.04 96.3627 78.3996 95.6826 78.4953L62.499 83.1631C62.3785 83.18 62.257 83.1884 62.1353 83.1884V83.1883ZM68.8568 44.2802C68.7402 44.2802 68.6248 44.2881 68.5113 44.304C68.0574 44.3679 67.6479 44.5584 67.3269 44.8552L53.6961 57.4161C53.0462 58.0175 52.8179 58.9969 53.1003 59.9721L59.0898 80.6497C59.5305 82.1712 61.0521 83.2452 62.4823 83.0442L95.6659 78.3764C96.3111 78.2856 96.8543 77.9451 97.1955 77.4176C97.5791 76.8244 97.6711 76.0421 97.4478 75.2712L91.4583 54.5937C91.174 53.6122 90.4129 52.7664 89.472 52.3863L69.9191 44.4932C69.5696 44.3521 69.2081 44.2801 68.8568 44.2801V44.2802Z" fill="#111111"/>
<path d="M80.9919 44.2546L72.461 45.4547L65.5295 46.4297L56.999 47.6296L61.5767 63.4332L74.1501 68.5077C74.6331 68.7033 75.128 68.7654 75.5868 68.7009C76.0455 68.6364 76.4678 68.4452 76.8054 68.1342L85.5693 60.0573L80.9919 44.2546Z" fill="#F3EAFE"/>
<path d="M75.2338 68.7853C74.8672 68.7853 74.491 68.7103 74.1281 68.5632L61.5547 63.4888C61.5463 63.4854 61.5387 63.4801 61.5327 63.4734C61.5266 63.4666 61.5221 63.4586 61.5196 63.4498L56.9419 47.6462C56.9394 47.638 56.9388 47.6293 56.9401 47.6208C56.9413 47.6123 56.9444 47.6041 56.949 47.5969C56.9537 47.5897 56.9599 47.5835 56.9671 47.5789C56.9744 47.5743 56.9826 47.5713 56.9911 47.5701L80.9839 44.1952C80.9982 44.1932 81.0127 44.1964 81.0248 44.2042C81.037 44.2121 81.0458 44.224 81.0498 44.2379L85.6273 60.0405C85.6336 60.0623 85.627 60.0859 85.6103 60.1013L76.8464 68.1783C76.5062 68.4918 76.0736 68.693 75.5956 68.7602C75.4757 68.777 75.3548 68.7853 75.2338 68.7852V68.7853ZM61.6266 63.3884L74.1729 68.452C74.6372 68.64 75.1233 68.7055 75.5788 68.6414C76.0327 68.5776 76.4429 68.3869 76.7651 68.09L85.5017 60.0383L80.9491 44.3213L57.0763 47.6794L61.6266 63.3884H61.6266Z" fill="#111111"/>
<path d="M91.5161 54.577L76.8058 68.1342C76.4682 68.4453 76.0459 68.6364 75.5872 68.7009C75.1285 68.7655 74.6335 68.7033 74.1506 68.5077L53.043 59.9888L59.0324 80.6664C59.4823 82.2193 61.0315 83.3089 62.4909 83.1036L95.6745 78.4357C97.1366 78.2301 97.9554 76.8074 97.5056 75.2544L91.5161 54.577Z" fill="#E7D6FD"/>
<path d="M62.135 83.1882C60.7624 83.1882 59.3938 82.1314 58.9742 80.683L52.9848 60.0054C52.9817 59.9946 52.9816 59.9832 52.9847 59.9724C52.9878 59.9616 52.9939 59.9518 53.0022 59.9443C53.0105 59.9368 53.0208 59.9317 53.0319 59.9297C53.0429 59.9277 53.0543 59.9289 53.0647 59.9331L74.1724 68.452C74.6366 68.64 75.1228 68.7054 75.5783 68.6414C76.0321 68.5775 76.4424 68.3869 76.7646 68.0899L91.4749 54.5327C91.4824 54.5258 91.4916 54.5209 91.5015 54.5185C91.5114 54.5161 91.5218 54.5163 91.5316 54.5191C91.5414 54.5218 91.5504 54.527 91.5576 54.5342C91.5649 54.5414 91.5702 54.5503 91.573 54.5601L97.5625 75.2376C97.7955 76.0419 97.6983 76.8602 97.2958 77.4826C96.9354 78.0398 96.3623 78.3993 95.6822 78.495L62.4986 83.1629C62.3781 83.1797 62.2566 83.1882 62.135 83.1882ZM53.1342 60.0905L59.0894 80.6495C59.5302 82.171 61.0519 83.2455 62.4819 83.0441L95.6655 78.3763C96.3107 78.2855 96.8539 77.945 97.1951 77.4175C97.5787 76.8243 97.6707 76.042 97.4474 75.2711L91.4849 54.6867L76.8458 68.1783C76.5056 68.4918 76.073 68.693 75.595 68.7603C75.1186 68.8273 74.6111 68.7592 74.1275 68.5633L53.1342 60.0905Z" fill="#111111"/>
<path d="M74.7253 48.2141L64.9785 49.5852L65.4729 51.2919L75.2197 49.9209L74.7253 48.2141Z" fill="#E7D6FD"/>
<path d="M65.4733 51.3519C65.4603 51.3519 65.4477 51.3476 65.4373 51.3398C65.4269 51.332 65.4194 51.321 65.4158 51.3086L64.9214 49.6019C64.9189 49.5936 64.9183 49.5849 64.9196 49.5764C64.9208 49.5679 64.9239 49.5597 64.9285 49.5525C64.9332 49.5453 64.9394 49.5391 64.9466 49.5345C64.9539 49.5299 64.962 49.5269 64.9706 49.5257L74.7174 48.1546C74.7317 48.1526 74.7462 48.1558 74.7584 48.1637C74.7705 48.1715 74.7794 48.1835 74.7834 48.1974L75.2777 49.9041C75.2801 49.9124 75.2807 49.9211 75.2795 49.9296C75.2783 49.9381 75.2752 49.9463 75.2705 49.9535C75.2659 49.9607 75.2597 49.9668 75.2524 49.9715C75.2452 49.9761 75.237 49.9791 75.2285 49.9803L65.4817 51.3513C65.4789 51.3517 65.4761 51.3519 65.4733 51.3519ZM65.0557 49.6349L65.5164 51.2252L75.1433 49.8711L74.6826 48.2808L65.0557 49.6349ZM61.187 54.2059C61.172 54.2056 61.1576 54.1997 61.1467 54.1894C61.1357 54.179 61.1291 54.165 61.1281 54.15C61.127 54.135 61.1317 54.1201 61.141 54.1083C61.1504 54.0966 61.1639 54.0888 61.1787 54.0865L80.7511 51.3333C80.7589 51.3321 80.7668 51.3326 80.7744 51.3345C80.7821 51.3365 80.7892 51.3399 80.7955 51.3447C80.8018 51.3494 80.8071 51.3554 80.8111 51.3622C80.8151 51.369 80.8177 51.3765 80.8187 51.3843C80.8198 51.3921 80.8194 51.4001 80.8174 51.4077C80.8155 51.4153 80.812 51.4225 80.8073 51.4288C80.8025 51.4351 80.7966 51.4404 80.7898 51.4444C80.783 51.4484 80.7755 51.451 80.7677 51.4521L61.1954 54.2053C61.1926 54.2057 61.1898 54.2059 61.1869 54.2059H61.187ZM62.3241 58.1315C62.309 58.1313 62.2947 58.1254 62.2837 58.1151C62.2728 58.1047 62.2662 58.0906 62.2652 58.0756C62.2641 58.0606 62.2687 58.0458 62.2781 58.034C62.2875 58.0222 62.301 58.0144 62.3158 58.0121L81.8882 55.2589C81.8959 55.2578 81.9039 55.2583 81.9115 55.2603C81.9191 55.2622 81.9263 55.2657 81.9326 55.2704C81.9388 55.2752 81.9441 55.2811 81.9481 55.2879C81.9521 55.2947 81.9547 55.3022 81.9558 55.31C81.9569 55.3178 81.9565 55.3257 81.9545 55.3334C81.9525 55.341 81.9491 55.3482 81.9443 55.3544C81.9396 55.3607 81.9337 55.366 81.9269 55.37C81.9201 55.374 81.9126 55.3766 81.9048 55.3777L62.3325 58.1309C62.3297 58.1313 62.3268 58.1315 62.324 58.1315H62.3241ZM63.4612 62.0571C63.4462 62.0569 63.4318 62.051 63.4209 62.0407C63.41 62.0303 63.4033 62.0162 63.4023 62.0012C63.4013 61.9862 63.4059 61.9714 63.4153 61.9596C63.4247 61.9479 63.4381 61.94 63.453 61.9377L83.0253 59.1845C83.041 59.1823 83.057 59.1865 83.0697 59.196C83.0824 59.2056 83.0908 59.2199 83.093 59.2356C83.0952 59.2514 83.0911 59.2673 83.0815 59.2801C83.0719 59.2928 83.0577 59.3011 83.042 59.3033L63.4696 62.0565C63.4668 62.0569 63.464 62.0571 63.4612 62.0571H63.4612Z" fill="#111111"/>
</g>
<g clip-path="url(#clip3_37_11412)">
<path d="M51.2239 35.1891L49.128 36.1816L48.9442 37.4267L51.04 36.4342C52.1132 35.9261 52.7822 34.9847 52.9348 33.9519L53.1186 32.7068C52.9661 33.7396 52.297 34.681 51.2239 35.1891Z" fill="#E7D6FD"/>
<path d="M48.9388 37.4866C48.9307 37.4859 48.9228 37.4835 48.9156 37.4796C48.9084 37.4757 48.9021 37.4704 48.897 37.464C48.8919 37.4576 48.8882 37.4502 48.8861 37.4423C48.884 37.4343 48.8835 37.4261 48.8847 37.418L49.0685 36.1729C49.0714 36.153 49.0841 36.1359 49.1022 36.1273L51.1981 35.1349C52.2087 34.6564 52.9044 33.7454 53.0591 32.6981C53.0616 32.6824 53.0701 32.6683 53.0829 32.6588C53.0956 32.6494 53.1116 32.6453 53.1273 32.6475C53.1351 32.6486 53.1426 32.6513 53.1494 32.6554C53.1562 32.6594 53.1621 32.6648 53.1668 32.6711C53.1715 32.6774 53.1749 32.6847 53.1768 32.6923C53.1787 32.7 53.1791 32.7079 53.1779 32.7157L53.1778 32.7167L52.994 33.9609C52.8334 35.048 52.1125 35.9931 51.0656 36.4888L48.9698 37.4812C48.9601 37.4856 48.9494 37.4875 48.9388 37.4866ZM49.1826 36.2222L49.0198 37.3243L51.0142 36.38C52.0247 35.9015 52.7205 34.9905 52.8752 33.9431L52.933 33.5523C52.6079 34.2764 52.0161 34.8804 51.2494 35.2435L49.1826 36.2222Z" fill="#111111"/>
<path d="M48.6324 39.3212C48.5378 39.3655 48.4341 39.3867 48.3298 39.3828C48.2255 39.379 48.1236 39.3503 48.0326 39.2991L45.5219 37.8891L45.338 39.1342L47.8488 40.5442C47.9398 40.5954 48.0416 40.6241 48.146 40.6279C48.2503 40.6318 48.354 40.6106 48.4485 40.5663C48.6141 40.4879 48.7399 40.3398 48.768 40.1496L48.9519 38.9044C48.9238 39.0947 48.798 39.2428 48.6324 39.3212Z" fill="#E7D6FD"/>
<path d="M48.1088 40.6855C48.0088 40.6768 47.91 40.6471 47.8195 40.5967L45.3086 39.1865C45.2979 39.1806 45.2894 39.1715 45.284 39.1606C45.2786 39.1497 45.2767 39.1374 45.2785 39.1253L45.4624 37.8802C45.4638 37.8706 45.4676 37.8614 45.4733 37.8536C45.479 37.8457 45.4866 37.8394 45.4953 37.8351C45.5041 37.8308 45.5137 37.8287 45.5234 37.829C45.5331 37.8292 45.5426 37.8318 45.5511 37.8366L48.0619 39.2466C48.2309 39.3406 48.4345 39.3484 48.6066 39.2668C48.7643 39.1921 48.8685 39.0569 48.8924 38.8956C48.8949 38.88 48.9034 38.8659 48.9162 38.8564C48.9289 38.847 48.9448 38.8429 48.9606 38.845C48.9684 38.8462 48.9759 38.8488 48.9826 38.8529C48.9894 38.8569 48.9953 38.8623 49 38.8686C49.0047 38.875 49.0081 38.8822 49.01 38.8898C49.0119 38.8975 49.0123 38.9055 49.0111 38.9133L48.8273 40.1584C48.7974 40.3601 48.6687 40.5285 48.474 40.6207C48.3602 40.6743 48.2341 40.6967 48.1088 40.6855ZM45.4033 39.102L47.8781 40.4917C48.0472 40.5858 48.2509 40.5934 48.4227 40.5119C48.5805 40.4372 48.6847 40.302 48.7085 40.1407L48.8402 39.2492C48.787 39.3013 48.7254 39.344 48.658 39.3755C48.4509 39.4734 48.2064 39.4644 48.0033 39.3516L45.5685 37.9841L45.4033 39.102Z" fill="#111111"/>
<path d="M35.6442 42.5666C33.8657 43.4089 31.6502 42.7425 30.697 41.0763L25.1687 31.4124C24.791 30.7522 24.6684 30.0344 24.7686 29.3559L24.5847 30.601C24.4845 31.2795 24.6072 31.9973 24.9849 32.6575L30.5132 42.3215C31.4663 43.9876 33.6818 44.654 35.4604 43.8118L45.3384 39.1342L45.5222 37.8891L35.6442 42.5666Z" fill="#E7D6FD"/>
<path d="M33.4759 44.2198C32.2459 44.1121 31.0852 43.4423 30.461 42.3513L24.9327 32.6873C24.56 32.0357 24.4191 31.3112 24.5253 30.5921L24.7092 29.347C24.7103 29.3392 24.713 29.3317 24.717 29.3249C24.7211 29.3181 24.7264 29.3122 24.7327 29.3075C24.7391 29.3028 24.7463 29.2994 24.754 29.2975C24.7616 29.2956 24.7696 29.2952 24.7774 29.2964C24.7852 29.2975 24.7927 29.3002 24.7995 29.3043C24.8062 29.3083 24.8122 29.3137 24.8169 29.32C24.8216 29.3263 24.825 29.3336 24.8269 29.3412C24.8288 29.3489 24.8291 29.3569 24.828 29.3647C24.7258 30.0568 24.8616 30.7546 25.2208 31.3825L30.7491 41.0465C31.6852 42.6829 33.8696 43.3404 35.6184 42.5123L45.4964 37.8348C45.5063 37.8301 45.5172 37.8283 45.528 37.8293C45.5388 37.8304 45.5491 37.8344 45.5579 37.8409C45.5666 37.8474 45.5734 37.8561 45.5776 37.8661C45.5817 37.8762 45.5831 37.8872 45.5815 37.8979L45.3977 39.143C45.3947 39.1629 45.3821 39.18 45.364 39.1886L35.486 43.8662C34.8468 44.1688 34.1509 44.2789 33.4759 44.2198ZM24.7013 30.2226L24.6441 30.6097C24.5419 31.3018 24.6777 31.9996 25.0369 32.6275L30.5653 42.2916C31.5013 43.928 33.6856 44.5855 35.4346 43.7574L45.2835 39.0935L45.4463 37.9914L35.6698 42.6209C33.8656 43.4752 31.6114 42.7958 30.6449 41.1061L25.1166 31.4422C24.8956 31.0559 24.7561 30.6439 24.7013 30.2226Z" fill="#111111"/>
<path d="M42.2443 19.493C44.0229 18.6508 46.2357 19.3183 47.1889 20.9845L52.7173 30.6486C53.6704 32.3147 53.0018 34.3468 51.2232 35.1889L49.1274 36.1814L48.9563 38.8614C48.9419 39.0722 48.81 39.2368 48.6321 39.321C48.5376 39.3653 48.4339 39.3864 48.3296 39.3826C48.2253 39.3787 48.1234 39.35 48.0324 39.2989L45.5216 37.8889L35.6436 42.5665C33.865 43.4086 31.6496 42.7423 30.6965 41.0762L25.1681 31.4122C24.215 29.7459 24.8862 27.7127 26.6647 26.8706L42.2443 19.493Z" fill="#F3EAFE"/>
<path d="M33.6599 42.9746C32.4298 42.8668 31.2691 42.197 30.645 41.106L25.1167 31.442C24.656 30.6367 24.5511 29.7189 24.8215 28.8575C25.102 27.9635 25.7478 27.2386 26.6396 26.8162L42.2193 19.4387C44.0221 18.585 46.2751 19.2651 47.2417 20.9548L52.77 30.6188C53.2311 31.4248 53.3362 32.3432 53.0658 33.2046C52.7856 34.0974 52.1406 34.8215 51.2495 35.2434L49.1857 36.2206L49.0168 38.8653C49.0018 39.0857 48.8678 39.2762 48.6585 39.3754C48.4515 39.4734 48.2067 39.4644 48.0039 39.3515L45.5199 37.9565L35.6699 42.6208C35.0307 42.9235 34.3349 43.0337 33.6599 42.9746ZM42.245 19.4931L42.2707 19.5474L26.691 26.9249C25.8298 27.3327 25.2065 28.0319 24.9361 28.8935C24.6759 29.7225 24.777 30.6064 25.2209 31.3823L30.7492 41.0463C31.6853 42.6827 33.8697 43.3403 35.6185 42.5122L45.4965 37.8346C45.5052 37.8305 45.5147 37.8285 45.5243 37.8288C45.5339 37.8291 45.5432 37.8318 45.5516 37.8365L48.0624 39.2466C48.2315 39.3406 48.435 39.3483 48.607 39.2668C48.7765 39.1865 48.8849 39.0334 48.8969 38.8574L49.068 36.1777C49.0687 36.167 49.0722 36.1566 49.0783 36.1478C49.0843 36.1389 49.0926 36.1318 49.1022 36.1271L51.1981 35.1347C52.0585 34.7273 52.681 34.029 52.9511 33.1686C53.2113 32.3395 53.1099 31.4552 52.6656 30.6785L47.1374 21.0145C46.2014 19.3781 44.0181 18.72 42.2707 19.5474L42.245 19.4931Z" fill="#111111"/>
<path d="M33.3509 32.4628C32.7443 32.7501 32.5151 33.4466 32.8401 34.0147C33.1666 34.5853 33.9237 34.8118 34.5303 34.5245C35.1393 34.2362 35.3673 33.5432 35.0409 32.9726C34.7158 32.4045 33.9598 32.1745 33.3509 32.4628Z" fill="#111111"/>
<path d="M33.8491 34.7031C33.4161 34.6652 33.0072 34.4291 32.7872 34.0446C32.6245 33.7601 32.5877 33.4352 32.6835 33.1297C32.7828 32.8133 33.0104 32.5572 33.3244 32.4085C33.9589 32.1082 34.7519 32.3478 35.0922 32.9428C35.2557 33.2285 35.293 33.5537 35.1974 33.8584C35.0984 34.1737 34.8703 34.4296 34.5553 34.5788C34.3307 34.6852 34.0862 34.7239 33.8491 34.7031ZM33.3758 32.5172C33.0924 32.6514 32.8873 32.8817 32.7981 33.1657C32.7124 33.4388 32.7455 33.7298 32.8915 33.9849C33.2014 34.5266 33.9247 34.7445 34.5038 34.4702C34.7883 34.3354 34.9939 34.1054 35.0827 33.8224C35.1682 33.5499 35.1345 33.2588 34.9879 33.0025C34.678 32.4607 33.9547 32.243 33.3758 32.5172ZM38.4374 30.0538C37.831 30.341 37.6018 31.0375 37.9268 31.6057C38.2532 32.1763 39.0104 32.4027 39.6168 32.1155C40.2259 31.8271 40.4539 31.1341 40.1275 30.5635C39.8025 29.9954 39.0465 29.7654 38.4374 30.0538Z" fill="#111111"/>
<path d="M38.9369 32.294C38.5039 32.2561 38.0951 32.02 37.8751 31.6354C37.7123 31.3509 37.6755 31.0259 37.7714 30.7204C37.8707 30.4041 38.0982 30.148 38.4122 29.9994C39.0466 29.6991 39.8396 29.9386 40.1801 30.5336C40.3435 30.8193 40.3809 31.1445 40.2852 31.4492C40.1862 31.7646 39.9581 32.0204 39.6429 32.1698C39.4184 32.2761 39.174 32.3147 38.9369 32.294ZM39.1091 29.9945C38.8923 29.9755 38.6689 30.0108 38.4635 30.108C38.1802 30.2422 37.9751 30.4724 37.8859 30.7564C37.8002 31.0295 37.8333 31.3206 37.9793 31.5757C38.2892 32.1175 39.0124 32.3352 39.5914 32.061C39.876 31.9263 40.0817 31.6962 40.1705 31.4131C40.256 31.1407 40.2224 30.8495 40.0757 30.5932C39.8757 30.2437 39.5035 30.029 39.1091 29.9945ZM43.5253 27.6446C42.9188 27.9318 42.6895 28.6284 43.0145 29.1965C43.3409 29.7671 44.0982 29.9935 44.7046 29.7063C45.3137 29.4179 45.5417 28.7249 45.2153 28.1543C44.8903 27.5862 44.1343 27.3562 43.5253 27.6446Z" fill="#111111"/>
<path d="M44.0238 29.885C43.5908 29.847 43.1819 29.6109 42.962 29.2264C42.7993 28.9419 42.7624 28.6169 42.8583 28.3114C42.9576 27.9951 43.1852 27.739 43.4992 27.5903C44.1337 27.2899 44.9267 27.5294 45.2671 28.1245C45.4306 28.4102 45.4679 28.7354 45.3723 29.0401C45.2732 29.3555 45.0452 29.6114 44.73 29.7607C44.5054 29.8671 44.261 29.9057 44.0238 29.885ZM44.1962 27.5854C43.9793 27.5664 43.7559 27.6018 43.5505 27.699C43.2671 27.8332 43.062 28.0635 42.9728 28.3475C42.8871 28.6206 42.9202 28.9116 43.0661 29.1667C43.3761 29.7085 44.0994 29.9263 44.6785 29.652C44.9631 29.5173 45.1688 29.2871 45.2576 29.0041C45.343 28.7317 45.3094 28.4405 45.1627 28.1842C44.9628 27.8346 44.5906 27.6199 44.1962 27.5854Z" fill="#111111"/>
</g>
<defs>
<linearGradient id="paint0_linear_37_11412" x1="116.51" y1="69.2785" x2="130.32" y2="69.2785" gradientUnits="userSpaceOnUse">
<stop stop-color="#8932F6"/>
<stop offset="1" stop-color="#F971BA"/>
</linearGradient>
<linearGradient id="paint1_linear_37_11412" x1="38.5195" y1="80.6193" x2="113.6" y2="80.6193" gradientUnits="userSpaceOnUse">
<stop stop-color="#8932F6"/>
<stop offset="1" stop-color="#F971BA"/>
</linearGradient>
<clipPath id="clip0_37_11412">
<rect width="26.22" height="28.02" fill="white" transform="translate(104.16 52.6201)"/>
</clipPath>
<clipPath id="clip1_37_11412">
<rect width="76.2" height="103.32" fill="white" transform="translate(38.46 25.74)"/>
</clipPath>
<clipPath id="clip2_37_11412">
<rect width="48.12" height="72.24" fill="white" transform="translate(52.8604 44.1599)"/>
</clipPath>
<clipPath id="clip3_37_11412">
<rect width="28.74" height="25.98" fill="white" transform="matrix(0.996184 0.0872815 -0.0869673 0.996211 25.666 17.4575)"/>
</clipPath>
</defs>
</svg>
