<svg width="20" height="20" viewBox="0 0 20 20" fill="none" xmlns="http://www.w3.org/2000/svg">
<path fill-rule="evenodd" clip-rule="evenodd" d="M11.5603 13.813L5.24402 16.9712C4.60837 17.289 3.84066 17.1644 3.33813 16.6619V16.6619C2.8356 16.1594 2.71102 15.3917 3.02885 14.756L6.18701 8.43972C6.30679 8.2001 6.53447 8.03269 6.7989 7.98977C7.06332 7.94686 7.33226 8.03369 7.52167 8.22312L11.7769 12.4784C11.9664 12.6678 12.0532 12.9367 12.0103 13.2012C11.9674 13.4656 11.7999 13.6933 11.5603 13.813Z" stroke="#F2EBEF" stroke-width="1.2" stroke-linecap="round" stroke-linejoin="round"/>
<path d="M4.16667 2.50008V2.91675" stroke="#F2EBEF" stroke-width="1.2" stroke-linecap="round" stroke-linejoin="round"/>
<path d="M4.16667 5.83325V5.41659" stroke="#F2EBEF" stroke-width="1.2" stroke-linecap="round" stroke-linejoin="round"/>
<path d="M5.83301 4.16667H5.41634" stroke="#F2EBEF" stroke-width="1.2" stroke-linecap="round" stroke-linejoin="round"/>
<path d="M2.50033 4.16667H2.91699" stroke="#F2EBEF" stroke-width="1.2" stroke-linecap="round" stroke-linejoin="round"/>
<path d="M10 2.5C10.422 2.71102 10.7331 3.09308 10.8542 3.5491C10.9753 4.00512 10.8948 4.49118 10.633 4.88377L10 5.83333" stroke="#F2EBEF" stroke-width="1.2" stroke-linecap="round" stroke-linejoin="round"/>
<path d="M14.167 9.99988L15.1166 9.36684C15.5091 9.10513 15.9952 9.02459 16.4512 9.14569C16.9072 9.26679 17.2893 9.57788 17.5003 9.99988" stroke="#F2EBEF" stroke-width="1.2" stroke-linecap="round" stroke-linejoin="round"/>
<path d="M15.8337 14.1666V14.5833" stroke="#F2EBEF" stroke-width="1.2" stroke-linecap="round" stroke-linejoin="round"/>
<path d="M15.8337 17.5V17.0833" stroke="#F2EBEF" stroke-width="1.2" stroke-linecap="round" stroke-linejoin="round"/>
<path d="M17.5 15.8334H17.0833" stroke="#F2EBEF" stroke-width="1.2" stroke-linecap="round" stroke-linejoin="round"/>
<path d="M14.1663 15.8334H14.583" stroke="#F2EBEF" stroke-width="1.2" stroke-linecap="round" stroke-linejoin="round"/>
<path d="M15.8337 2.50008V2.91675" stroke="#F2EBEF" stroke-width="1.2" stroke-linecap="round" stroke-linejoin="round"/>
<path d="M15.8337 5.83325V5.41659" stroke="#F2EBEF" stroke-width="1.2" stroke-linecap="round" stroke-linejoin="round"/>
<path d="M17.5 4.16667H17.0833" stroke="#F2EBEF" stroke-width="1.2" stroke-linecap="round" stroke-linejoin="round"/>
<path d="M14.1663 4.16667H14.583" stroke="#F2EBEF" stroke-width="1.2" stroke-linecap="round" stroke-linejoin="round"/>
<path d="M11.667 8.33333L12.5003 7.5" stroke="#F2EBEF" stroke-width="1.2" stroke-linecap="round" stroke-linejoin="round"/>
</svg>
