<svg width="25" height="24" viewBox="0 0 25 24" fill="none" xmlns="http://www.w3.org/2000/svg">
<path fill-rule="evenodd" clip-rule="evenodd" d="M17.6 10.9125C18.4625 9.7125 18.8 8.5125 18.8375 7.1625C18.9125 5.325 18.0875 3.75 16.4375 2.7375C14.675 1.65 13.625 1.125 13.625 1.125C14.4875 1.6125 15.05 2.85 15.275 4.4625C15.575 6.6375 15.0125 9.3 12.5 10.95L15.8 16.7625C13.325 16.5 11.6375 17.8125 11.6375 17.8125L14.825 20.5125C14.825 20.5125 17.525 18.7875 21.8 19.65L16.4375 12.3375C16.925 11.8125 17.225 11.4375 17.6 10.9125ZM6.6875 12.75V18.975C6.6875 18.975 5.075 20.2125 3.125 19.725L6.3125 22.425C8.6375 22.9125 10.1 21.4875 10.1 21.4875V14.7375L8.8625 12.225L6.6875 12.75ZM9.8504 8.40644C9.73907 8.43984 9.62188 8.475 9.5 8.5125C9.48713 8.51572 9.45578 8.52362 9.40921 8.53537C8.91285 8.66055 6.6875 9.22178 6.6875 9.1875V4.575L9.8 3.825C9.9125 3.7875 10.4 3.675 10.85 3.8625C10.8677 3.87135 10.8875 3.88021 10.9084 3.88955C10.976 3.91979 11.0552 3.9552 11.1125 4.0125L11.225 4.125C11.2625 4.1625 11.3 4.20938 11.3375 4.25625C11.375 4.30313 11.4125 4.35 11.45 4.3875C11.4688 4.425 11.4781 4.45312 11.4875 4.48125C11.4969 4.50937 11.5062 4.5375 11.525 4.575C11.525 4.66402 11.5485 4.72956 11.5769 4.80878C11.5843 4.82967 11.5922 4.85152 11.6 4.875C11.6 4.9125 11.6094 4.94062 11.6187 4.96875C11.6281 4.99688 11.6375 5.025 11.6375 5.0625C11.675 5.1375 11.7125 5.25 11.7125 5.3625C11.7875 6 11.7125 6.675 11.4875 7.2C11.375 7.5 11.1875 7.725 11 7.9125C10.8875 8.025 10.775 8.1 10.6625 8.1375C10.4656 8.22188 10.1844 8.30625 9.8504 8.40644Z" fill="white"/>
</svg>
