<svg width="25" height="24" viewBox="0 0 25 24" fill="none" xmlns="http://www.w3.org/2000/svg">
<g id="User">
<g id="Group">
<path id="Path" d="M10.591 8.15901C11.4697 9.03769 11.4697 10.4623 10.591 11.341C9.71231 12.2197 8.28769 12.2197 7.40901 11.341C6.53033 10.4623 6.53033 9.03769 7.40901 8.15901C8.28769 7.28033 9.71231 7.28033 10.591 8.15901" stroke="white" stroke-linecap="round" stroke-linejoin="round"/>
<path id="Path_2" fill-rule="evenodd" clip-rule="evenodd" d="M2.5 18.5V5.541C2.5 4.414 3.414 3.5 4.541 3.5H20.5C21.605 3.5 22.5 4.395 22.5 5.5V18.5C22.5 19.605 21.605 20.5 20.5 20.5H4.5C3.395 20.5 2.5 19.605 2.5 18.5Z" stroke="white" stroke-width="1.2" stroke-linecap="round" stroke-linejoin="round"/>
<path id="Path_3" d="M15.5 9.5H19.5" stroke="white" stroke-width="1.2" stroke-linecap="round" stroke-linejoin="round"/>
<path id="Path_4" d="M17.9 13.5H15.5" stroke="white" stroke-width="1.2" stroke-linecap="round" stroke-linejoin="round"/>
<path id="Path_5" d="M12.5953 16.5C12.4203 16.061 12.1503 15.667 11.8033 15.346V15.346C11.2163 14.802 10.4463 14.5 9.64627 14.5H8.35427C7.55427 14.5 6.78427 14.802 6.19727 15.346V15.346C5.85027 15.667 5.58027 16.061 5.40527 16.5" stroke="white" stroke-width="1.2" stroke-linecap="round" stroke-linejoin="round"/>
</g>
</g>
</svg>
