<svg width="24" height="24" viewBox="0 0 24 24" fill="none" xmlns="http://www.w3.org/2000/svg">
<path d="M12 3.375C8.06512 3.375 4.875 6.56512 4.875 10.5C4.875 15.375 11.1277 20.5635 11.3943 20.7825C11.5702 20.9276 11.7851 21 12 21C12.2149 21 12.4298 20.9276 12.6057 20.7825C12.8723 20.5635 19.125 15.375 19.125 10.5C19.125 6.56512 15.9349 3.375 12 3.375ZM12 4.875C15.1016 4.875 17.625 7.39838 17.625 10.5C17.625 13.6511 14.1274 17.4866 12 19.3308C9.87375 17.4877 6.375 13.6515 6.375 10.5C6.375 7.39838 8.89838 4.875 12 4.875ZM12 8.62866C10.965 8.62866 10.125 9.465 10.125 10.5C10.125 11.535 10.965 12.3713 12 12.3713C13.035 12.3713 13.875 11.535 13.875 10.5C13.875 10.305 13.8447 10.1174 13.7922 9.94116C13.646 10.2674 13.32 10.5 12.9375 10.5C12.42 10.5 12 10.0799 12 9.56616C12 9.18366 12.2289 8.85393 12.5552 8.71143C12.3789 8.65893 12.1912 8.62866 12 8.62866Z" fill="#E5DFE2"/>
</svg>
